M48
; DRILL file {KiCad 5.1.10-88a1d61d58~88~ubuntu18.04.1} date Wed May 26 13:38:11 2021
; FORMAT={-:-/ absolute / metric / decimal}
; #@! TF.CreationDate,2021-05-26T13:38:11+10:00
; #@! TF.GenerationSoftware,Kicad,Pcbnew,5.1.10-88a1d61d58~88~ubuntu18.04.1
; #@! TF.FileFunction,Plated,1,2,PTH
FMAT,2
METRIC
T1C0.400
T2C0.500
T3C1.100
T4C3.200
T5C4.500
%
G90
G05
T1
X45.1Y-48.25
X53.5Y-74.75
X54.437Y-88.163
X60.262Y-88.212
X73.512Y-77.188
X74.9Y-82.5
T2
X37.6Y-40.0
X38.303Y-38.303
X38.303Y-41.697
X40.0Y-37.6
X40.0Y-42.4
X41.697Y-38.303
X41.697Y-41.697
X42.4Y-40.0
X127.6Y-90.0
X128.303Y-88.303
X128.303Y-91.697
X130.0Y-87.6
X130.0Y-92.4
X131.697Y-88.303
X131.697Y-91.697
X132.4Y-90.0
T3
X39.74Y-52.88
X39.74Y-68.12
X42.28Y-52.88
X42.28Y-55.42
X42.28Y-68.12
X44.82Y-52.88
X44.82Y-68.12
X47.36Y-52.88
X47.36Y-68.12
X49.9Y-52.88
X49.9Y-68.12
X50.0Y-39.39
X52.44Y-52.88
X52.44Y-68.12
X52.54Y-39.39
X54.98Y-52.88
X54.98Y-68.12
X55.08Y-39.39
X57.52Y-52.88
X57.52Y-68.12
X57.62Y-39.39
X60.06Y-52.88
X60.06Y-68.12
X60.16Y-39.39
X62.6Y-52.88
X62.6Y-68.12
X62.7Y-39.39
X65.14Y-52.88
X65.14Y-68.12
X67.68Y-52.88
X67.68Y-68.12
X68.73Y-40.97
X68.73Y-43.51
X68.73Y-46.05
X68.73Y-48.59
X70.22Y-52.88
X70.22Y-68.12
X72.76Y-52.88
X72.76Y-55.42
X72.76Y-57.96
X72.76Y-60.5
X72.76Y-63.04
X72.76Y-65.58
X72.76Y-68.12
X74.16Y-48.64
X76.7Y-48.64
X79.24Y-48.64
X83.195Y-53.46
X84.67Y-40.97
X84.67Y-43.51
X84.67Y-46.05
X84.67Y-48.59
X85.735Y-53.46
X88.275Y-53.46
X90.815Y-53.46
X93.355Y-53.46
X95.895Y-53.46
X98.435Y-53.46
X100.975Y-53.46
X107.48Y-59.98
X107.48Y-62.52
X107.48Y-65.06
X107.48Y-67.6
X107.48Y-70.14
T4
X40.0Y-40.0
X82.425Y-58.93
X82.525Y-84.27
X101.475Y-84.27
X101.575Y-58.93
X128.94Y-74.36
X130.0Y-90.0
T5
X41.75Y-77.0
X41.75Y-84.2
T0
M30
