%TF.GenerationSoftware,KiCad,Pcbnew,5.1.10-88a1d61d58~88~ubuntu18.04.1*%
%TF.CreationDate,2021-05-26T16:46:43+10:00*%
%TF.ProjectId,prototype_rocket_fc,70726f74-6f74-4797-9065-5f726f636b65,rev?*%
%TF.SameCoordinates,Original*%
%TF.FileFunction,Legend,Top*%
%TF.FilePolarity,Positive*%
%FSLAX46Y46*%
G04 Gerber Fmt 4.6, Leading zero omitted, Abs format (unit mm)*
G04 Created by KiCad (PCBNEW 5.1.10-88a1d61d58~88~ubuntu18.04.1) date 2021-05-26 16:46:43*
%MOMM*%
%LPD*%
G01*
G04 APERTURE LIST*
%ADD10C,0.150000*%
%ADD11C,0.100000*%
%ADD12C,0.120000*%
%ADD13C,0.152400*%
G04 APERTURE END LIST*
D10*
X98764285Y-44489285D02*
X98335714Y-44489285D01*
X98550000Y-44489285D02*
X98550000Y-43739285D01*
X98478571Y-43846428D01*
X98407142Y-43917857D01*
X98335714Y-43953571D01*
X115833333Y-83877380D02*
X115833333Y-82877380D01*
X116166666Y-83591666D01*
X116500000Y-82877380D01*
X116500000Y-83877380D01*
X117404761Y-83877380D02*
X117404761Y-83353571D01*
X117357142Y-83258333D01*
X117261904Y-83210714D01*
X117071428Y-83210714D01*
X116976190Y-83258333D01*
X117404761Y-83829761D02*
X117309523Y-83877380D01*
X117071428Y-83877380D01*
X116976190Y-83829761D01*
X116928571Y-83734523D01*
X116928571Y-83639285D01*
X116976190Y-83544047D01*
X117071428Y-83496428D01*
X117309523Y-83496428D01*
X117404761Y-83448809D01*
X118309523Y-83877380D02*
X118309523Y-82877380D01*
X118309523Y-83829761D02*
X118214285Y-83877380D01*
X118023809Y-83877380D01*
X117928571Y-83829761D01*
X117880952Y-83782142D01*
X117833333Y-83686904D01*
X117833333Y-83401190D01*
X117880952Y-83305952D01*
X117928571Y-83258333D01*
X118023809Y-83210714D01*
X118214285Y-83210714D01*
X118309523Y-83258333D01*
X119166666Y-83829761D02*
X119071428Y-83877380D01*
X118880952Y-83877380D01*
X118785714Y-83829761D01*
X118738095Y-83734523D01*
X118738095Y-83353571D01*
X118785714Y-83258333D01*
X118880952Y-83210714D01*
X119071428Y-83210714D01*
X119166666Y-83258333D01*
X119214285Y-83353571D01*
X119214285Y-83448809D01*
X118738095Y-83544047D01*
X120738095Y-83353571D02*
X120880952Y-83401190D01*
X120928571Y-83448809D01*
X120976190Y-83544047D01*
X120976190Y-83686904D01*
X120928571Y-83782142D01*
X120880952Y-83829761D01*
X120785714Y-83877380D01*
X120404761Y-83877380D01*
X120404761Y-82877380D01*
X120738095Y-82877380D01*
X120833333Y-82925000D01*
X120880952Y-82972619D01*
X120928571Y-83067857D01*
X120928571Y-83163095D01*
X120880952Y-83258333D01*
X120833333Y-83305952D01*
X120738095Y-83353571D01*
X120404761Y-83353571D01*
X121309523Y-83210714D02*
X121547619Y-83877380D01*
X121785714Y-83210714D02*
X121547619Y-83877380D01*
X121452380Y-84115476D01*
X121404761Y-84163095D01*
X121309523Y-84210714D01*
X122166666Y-83782142D02*
X122214285Y-83829761D01*
X122166666Y-83877380D01*
X122119047Y-83829761D01*
X122166666Y-83782142D01*
X122166666Y-83877380D01*
X122166666Y-83258333D02*
X122214285Y-83305952D01*
X122166666Y-83353571D01*
X122119047Y-83305952D01*
X122166666Y-83258333D01*
X122166666Y-83353571D01*
X113214285Y-85003571D02*
X113547619Y-85003571D01*
X113690476Y-85527380D02*
X113214285Y-85527380D01*
X113214285Y-84527380D01*
X113690476Y-84527380D01*
X114547619Y-85527380D02*
X114547619Y-84527380D01*
X114547619Y-85479761D02*
X114452380Y-85527380D01*
X114261904Y-85527380D01*
X114166666Y-85479761D01*
X114119047Y-85432142D01*
X114071428Y-85336904D01*
X114071428Y-85051190D01*
X114119047Y-84955952D01*
X114166666Y-84908333D01*
X114261904Y-84860714D01*
X114452380Y-84860714D01*
X114547619Y-84908333D01*
X114928571Y-84860714D02*
X115119047Y-85527380D01*
X115309523Y-85051190D01*
X115500000Y-85527380D01*
X115690476Y-84860714D01*
X116500000Y-85527380D02*
X116500000Y-85003571D01*
X116452380Y-84908333D01*
X116357142Y-84860714D01*
X116166666Y-84860714D01*
X116071428Y-84908333D01*
X116500000Y-85479761D02*
X116404761Y-85527380D01*
X116166666Y-85527380D01*
X116071428Y-85479761D01*
X116023809Y-85384523D01*
X116023809Y-85289285D01*
X116071428Y-85194047D01*
X116166666Y-85146428D01*
X116404761Y-85146428D01*
X116500000Y-85098809D01*
X116976190Y-85527380D02*
X116976190Y-84860714D01*
X116976190Y-85051190D02*
X117023809Y-84955952D01*
X117071428Y-84908333D01*
X117166666Y-84860714D01*
X117261904Y-84860714D01*
X118023809Y-85527380D02*
X118023809Y-84527380D01*
X118023809Y-85479761D02*
X117928571Y-85527380D01*
X117738095Y-85527380D01*
X117642857Y-85479761D01*
X117595238Y-85432142D01*
X117547619Y-85336904D01*
X117547619Y-85051190D01*
X117595238Y-84955952D01*
X117642857Y-84908333D01*
X117738095Y-84860714D01*
X117928571Y-84860714D01*
X118023809Y-84908333D01*
X120071428Y-85527380D02*
X120023809Y-85527380D01*
X119928571Y-85479761D01*
X119785714Y-85336904D01*
X119547619Y-85051190D01*
X119452380Y-84908333D01*
X119404761Y-84765476D01*
X119404761Y-84670238D01*
X119452380Y-84575000D01*
X119547619Y-84527380D01*
X119595238Y-84527380D01*
X119690476Y-84575000D01*
X119738095Y-84670238D01*
X119738095Y-84717857D01*
X119690476Y-84813095D01*
X119642857Y-84860714D01*
X119357142Y-85051190D01*
X119309523Y-85098809D01*
X119261904Y-85194047D01*
X119261904Y-85336904D01*
X119309523Y-85432142D01*
X119357142Y-85479761D01*
X119452380Y-85527380D01*
X119595238Y-85527380D01*
X119690476Y-85479761D01*
X119738095Y-85432142D01*
X119880952Y-85241666D01*
X119928571Y-85098809D01*
X119928571Y-85003571D01*
X121261904Y-85527380D02*
X121261904Y-84527380D01*
X121833333Y-85527380D02*
X121404761Y-84955952D01*
X121833333Y-84527380D02*
X121261904Y-85098809D01*
X122642857Y-85479761D02*
X122547619Y-85527380D01*
X122357142Y-85527380D01*
X122261904Y-85479761D01*
X122214285Y-85384523D01*
X122214285Y-85003571D01*
X122261904Y-84908333D01*
X122357142Y-84860714D01*
X122547619Y-84860714D01*
X122642857Y-84908333D01*
X122690476Y-85003571D01*
X122690476Y-85098809D01*
X122214285Y-85194047D01*
X123023809Y-84860714D02*
X123261904Y-85527380D01*
X123500000Y-84860714D01*
X123880952Y-85527380D02*
X123880952Y-84860714D01*
X123880952Y-84527380D02*
X123833333Y-84575000D01*
X123880952Y-84622619D01*
X123928571Y-84575000D01*
X123880952Y-84527380D01*
X123880952Y-84622619D01*
X124357142Y-84860714D02*
X124357142Y-85527380D01*
X124357142Y-84955952D02*
X124404761Y-84908333D01*
X124500000Y-84860714D01*
X124642857Y-84860714D01*
X124738095Y-84908333D01*
X124785714Y-85003571D01*
X124785714Y-85527380D01*
X55057142Y-44328571D02*
X55200000Y-44376190D01*
X55247619Y-44423809D01*
X55295238Y-44519047D01*
X55295238Y-44661904D01*
X55247619Y-44757142D01*
X55200000Y-44804761D01*
X55104761Y-44852380D01*
X54723809Y-44852380D01*
X54723809Y-43852380D01*
X55057142Y-43852380D01*
X55152380Y-43900000D01*
X55200000Y-43947619D01*
X55247619Y-44042857D01*
X55247619Y-44138095D01*
X55200000Y-44233333D01*
X55152380Y-44280952D01*
X55057142Y-44328571D01*
X54723809Y-44328571D01*
X56152380Y-44852380D02*
X56152380Y-44328571D01*
X56104761Y-44233333D01*
X56009523Y-44185714D01*
X55819047Y-44185714D01*
X55723809Y-44233333D01*
X56152380Y-44804761D02*
X56057142Y-44852380D01*
X55819047Y-44852380D01*
X55723809Y-44804761D01*
X55676190Y-44709523D01*
X55676190Y-44614285D01*
X55723809Y-44519047D01*
X55819047Y-44471428D01*
X56057142Y-44471428D01*
X56152380Y-44423809D01*
X56628571Y-44852380D02*
X56628571Y-44185714D01*
X56628571Y-44376190D02*
X56676190Y-44280952D01*
X56723809Y-44233333D01*
X56819047Y-44185714D01*
X56914285Y-44185714D01*
X57390476Y-44852380D02*
X57295238Y-44804761D01*
X57247619Y-44757142D01*
X57200000Y-44661904D01*
X57200000Y-44376190D01*
X57247619Y-44280952D01*
X57295238Y-44233333D01*
X57390476Y-44185714D01*
X57533333Y-44185714D01*
X57628571Y-44233333D01*
X57676190Y-44280952D01*
X57723809Y-44376190D01*
X57723809Y-44661904D01*
X57676190Y-44757142D01*
X57628571Y-44804761D01*
X57533333Y-44852380D01*
X57390476Y-44852380D01*
X73742857Y-43152380D02*
X73933333Y-43152380D01*
X74028571Y-43104761D01*
X74076190Y-43057142D01*
X74171428Y-42914285D01*
X74219047Y-42723809D01*
X74219047Y-42342857D01*
X74171428Y-42247619D01*
X74123809Y-42200000D01*
X74028571Y-42152380D01*
X73838095Y-42152380D01*
X73742857Y-42200000D01*
X73695238Y-42247619D01*
X73647619Y-42342857D01*
X73647619Y-42580952D01*
X73695238Y-42676190D01*
X73742857Y-42723809D01*
X73838095Y-42771428D01*
X74028571Y-42771428D01*
X74123809Y-42723809D01*
X74171428Y-42676190D01*
X74219047Y-42580952D01*
X74647619Y-43152380D02*
X74647619Y-42152380D01*
X74885714Y-42152380D01*
X75028571Y-42200000D01*
X75123809Y-42295238D01*
X75171428Y-42390476D01*
X75219047Y-42580952D01*
X75219047Y-42723809D01*
X75171428Y-42914285D01*
X75123809Y-43009523D01*
X75028571Y-43104761D01*
X74885714Y-43152380D01*
X74647619Y-43152380D01*
X75838095Y-42152380D02*
X76028571Y-42152380D01*
X76123809Y-42200000D01*
X76219047Y-42295238D01*
X76266666Y-42485714D01*
X76266666Y-42819047D01*
X76219047Y-43009523D01*
X76123809Y-43104761D01*
X76028571Y-43152380D01*
X75838095Y-43152380D01*
X75742857Y-43104761D01*
X75647619Y-43009523D01*
X75600000Y-42819047D01*
X75600000Y-42485714D01*
X75647619Y-42295238D01*
X75742857Y-42200000D01*
X75838095Y-42152380D01*
X77028571Y-42628571D02*
X76695238Y-42628571D01*
X76695238Y-43152380D02*
X76695238Y-42152380D01*
X77171428Y-42152380D01*
X78314285Y-43152380D02*
X78314285Y-42152380D01*
X78790476Y-43152380D02*
X78790476Y-42152380D01*
X79123809Y-42866666D01*
X79457142Y-42152380D01*
X79457142Y-43152380D01*
X79933333Y-42152380D02*
X79933333Y-42961904D01*
X79980952Y-43057142D01*
X80028571Y-43104761D01*
X80123809Y-43152380D01*
X80314285Y-43152380D01*
X80409523Y-43104761D01*
X80457142Y-43057142D01*
X80504761Y-42961904D01*
X80504761Y-42152380D01*
X119085714Y-64300000D02*
X118990476Y-64252380D01*
X118847619Y-64252380D01*
X118704761Y-64300000D01*
X118609523Y-64395238D01*
X118561904Y-64490476D01*
X118514285Y-64680952D01*
X118514285Y-64823809D01*
X118561904Y-65014285D01*
X118609523Y-65109523D01*
X118704761Y-65204761D01*
X118847619Y-65252380D01*
X118942857Y-65252380D01*
X119085714Y-65204761D01*
X119133333Y-65157142D01*
X119133333Y-64823809D01*
X118942857Y-64823809D01*
X119561904Y-65252380D02*
X119561904Y-64252380D01*
X119942857Y-64252380D01*
X120038095Y-64300000D01*
X120085714Y-64347619D01*
X120133333Y-64442857D01*
X120133333Y-64585714D01*
X120085714Y-64680952D01*
X120038095Y-64728571D01*
X119942857Y-64776190D01*
X119561904Y-64776190D01*
X120514285Y-65204761D02*
X120657142Y-65252380D01*
X120895238Y-65252380D01*
X120990476Y-65204761D01*
X121038095Y-65157142D01*
X121085714Y-65061904D01*
X121085714Y-64966666D01*
X121038095Y-64871428D01*
X120990476Y-64823809D01*
X120895238Y-64776190D01*
X120704761Y-64728571D01*
X120609523Y-64680952D01*
X120561904Y-64633333D01*
X120514285Y-64538095D01*
X120514285Y-64442857D01*
X120561904Y-64347619D01*
X120609523Y-64300000D01*
X120704761Y-64252380D01*
X120942857Y-64252380D01*
X121085714Y-64300000D01*
X86366666Y-70804761D02*
X86509523Y-70852380D01*
X86747619Y-70852380D01*
X86842857Y-70804761D01*
X86890476Y-70757142D01*
X86938095Y-70661904D01*
X86938095Y-70566666D01*
X86890476Y-70471428D01*
X86842857Y-70423809D01*
X86747619Y-70376190D01*
X86557142Y-70328571D01*
X86461904Y-70280952D01*
X86414285Y-70233333D01*
X86366666Y-70138095D01*
X86366666Y-70042857D01*
X86414285Y-69947619D01*
X86461904Y-69900000D01*
X86557142Y-69852380D01*
X86795238Y-69852380D01*
X86938095Y-69900000D01*
X87366666Y-70852380D02*
X87366666Y-69852380D01*
X87604761Y-69852380D01*
X87747619Y-69900000D01*
X87842857Y-69995238D01*
X87890476Y-70090476D01*
X87938095Y-70280952D01*
X87938095Y-70423809D01*
X87890476Y-70614285D01*
X87842857Y-70709523D01*
X87747619Y-70804761D01*
X87604761Y-70852380D01*
X87366666Y-70852380D01*
X89700000Y-70757142D02*
X89652380Y-70804761D01*
X89509523Y-70852380D01*
X89414285Y-70852380D01*
X89271428Y-70804761D01*
X89176190Y-70709523D01*
X89128571Y-70614285D01*
X89080952Y-70423809D01*
X89080952Y-70280952D01*
X89128571Y-70090476D01*
X89176190Y-69995238D01*
X89271428Y-69900000D01*
X89414285Y-69852380D01*
X89509523Y-69852380D01*
X89652380Y-69900000D01*
X89700000Y-69947619D01*
X90557142Y-70852380D02*
X90557142Y-70328571D01*
X90509523Y-70233333D01*
X90414285Y-70185714D01*
X90223809Y-70185714D01*
X90128571Y-70233333D01*
X90557142Y-70804761D02*
X90461904Y-70852380D01*
X90223809Y-70852380D01*
X90128571Y-70804761D01*
X90080952Y-70709523D01*
X90080952Y-70614285D01*
X90128571Y-70519047D01*
X90223809Y-70471428D01*
X90461904Y-70471428D01*
X90557142Y-70423809D01*
X91033333Y-70852380D02*
X91033333Y-70185714D01*
X91033333Y-70376190D02*
X91080952Y-70280952D01*
X91128571Y-70233333D01*
X91223809Y-70185714D01*
X91319047Y-70185714D01*
X92080952Y-70852380D02*
X92080952Y-69852380D01*
X92080952Y-70804761D02*
X91985714Y-70852380D01*
X91795238Y-70852380D01*
X91700000Y-70804761D01*
X91652380Y-70757142D01*
X91604761Y-70661904D01*
X91604761Y-70376190D01*
X91652380Y-70280952D01*
X91700000Y-70233333D01*
X91795238Y-70185714D01*
X91985714Y-70185714D01*
X92080952Y-70233333D01*
X93890476Y-70852380D02*
X93557142Y-70376190D01*
X93319047Y-70852380D02*
X93319047Y-69852380D01*
X93700000Y-69852380D01*
X93795238Y-69900000D01*
X93842857Y-69947619D01*
X93890476Y-70042857D01*
X93890476Y-70185714D01*
X93842857Y-70280952D01*
X93795238Y-70328571D01*
X93700000Y-70376190D01*
X93319047Y-70376190D01*
X94700000Y-70804761D02*
X94604761Y-70852380D01*
X94414285Y-70852380D01*
X94319047Y-70804761D01*
X94271428Y-70709523D01*
X94271428Y-70328571D01*
X94319047Y-70233333D01*
X94414285Y-70185714D01*
X94604761Y-70185714D01*
X94700000Y-70233333D01*
X94747619Y-70328571D01*
X94747619Y-70423809D01*
X94271428Y-70519047D01*
X95604761Y-70852380D02*
X95604761Y-70328571D01*
X95557142Y-70233333D01*
X95461904Y-70185714D01*
X95271428Y-70185714D01*
X95176190Y-70233333D01*
X95604761Y-70804761D02*
X95509523Y-70852380D01*
X95271428Y-70852380D01*
X95176190Y-70804761D01*
X95128571Y-70709523D01*
X95128571Y-70614285D01*
X95176190Y-70519047D01*
X95271428Y-70471428D01*
X95509523Y-70471428D01*
X95604761Y-70423809D01*
X96509523Y-70852380D02*
X96509523Y-69852380D01*
X96509523Y-70804761D02*
X96414285Y-70852380D01*
X96223809Y-70852380D01*
X96128571Y-70804761D01*
X96080952Y-70757142D01*
X96033333Y-70661904D01*
X96033333Y-70376190D01*
X96080952Y-70280952D01*
X96128571Y-70233333D01*
X96223809Y-70185714D01*
X96414285Y-70185714D01*
X96509523Y-70233333D01*
X97366666Y-70804761D02*
X97271428Y-70852380D01*
X97080952Y-70852380D01*
X96985714Y-70804761D01*
X96938095Y-70709523D01*
X96938095Y-70328571D01*
X96985714Y-70233333D01*
X97080952Y-70185714D01*
X97271428Y-70185714D01*
X97366666Y-70233333D01*
X97414285Y-70328571D01*
X97414285Y-70423809D01*
X96938095Y-70519047D01*
X97842857Y-70852380D02*
X97842857Y-70185714D01*
X97842857Y-70376190D02*
X97890476Y-70280952D01*
X97938095Y-70233333D01*
X98033333Y-70185714D01*
X98128571Y-70185714D01*
X76671428Y-86985714D02*
X76671428Y-86223809D01*
X77052380Y-86604761D02*
X76290476Y-86604761D01*
X76052380Y-85271428D02*
X76052380Y-85747619D01*
X76528571Y-85795238D01*
X76480952Y-85747619D01*
X76433333Y-85652380D01*
X76433333Y-85414285D01*
X76480952Y-85319047D01*
X76528571Y-85271428D01*
X76623809Y-85223809D01*
X76861904Y-85223809D01*
X76957142Y-85271428D01*
X77004761Y-85319047D01*
X77052380Y-85414285D01*
X77052380Y-85652380D01*
X77004761Y-85747619D01*
X76957142Y-85795238D01*
X76052380Y-84938095D02*
X77052380Y-84604761D01*
X76052380Y-84271428D01*
X36619047Y-90071428D02*
X37380952Y-90071428D01*
X37119047Y-73071428D02*
X37880952Y-73071428D01*
X37500000Y-73452380D02*
X37500000Y-72690476D01*
D11*
%TO.C,U2*%
G36*
X52313000Y-60627000D02*
G01*
X52567000Y-60373000D01*
X52821000Y-60754000D01*
X52567000Y-61008000D01*
X52313000Y-60627000D01*
G37*
X52313000Y-60627000D02*
X52567000Y-60373000D01*
X52821000Y-60754000D01*
X52567000Y-61008000D01*
X52313000Y-60627000D01*
G36*
X52694000Y-60246000D02*
G01*
X52948000Y-59992000D01*
X53202000Y-60373000D01*
X52948000Y-60627000D01*
X52694000Y-60246000D01*
G37*
X52694000Y-60246000D02*
X52948000Y-59992000D01*
X53202000Y-60373000D01*
X52948000Y-60627000D01*
X52694000Y-60246000D01*
G36*
X54599000Y-61008000D02*
G01*
X54853000Y-60754000D01*
X55107000Y-61135000D01*
X54853000Y-61389000D01*
X54599000Y-61008000D01*
G37*
X54599000Y-61008000D02*
X54853000Y-60754000D01*
X55107000Y-61135000D01*
X54853000Y-61389000D01*
X54599000Y-61008000D01*
G36*
X54218000Y-60500000D02*
G01*
X54472000Y-60246000D01*
X54726000Y-60627000D01*
X54472000Y-60881000D01*
X54218000Y-60500000D01*
G37*
X54218000Y-60500000D02*
X54472000Y-60246000D01*
X54726000Y-60627000D01*
X54472000Y-60881000D01*
X54218000Y-60500000D01*
G36*
X53837000Y-59992000D02*
G01*
X54091000Y-59738000D01*
X54345000Y-60119000D01*
X54091000Y-60373000D01*
X53837000Y-59992000D01*
G37*
X53837000Y-59992000D02*
X54091000Y-59738000D01*
X54345000Y-60119000D01*
X54091000Y-60373000D01*
X53837000Y-59992000D01*
G36*
X53837000Y-60881000D02*
G01*
X54091000Y-60627000D01*
X54345000Y-61008000D01*
X54091000Y-61262000D01*
X53837000Y-60881000D01*
G37*
X53837000Y-60881000D02*
X54091000Y-60627000D01*
X54345000Y-61008000D01*
X54091000Y-61262000D01*
X53837000Y-60881000D01*
G36*
X53456000Y-60373000D02*
G01*
X53710000Y-60119000D01*
X53964000Y-60500000D01*
X53710000Y-60754000D01*
X53456000Y-60373000D01*
G37*
X53456000Y-60373000D02*
X53710000Y-60119000D01*
X53964000Y-60500000D01*
X53710000Y-60754000D01*
X53456000Y-60373000D01*
G36*
X53075000Y-59865000D02*
G01*
X53329000Y-59611000D01*
X53583000Y-59992000D01*
X53329000Y-60246000D01*
X53075000Y-59865000D01*
G37*
X53075000Y-59865000D02*
X53329000Y-59611000D01*
X53583000Y-59992000D01*
X53329000Y-60246000D01*
X53075000Y-59865000D01*
D10*
X61330000Y-58595000D02*
X61330000Y-55420000D01*
X63870000Y-58595000D02*
X61330000Y-58595000D01*
X63870000Y-55420000D02*
X63870000Y-58595000D01*
X61330000Y-55420000D02*
X63870000Y-55420000D01*
X38470000Y-69390000D02*
X38470000Y-51610000D01*
X74030000Y-69390000D02*
X38470000Y-69390000D01*
X74030000Y-51610000D02*
X74030000Y-69390000D01*
X38470000Y-51610000D02*
X74030000Y-51610000D01*
X60695000Y-65580000D02*
X50535000Y-65580000D01*
X60695000Y-55420000D02*
X50535000Y-55420000D01*
X50535000Y-55420000D02*
X50535000Y-65580000D01*
X60695000Y-65580000D02*
X60695000Y-55420000D01*
X66410000Y-59230000D02*
X70982000Y-59230000D01*
X66410000Y-61770000D02*
X66410000Y-59230000D01*
X70982000Y-61770000D02*
X66410000Y-61770000D01*
X70982000Y-59230000D02*
X70982000Y-61770000D01*
X43550000Y-64310000D02*
X38470000Y-64310000D01*
X43550000Y-56690000D02*
X38470000Y-56690000D01*
X43550000Y-64310000D02*
X43550000Y-56690000D01*
X37200000Y-56690000D02*
X38470000Y-56690000D01*
X37200000Y-64310000D02*
X37200000Y-56690000D01*
X38470000Y-64310000D02*
X37200000Y-64310000D01*
D12*
%TO.C,U9*%
X99070000Y-40240000D02*
X119170000Y-40240000D01*
X99070000Y-40240000D02*
X99070000Y-45340000D01*
X99070000Y-45340000D02*
X119170000Y-45340000D01*
X119170000Y-45340000D02*
X119170000Y-40240000D01*
%TO.C,R5*%
X72872500Y-85000276D02*
X72872500Y-85509724D01*
X71827500Y-85000276D02*
X71827500Y-85509724D01*
%TO.C,D1*%
X75635000Y-86100000D02*
X75635000Y-83640000D01*
X75635000Y-83640000D02*
X74165000Y-83640000D01*
X74165000Y-83640000D02*
X74165000Y-86100000D01*
%TO.C,C1*%
X59253733Y-86390000D02*
X59546267Y-86390000D01*
X59253733Y-87410000D02*
X59546267Y-87410000D01*
%TO.C,C2*%
X59253733Y-85210000D02*
X59546267Y-85210000D01*
X59253733Y-84190000D02*
X59546267Y-84190000D01*
%TO.C,C3*%
X55446267Y-84240000D02*
X55153733Y-84240000D01*
X55446267Y-85260000D02*
X55153733Y-85260000D01*
%TO.C,C4*%
X56990000Y-78008767D02*
X56990000Y-77716233D01*
X58010000Y-78008767D02*
X58010000Y-77716233D01*
%TO.C,C5*%
X76160000Y-79461252D02*
X76160000Y-78038748D01*
X74340000Y-79461252D02*
X74340000Y-78038748D01*
%TO.C,C6*%
X70840000Y-79461252D02*
X70840000Y-78038748D01*
X72660000Y-79461252D02*
X72660000Y-78038748D01*
%TO.C,C7*%
X38740000Y-48103733D02*
X38740000Y-48396267D01*
X39760000Y-48103733D02*
X39760000Y-48396267D01*
%TO.C,C8*%
X47010000Y-48103733D02*
X47010000Y-48396267D01*
X45990000Y-48103733D02*
X45990000Y-48396267D01*
%TO.C,L1*%
X62450000Y-74650000D02*
X66550000Y-74650000D01*
X62450000Y-82950000D02*
X60350000Y-80850000D01*
X66550000Y-82950000D02*
X62450000Y-82950000D01*
X66550000Y-82950000D02*
X68650000Y-80850000D01*
X66550000Y-74650000D02*
X68650000Y-76750000D01*
%TO.C,R1*%
X55527064Y-81815000D02*
X55072936Y-81815000D01*
X55527064Y-83285000D02*
X55072936Y-83285000D01*
%TO.C,R2*%
X55554724Y-86227500D02*
X55045276Y-86227500D01*
X55554724Y-87272500D02*
X55045276Y-87272500D01*
%TO.C,R3*%
X48227500Y-75245276D02*
X48227500Y-75754724D01*
X49272500Y-75245276D02*
X49272500Y-75754724D01*
%TO.C,R4*%
X50227500Y-75754724D02*
X50227500Y-75245276D01*
X51272500Y-75754724D02*
X51272500Y-75245276D01*
D13*
%TO.C,U6*%
X52600001Y-77275000D02*
X52600001Y-78249999D01*
X55699999Y-76075000D02*
X55699999Y-78249999D01*
D12*
%TO.C,U7*%
X43500000Y-46640000D02*
X41050000Y-46640000D01*
X41700000Y-49860000D02*
X43500000Y-49860000D01*
%TO.C,J1*%
X45900000Y-88450000D02*
X45900000Y-75600000D01*
X43350000Y-72750000D02*
X40200000Y-72750000D01*
X37600000Y-75600000D02*
X37600000Y-88450000D01*
X37600000Y-88450000D02*
X45900000Y-88450000D01*
X45900000Y-75600000D02*
X43350000Y-72750000D01*
X40200000Y-72750000D02*
X37600000Y-75600000D01*
%TO.C,U2*%
D10*
X56820666Y-63583333D02*
X56120666Y-63583333D01*
X56620666Y-63350000D01*
X56120666Y-63116666D01*
X56820666Y-63116666D01*
X56820666Y-62783333D02*
X56120666Y-62783333D01*
X56820666Y-62450000D02*
X56120666Y-62450000D01*
X56620666Y-62216666D01*
X56120666Y-61983333D01*
X56820666Y-61983333D01*
X56120666Y-61716666D02*
X56820666Y-61250000D01*
X56120666Y-61250000D02*
X56820666Y-61716666D01*
X56820666Y-60583333D02*
X56487333Y-60816666D01*
X56820666Y-60983333D02*
X56120666Y-60983333D01*
X56120666Y-60716666D01*
X56154000Y-60650000D01*
X56187333Y-60616666D01*
X56254000Y-60583333D01*
X56354000Y-60583333D01*
X56420666Y-60616666D01*
X56454000Y-60650000D01*
X56487333Y-60716666D01*
X56487333Y-60983333D01*
X56120666Y-60383333D02*
X56120666Y-59983333D01*
X56820666Y-60183333D02*
X56120666Y-60183333D01*
X56820666Y-59383333D02*
X56820666Y-59783333D01*
X56820666Y-59583333D02*
X56120666Y-59583333D01*
X56220666Y-59650000D01*
X56287333Y-59716666D01*
X56320666Y-59783333D01*
X56120666Y-58950000D02*
X56120666Y-58883333D01*
X56154000Y-58816666D01*
X56187333Y-58783333D01*
X56254000Y-58750000D01*
X56387333Y-58716666D01*
X56554000Y-58716666D01*
X56687333Y-58750000D01*
X56754000Y-58783333D01*
X56787333Y-58816666D01*
X56820666Y-58883333D01*
X56820666Y-58950000D01*
X56787333Y-59016666D01*
X56754000Y-59050000D01*
X56687333Y-59083333D01*
X56554000Y-59116666D01*
X56387333Y-59116666D01*
X56254000Y-59083333D01*
X56187333Y-59050000D01*
X56154000Y-59016666D01*
X56120666Y-58950000D01*
X56120666Y-58116666D02*
X56120666Y-58250000D01*
X56154000Y-58316666D01*
X56187333Y-58350000D01*
X56287333Y-58416666D01*
X56420666Y-58450000D01*
X56687333Y-58450000D01*
X56754000Y-58416666D01*
X56787333Y-58383333D01*
X56820666Y-58316666D01*
X56820666Y-58183333D01*
X56787333Y-58116666D01*
X56754000Y-58083333D01*
X56687333Y-58050000D01*
X56520666Y-58050000D01*
X56454000Y-58083333D01*
X56420666Y-58116666D01*
X56387333Y-58183333D01*
X56387333Y-58316666D01*
X56420666Y-58383333D01*
X56454000Y-58416666D01*
X56520666Y-58450000D01*
X56187333Y-57783333D02*
X56154000Y-57750000D01*
X56120666Y-57683333D01*
X56120666Y-57516666D01*
X56154000Y-57450000D01*
X56187333Y-57416666D01*
X56254000Y-57383333D01*
X56320666Y-57383333D01*
X56420666Y-57416666D01*
X56820666Y-57816666D01*
X56820666Y-57383333D01*
X58344666Y-61900000D02*
X57644666Y-61900000D01*
X57644666Y-61733333D01*
X57678000Y-61633333D01*
X57744666Y-61566666D01*
X57811333Y-61533333D01*
X57944666Y-61500000D01*
X58044666Y-61500000D01*
X58178000Y-61533333D01*
X58244666Y-61566666D01*
X58311333Y-61633333D01*
X58344666Y-61733333D01*
X58344666Y-61900000D01*
X57644666Y-61300000D02*
X58344666Y-61066666D01*
X57644666Y-60833333D01*
X58344666Y-60266666D02*
X58344666Y-60600000D01*
X57644666Y-60600000D01*
X57644666Y-59733333D02*
X57644666Y-59866666D01*
X57678000Y-59933333D01*
X57711333Y-59966666D01*
X57811333Y-60033333D01*
X57944666Y-60066666D01*
X58211333Y-60066666D01*
X58278000Y-60033333D01*
X58311333Y-60000000D01*
X58344666Y-59933333D01*
X58344666Y-59800000D01*
X58311333Y-59733333D01*
X58278000Y-59700000D01*
X58211333Y-59666666D01*
X58044666Y-59666666D01*
X57978000Y-59700000D01*
X57944666Y-59733333D01*
X57911333Y-59800000D01*
X57911333Y-59933333D01*
X57944666Y-60000000D01*
X57978000Y-60033333D01*
X58044666Y-60066666D01*
X58144666Y-59400000D02*
X58144666Y-59066666D01*
X58344666Y-59466666D02*
X57644666Y-59233333D01*
X58344666Y-59000000D01*
%TO.C,U1*%
D11*
X98196190Y-56238095D02*
X98196190Y-55928571D01*
X98386666Y-56095238D01*
X98386666Y-56023809D01*
X98410476Y-55976190D01*
X98434285Y-55952380D01*
X98481904Y-55928571D01*
X98600952Y-55928571D01*
X98648571Y-55952380D01*
X98672380Y-55976190D01*
X98696190Y-56023809D01*
X98696190Y-56166666D01*
X98672380Y-56214285D01*
X98648571Y-56238095D01*
X98648571Y-55714285D02*
X98672380Y-55690476D01*
X98696190Y-55714285D01*
X98672380Y-55738095D01*
X98648571Y-55714285D01*
X98696190Y-55714285D01*
X98196190Y-55523809D02*
X98196190Y-55214285D01*
X98386666Y-55380952D01*
X98386666Y-55309523D01*
X98410476Y-55261904D01*
X98434285Y-55238095D01*
X98481904Y-55214285D01*
X98600952Y-55214285D01*
X98648571Y-55238095D01*
X98672380Y-55261904D01*
X98696190Y-55309523D01*
X98696190Y-55452380D01*
X98672380Y-55500000D01*
X98648571Y-55523809D01*
X98196190Y-55071428D02*
X98696190Y-54904761D01*
X98196190Y-54738095D01*
X95650000Y-55780952D02*
X95626190Y-55828571D01*
X95626190Y-55900000D01*
X95650000Y-55971428D01*
X95697619Y-56019047D01*
X95745238Y-56042857D01*
X95840476Y-56066666D01*
X95911904Y-56066666D01*
X96007142Y-56042857D01*
X96054761Y-56019047D01*
X96102380Y-55971428D01*
X96126190Y-55900000D01*
X96126190Y-55852380D01*
X96102380Y-55780952D01*
X96078571Y-55757142D01*
X95911904Y-55757142D01*
X95911904Y-55852380D01*
X96126190Y-55542857D02*
X95626190Y-55542857D01*
X96126190Y-55257142D01*
X95626190Y-55257142D01*
X96126190Y-55019047D02*
X95626190Y-55019047D01*
X95626190Y-54900000D01*
X95650000Y-54828571D01*
X95697619Y-54780952D01*
X95745238Y-54757142D01*
X95840476Y-54733333D01*
X95911904Y-54733333D01*
X96007142Y-54757142D01*
X96054761Y-54780952D01*
X96102380Y-54828571D01*
X96126190Y-54900000D01*
X96126190Y-55019047D01*
X93478571Y-55597619D02*
X93502380Y-55621428D01*
X93526190Y-55692857D01*
X93526190Y-55740476D01*
X93502380Y-55811904D01*
X93454761Y-55859523D01*
X93407142Y-55883333D01*
X93311904Y-55907142D01*
X93240476Y-55907142D01*
X93145238Y-55883333D01*
X93097619Y-55859523D01*
X93050000Y-55811904D01*
X93026190Y-55740476D01*
X93026190Y-55692857D01*
X93050000Y-55621428D01*
X93073809Y-55597619D01*
X93526190Y-55145238D02*
X93526190Y-55383333D01*
X93026190Y-55383333D01*
X93526190Y-54978571D02*
X93026190Y-54978571D01*
X93526190Y-54692857D02*
X93240476Y-54907142D01*
X93026190Y-54692857D02*
X93311904Y-54978571D01*
X100726190Y-55295238D02*
X100726190Y-55533333D01*
X100964285Y-55557142D01*
X100940476Y-55533333D01*
X100916666Y-55485714D01*
X100916666Y-55366666D01*
X100940476Y-55319047D01*
X100964285Y-55295238D01*
X101011904Y-55271428D01*
X101130952Y-55271428D01*
X101178571Y-55295238D01*
X101202380Y-55319047D01*
X101226190Y-55366666D01*
X101226190Y-55485714D01*
X101202380Y-55533333D01*
X101178571Y-55557142D01*
X100726190Y-55128571D02*
X101226190Y-54961904D01*
X100726190Y-54795238D01*
X88496190Y-55350000D02*
X87996190Y-55350000D01*
X87996190Y-55230952D01*
X88020000Y-55159523D01*
X88067619Y-55111904D01*
X88115238Y-55088095D01*
X88210476Y-55064285D01*
X88281904Y-55064285D01*
X88377142Y-55088095D01*
X88424761Y-55111904D01*
X88472380Y-55159523D01*
X88496190Y-55230952D01*
X88496190Y-55350000D01*
X88496190Y-54850000D02*
X87996190Y-54850000D01*
X85878571Y-55183333D02*
X85902380Y-55207142D01*
X85926190Y-55278571D01*
X85926190Y-55326190D01*
X85902380Y-55397619D01*
X85854761Y-55445238D01*
X85807142Y-55469047D01*
X85711904Y-55492857D01*
X85640476Y-55492857D01*
X85545238Y-55469047D01*
X85497619Y-55445238D01*
X85450000Y-55397619D01*
X85426190Y-55326190D01*
X85426190Y-55278571D01*
X85450000Y-55207142D01*
X85473809Y-55183333D01*
X85902380Y-54992857D02*
X85926190Y-54921428D01*
X85926190Y-54802380D01*
X85902380Y-54754761D01*
X85878571Y-54730952D01*
X85830952Y-54707142D01*
X85783333Y-54707142D01*
X85735714Y-54730952D01*
X85711904Y-54754761D01*
X85688095Y-54802380D01*
X85664285Y-54897619D01*
X85640476Y-54945238D01*
X85616666Y-54969047D01*
X85569047Y-54992857D01*
X85521428Y-54992857D01*
X85473809Y-54969047D01*
X85450000Y-54945238D01*
X85426190Y-54897619D01*
X85426190Y-54778571D01*
X85450000Y-54707142D01*
X83378571Y-55195238D02*
X83402380Y-55219047D01*
X83426190Y-55290476D01*
X83426190Y-55338095D01*
X83402380Y-55409523D01*
X83354761Y-55457142D01*
X83307142Y-55480952D01*
X83211904Y-55504761D01*
X83140476Y-55504761D01*
X83045238Y-55480952D01*
X82997619Y-55457142D01*
X82950000Y-55409523D01*
X82926190Y-55338095D01*
X82926190Y-55290476D01*
X82950000Y-55219047D01*
X82973809Y-55195238D01*
X83426190Y-54980952D02*
X82926190Y-54980952D01*
X82926190Y-54861904D01*
X82950000Y-54790476D01*
X82997619Y-54742857D01*
X83045238Y-54719047D01*
X83140476Y-54695238D01*
X83211904Y-54695238D01*
X83307142Y-54719047D01*
X83354761Y-54742857D01*
X83402380Y-54790476D01*
X83426190Y-54861904D01*
X83426190Y-54980952D01*
X91036190Y-55492857D02*
X90536190Y-55492857D01*
X90536190Y-55373809D01*
X90560000Y-55302380D01*
X90607619Y-55254761D01*
X90655238Y-55230952D01*
X90750476Y-55207142D01*
X90821904Y-55207142D01*
X90917142Y-55230952D01*
X90964761Y-55254761D01*
X91012380Y-55302380D01*
X91036190Y-55373809D01*
X91036190Y-55492857D01*
X90536190Y-54897619D02*
X90536190Y-54802380D01*
X90560000Y-54754761D01*
X90607619Y-54707142D01*
X90702857Y-54683333D01*
X90869523Y-54683333D01*
X90964761Y-54707142D01*
X91012380Y-54754761D01*
X91036190Y-54802380D01*
X91036190Y-54897619D01*
X91012380Y-54945238D01*
X90964761Y-54992857D01*
X90869523Y-55016666D01*
X90702857Y-55016666D01*
X90607619Y-54992857D01*
X90560000Y-54945238D01*
X90536190Y-54897619D01*
%TO.C,U3*%
X49656190Y-41866666D02*
X50156190Y-41700000D01*
X49656190Y-41533333D01*
X50108571Y-41080952D02*
X50132380Y-41104761D01*
X50156190Y-41176190D01*
X50156190Y-41223809D01*
X50132380Y-41295238D01*
X50084761Y-41342857D01*
X50037142Y-41366666D01*
X49941904Y-41390476D01*
X49870476Y-41390476D01*
X49775238Y-41366666D01*
X49727619Y-41342857D01*
X49680000Y-41295238D01*
X49656190Y-41223809D01*
X49656190Y-41176190D01*
X49680000Y-41104761D01*
X49703809Y-41080952D01*
X50108571Y-40580952D02*
X50132380Y-40604761D01*
X50156190Y-40676190D01*
X50156190Y-40723809D01*
X50132380Y-40795238D01*
X50084761Y-40842857D01*
X50037142Y-40866666D01*
X49941904Y-40890476D01*
X49870476Y-40890476D01*
X49775238Y-40866666D01*
X49727619Y-40842857D01*
X49680000Y-40795238D01*
X49656190Y-40723809D01*
X49656190Y-40676190D01*
X49680000Y-40604761D01*
X49703809Y-40580952D01*
X57752380Y-41807142D02*
X57776190Y-41735714D01*
X57776190Y-41616666D01*
X57752380Y-41569047D01*
X57728571Y-41545238D01*
X57680952Y-41521428D01*
X57633333Y-41521428D01*
X57585714Y-41545238D01*
X57561904Y-41569047D01*
X57538095Y-41616666D01*
X57514285Y-41711904D01*
X57490476Y-41759523D01*
X57466666Y-41783333D01*
X57419047Y-41807142D01*
X57371428Y-41807142D01*
X57323809Y-41783333D01*
X57300000Y-41759523D01*
X57276190Y-41711904D01*
X57276190Y-41592857D01*
X57300000Y-41521428D01*
X57776190Y-41307142D02*
X57276190Y-41307142D01*
X57276190Y-41188095D01*
X57300000Y-41116666D01*
X57347619Y-41069047D01*
X57395238Y-41045238D01*
X57490476Y-41021428D01*
X57561904Y-41021428D01*
X57657142Y-41045238D01*
X57704761Y-41069047D01*
X57752380Y-41116666D01*
X57776190Y-41188095D01*
X57776190Y-41307142D01*
X57633333Y-40830952D02*
X57633333Y-40592857D01*
X57776190Y-40878571D02*
X57276190Y-40711904D01*
X57776190Y-40545238D01*
X52220000Y-41580952D02*
X52196190Y-41628571D01*
X52196190Y-41700000D01*
X52220000Y-41771428D01*
X52267619Y-41819047D01*
X52315238Y-41842857D01*
X52410476Y-41866666D01*
X52481904Y-41866666D01*
X52577142Y-41842857D01*
X52624761Y-41819047D01*
X52672380Y-41771428D01*
X52696190Y-41700000D01*
X52696190Y-41652380D01*
X52672380Y-41580952D01*
X52648571Y-41557142D01*
X52481904Y-41557142D01*
X52481904Y-41652380D01*
X52696190Y-41342857D02*
X52196190Y-41342857D01*
X52696190Y-41057142D01*
X52196190Y-41057142D01*
X52696190Y-40819047D02*
X52196190Y-40819047D01*
X52196190Y-40700000D01*
X52220000Y-40628571D01*
X52267619Y-40580952D01*
X52315238Y-40557142D01*
X52410476Y-40533333D01*
X52481904Y-40533333D01*
X52577142Y-40557142D01*
X52624761Y-40580952D01*
X52672380Y-40628571D01*
X52696190Y-40700000D01*
X52696190Y-40819047D01*
X55212380Y-41795238D02*
X55236190Y-41723809D01*
X55236190Y-41604761D01*
X55212380Y-41557142D01*
X55188571Y-41533333D01*
X55140952Y-41509523D01*
X55093333Y-41509523D01*
X55045714Y-41533333D01*
X55021904Y-41557142D01*
X54998095Y-41604761D01*
X54974285Y-41700000D01*
X54950476Y-41747619D01*
X54926666Y-41771428D01*
X54879047Y-41795238D01*
X54831428Y-41795238D01*
X54783809Y-41771428D01*
X54760000Y-41747619D01*
X54736190Y-41700000D01*
X54736190Y-41580952D01*
X54760000Y-41509523D01*
X55188571Y-41009523D02*
X55212380Y-41033333D01*
X55236190Y-41104761D01*
X55236190Y-41152380D01*
X55212380Y-41223809D01*
X55164761Y-41271428D01*
X55117142Y-41295238D01*
X55021904Y-41319047D01*
X54950476Y-41319047D01*
X54855238Y-41295238D01*
X54807619Y-41271428D01*
X54760000Y-41223809D01*
X54736190Y-41152380D01*
X54736190Y-41104761D01*
X54760000Y-41033333D01*
X54783809Y-41009523D01*
X55236190Y-40557142D02*
X55236190Y-40795238D01*
X54736190Y-40795238D01*
X60388571Y-41533333D02*
X60412380Y-41557142D01*
X60436190Y-41628571D01*
X60436190Y-41676190D01*
X60412380Y-41747619D01*
X60364761Y-41795238D01*
X60317142Y-41819047D01*
X60221904Y-41842857D01*
X60150476Y-41842857D01*
X60055238Y-41819047D01*
X60007619Y-41795238D01*
X59960000Y-41747619D01*
X59936190Y-41676190D01*
X59936190Y-41628571D01*
X59960000Y-41557142D01*
X59983809Y-41533333D01*
X60412380Y-41342857D02*
X60436190Y-41271428D01*
X60436190Y-41152380D01*
X60412380Y-41104761D01*
X60388571Y-41080952D01*
X60340952Y-41057142D01*
X60293333Y-41057142D01*
X60245714Y-41080952D01*
X60221904Y-41104761D01*
X60198095Y-41152380D01*
X60174285Y-41247619D01*
X60150476Y-41295238D01*
X60126666Y-41319047D01*
X60079047Y-41342857D01*
X60031428Y-41342857D01*
X59983809Y-41319047D01*
X59960000Y-41295238D01*
X59936190Y-41247619D01*
X59936190Y-41128571D01*
X59960000Y-41057142D01*
X60174285Y-40676190D02*
X60198095Y-40604761D01*
X60221904Y-40580952D01*
X60269523Y-40557142D01*
X60340952Y-40557142D01*
X60388571Y-40580952D01*
X60412380Y-40604761D01*
X60436190Y-40652380D01*
X60436190Y-40842857D01*
X59936190Y-40842857D01*
X59936190Y-40676190D01*
X59960000Y-40628571D01*
X59983809Y-40604761D01*
X60031428Y-40580952D01*
X60079047Y-40580952D01*
X60126666Y-40604761D01*
X60150476Y-40628571D01*
X60174285Y-40676190D01*
X60174285Y-40842857D01*
X62952380Y-41830952D02*
X62976190Y-41759523D01*
X62976190Y-41640476D01*
X62952380Y-41592857D01*
X62928571Y-41569047D01*
X62880952Y-41545238D01*
X62833333Y-41545238D01*
X62785714Y-41569047D01*
X62761904Y-41592857D01*
X62738095Y-41640476D01*
X62714285Y-41735714D01*
X62690476Y-41783333D01*
X62666666Y-41807142D01*
X62619047Y-41830952D01*
X62571428Y-41830952D01*
X62523809Y-41807142D01*
X62500000Y-41783333D01*
X62476190Y-41735714D01*
X62476190Y-41616666D01*
X62500000Y-41545238D01*
X62976190Y-41330952D02*
X62476190Y-41330952D01*
X62476190Y-41211904D01*
X62500000Y-41140476D01*
X62547619Y-41092857D01*
X62595238Y-41069047D01*
X62690476Y-41045238D01*
X62761904Y-41045238D01*
X62857142Y-41069047D01*
X62904761Y-41092857D01*
X62952380Y-41140476D01*
X62976190Y-41211904D01*
X62976190Y-41330952D01*
X62476190Y-40735714D02*
X62476190Y-40688095D01*
X62500000Y-40640476D01*
X62523809Y-40616666D01*
X62571428Y-40592857D01*
X62666666Y-40569047D01*
X62785714Y-40569047D01*
X62880952Y-40592857D01*
X62928571Y-40616666D01*
X62952380Y-40640476D01*
X62976190Y-40688095D01*
X62976190Y-40735714D01*
X62952380Y-40783333D01*
X62928571Y-40807142D01*
X62880952Y-40830952D01*
X62785714Y-40854761D01*
X62666666Y-40854761D01*
X62571428Y-40830952D01*
X62523809Y-40807142D01*
X62500000Y-40783333D01*
X62476190Y-40735714D01*
%TO.C,U4*%
X108809047Y-67340000D02*
X108761428Y-67316190D01*
X108690000Y-67316190D01*
X108618571Y-67340000D01*
X108570952Y-67387619D01*
X108547142Y-67435238D01*
X108523333Y-67530476D01*
X108523333Y-67601904D01*
X108547142Y-67697142D01*
X108570952Y-67744761D01*
X108618571Y-67792380D01*
X108690000Y-67816190D01*
X108737619Y-67816190D01*
X108809047Y-67792380D01*
X108832857Y-67768571D01*
X108832857Y-67601904D01*
X108737619Y-67601904D01*
X109047142Y-67816190D02*
X109047142Y-67316190D01*
X109332857Y-67816190D01*
X109332857Y-67316190D01*
X109570952Y-67816190D02*
X109570952Y-67316190D01*
X109690000Y-67316190D01*
X109761428Y-67340000D01*
X109809047Y-67387619D01*
X109832857Y-67435238D01*
X109856666Y-67530476D01*
X109856666Y-67601904D01*
X109832857Y-67697142D01*
X109809047Y-67744761D01*
X109761428Y-67792380D01*
X109690000Y-67816190D01*
X109570952Y-67816190D01*
X108523333Y-69976190D02*
X108690000Y-70476190D01*
X108856666Y-69976190D01*
X109309047Y-70428571D02*
X109285238Y-70452380D01*
X109213809Y-70476190D01*
X109166190Y-70476190D01*
X109094761Y-70452380D01*
X109047142Y-70404761D01*
X109023333Y-70357142D01*
X108999523Y-70261904D01*
X108999523Y-70190476D01*
X109023333Y-70095238D01*
X109047142Y-70047619D01*
X109094761Y-70000000D01*
X109166190Y-69976190D01*
X109213809Y-69976190D01*
X109285238Y-70000000D01*
X109309047Y-70023809D01*
X109809047Y-70428571D02*
X109785238Y-70452380D01*
X109713809Y-70476190D01*
X109666190Y-70476190D01*
X109594761Y-70452380D01*
X109547142Y-70404761D01*
X109523333Y-70357142D01*
X109499523Y-70261904D01*
X109499523Y-70190476D01*
X109523333Y-70095238D01*
X109547142Y-70047619D01*
X109594761Y-70000000D01*
X109666190Y-69976190D01*
X109713809Y-69976190D01*
X109785238Y-70000000D01*
X109809047Y-70023809D01*
X108856666Y-65276190D02*
X108690000Y-65038095D01*
X108570952Y-65276190D02*
X108570952Y-64776190D01*
X108761428Y-64776190D01*
X108809047Y-64800000D01*
X108832857Y-64823809D01*
X108856666Y-64871428D01*
X108856666Y-64942857D01*
X108832857Y-64990476D01*
X108809047Y-65014285D01*
X108761428Y-65038095D01*
X108570952Y-65038095D01*
X109023333Y-64776190D02*
X109356666Y-65276190D01*
X109356666Y-64776190D02*
X109023333Y-65276190D01*
X109547142Y-65276190D02*
X109547142Y-64776190D01*
X109666190Y-64776190D01*
X109737619Y-64800000D01*
X109785238Y-64847619D01*
X109809047Y-64895238D01*
X109832857Y-64990476D01*
X109832857Y-65061904D01*
X109809047Y-65157142D01*
X109785238Y-65204761D01*
X109737619Y-65252380D01*
X109666190Y-65276190D01*
X109547142Y-65276190D01*
X108570952Y-60196190D02*
X108570952Y-59696190D01*
X108761428Y-59696190D01*
X108809047Y-59720000D01*
X108832857Y-59743809D01*
X108856666Y-59791428D01*
X108856666Y-59862857D01*
X108832857Y-59910476D01*
X108809047Y-59934285D01*
X108761428Y-59958095D01*
X108570952Y-59958095D01*
X109070952Y-60196190D02*
X109070952Y-59696190D01*
X109261428Y-59696190D01*
X109309047Y-59720000D01*
X109332857Y-59743809D01*
X109356666Y-59791428D01*
X109356666Y-59862857D01*
X109332857Y-59910476D01*
X109309047Y-59934285D01*
X109261428Y-59958095D01*
X109070952Y-59958095D01*
X109547142Y-60172380D02*
X109618571Y-60196190D01*
X109737619Y-60196190D01*
X109785238Y-60172380D01*
X109809047Y-60148571D01*
X109832857Y-60100952D01*
X109832857Y-60053333D01*
X109809047Y-60005714D01*
X109785238Y-59981904D01*
X109737619Y-59958095D01*
X109642380Y-59934285D01*
X109594761Y-59910476D01*
X109570952Y-59886666D01*
X109547142Y-59839047D01*
X109547142Y-59791428D01*
X109570952Y-59743809D01*
X109594761Y-59720000D01*
X109642380Y-59696190D01*
X109761428Y-59696190D01*
X109832857Y-59720000D01*
X108559047Y-62236190D02*
X108844761Y-62236190D01*
X108701904Y-62736190D02*
X108701904Y-62236190D01*
X108963809Y-62236190D02*
X109297142Y-62736190D01*
X109297142Y-62236190D02*
X108963809Y-62736190D01*
X109487619Y-62736190D02*
X109487619Y-62236190D01*
X109606666Y-62236190D01*
X109678095Y-62260000D01*
X109725714Y-62307619D01*
X109749523Y-62355238D01*
X109773333Y-62450476D01*
X109773333Y-62521904D01*
X109749523Y-62617142D01*
X109725714Y-62664761D01*
X109678095Y-62712380D01*
X109606666Y-62736190D01*
X109487619Y-62736190D01*
%TO.C,U5*%
X70454761Y-41152380D02*
X70526190Y-41176190D01*
X70645238Y-41176190D01*
X70692857Y-41152380D01*
X70716666Y-41128571D01*
X70740476Y-41080952D01*
X70740476Y-41033333D01*
X70716666Y-40985714D01*
X70692857Y-40961904D01*
X70645238Y-40938095D01*
X70550000Y-40914285D01*
X70502380Y-40890476D01*
X70478571Y-40866666D01*
X70454761Y-40819047D01*
X70454761Y-40771428D01*
X70478571Y-40723809D01*
X70502380Y-40700000D01*
X70550000Y-40676190D01*
X70669047Y-40676190D01*
X70740476Y-40700000D01*
X71240476Y-41128571D02*
X71216666Y-41152380D01*
X71145238Y-41176190D01*
X71097619Y-41176190D01*
X71026190Y-41152380D01*
X70978571Y-41104761D01*
X70954761Y-41057142D01*
X70930952Y-40961904D01*
X70930952Y-40890476D01*
X70954761Y-40795238D01*
X70978571Y-40747619D01*
X71026190Y-40700000D01*
X71097619Y-40676190D01*
X71145238Y-40676190D01*
X71216666Y-40700000D01*
X71240476Y-40723809D01*
X71692857Y-41176190D02*
X71454761Y-41176190D01*
X71454761Y-40676190D01*
X70442857Y-43692380D02*
X70514285Y-43716190D01*
X70633333Y-43716190D01*
X70680952Y-43692380D01*
X70704761Y-43668571D01*
X70728571Y-43620952D01*
X70728571Y-43573333D01*
X70704761Y-43525714D01*
X70680952Y-43501904D01*
X70633333Y-43478095D01*
X70538095Y-43454285D01*
X70490476Y-43430476D01*
X70466666Y-43406666D01*
X70442857Y-43359047D01*
X70442857Y-43311428D01*
X70466666Y-43263809D01*
X70490476Y-43240000D01*
X70538095Y-43216190D01*
X70657142Y-43216190D01*
X70728571Y-43240000D01*
X70942857Y-43716190D02*
X70942857Y-43216190D01*
X71061904Y-43216190D01*
X71133333Y-43240000D01*
X71180952Y-43287619D01*
X71204761Y-43335238D01*
X71228571Y-43430476D01*
X71228571Y-43501904D01*
X71204761Y-43597142D01*
X71180952Y-43644761D01*
X71133333Y-43692380D01*
X71061904Y-43716190D01*
X70942857Y-43716190D01*
X71419047Y-43573333D02*
X71657142Y-43573333D01*
X71371428Y-43716190D02*
X71538095Y-43216190D01*
X71704761Y-43716190D01*
X70383333Y-45756190D02*
X70550000Y-46256190D01*
X70716666Y-45756190D01*
X70883333Y-46256190D02*
X70883333Y-45756190D01*
X71002380Y-45756190D01*
X71073809Y-45780000D01*
X71121428Y-45827619D01*
X71145238Y-45875238D01*
X71169047Y-45970476D01*
X71169047Y-46041904D01*
X71145238Y-46137142D01*
X71121428Y-46184761D01*
X71073809Y-46232380D01*
X71002380Y-46256190D01*
X70883333Y-46256190D01*
X71383333Y-46256190D02*
X71383333Y-45756190D01*
X71502380Y-45756190D01*
X71573809Y-45780000D01*
X71621428Y-45827619D01*
X71645238Y-45875238D01*
X71669047Y-45970476D01*
X71669047Y-46041904D01*
X71645238Y-46137142D01*
X71621428Y-46184761D01*
X71573809Y-46232380D01*
X71502380Y-46256190D01*
X71383333Y-46256190D01*
X70669047Y-48320000D02*
X70621428Y-48296190D01*
X70550000Y-48296190D01*
X70478571Y-48320000D01*
X70430952Y-48367619D01*
X70407142Y-48415238D01*
X70383333Y-48510476D01*
X70383333Y-48581904D01*
X70407142Y-48677142D01*
X70430952Y-48724761D01*
X70478571Y-48772380D01*
X70550000Y-48796190D01*
X70597619Y-48796190D01*
X70669047Y-48772380D01*
X70692857Y-48748571D01*
X70692857Y-48581904D01*
X70597619Y-48581904D01*
X70907142Y-48796190D02*
X70907142Y-48296190D01*
X71192857Y-48796190D01*
X71192857Y-48296190D01*
X71430952Y-48796190D02*
X71430952Y-48296190D01*
X71550000Y-48296190D01*
X71621428Y-48320000D01*
X71669047Y-48367619D01*
X71692857Y-48415238D01*
X71716666Y-48510476D01*
X71716666Y-48581904D01*
X71692857Y-48677142D01*
X71669047Y-48724761D01*
X71621428Y-48772380D01*
X71550000Y-48796190D01*
X71430952Y-48796190D01*
X74243333Y-47183333D02*
X74243333Y-46945238D01*
X74386190Y-47230952D02*
X73886190Y-47064285D01*
X74386190Y-46897619D01*
X73886190Y-46730952D02*
X74290952Y-46730952D01*
X74338571Y-46707142D01*
X74362380Y-46683333D01*
X74386190Y-46635714D01*
X74386190Y-46540476D01*
X74362380Y-46492857D01*
X74338571Y-46469047D01*
X74290952Y-46445238D01*
X73886190Y-46445238D01*
X73886190Y-46254761D02*
X74386190Y-45921428D01*
X73886190Y-45921428D02*
X74386190Y-46254761D01*
X74386190Y-45730952D02*
X73886190Y-45730952D01*
X73886190Y-45611904D01*
X73910000Y-45540476D01*
X73957619Y-45492857D01*
X74005238Y-45469047D01*
X74100476Y-45445238D01*
X74171904Y-45445238D01*
X74267142Y-45469047D01*
X74314761Y-45492857D01*
X74362380Y-45540476D01*
X74386190Y-45611904D01*
X74386190Y-45730952D01*
X74243333Y-45254761D02*
X74243333Y-45016666D01*
X74386190Y-45302380D02*
X73886190Y-45135714D01*
X74386190Y-44969047D01*
X76664285Y-46992857D02*
X76664285Y-47159523D01*
X76926190Y-47159523D02*
X76426190Y-47159523D01*
X76426190Y-46921428D01*
X76902380Y-46754761D02*
X76926190Y-46683333D01*
X76926190Y-46564285D01*
X76902380Y-46516666D01*
X76878571Y-46492857D01*
X76830952Y-46469047D01*
X76783333Y-46469047D01*
X76735714Y-46492857D01*
X76711904Y-46516666D01*
X76688095Y-46564285D01*
X76664285Y-46659523D01*
X76640476Y-46707142D01*
X76616666Y-46730952D01*
X76569047Y-46754761D01*
X76521428Y-46754761D01*
X76473809Y-46730952D01*
X76450000Y-46707142D01*
X76426190Y-46659523D01*
X76426190Y-46540476D01*
X76450000Y-46469047D01*
X76688095Y-46159523D02*
X76926190Y-46159523D01*
X76426190Y-46326190D02*
X76688095Y-46159523D01*
X76426190Y-45992857D01*
X76926190Y-45826190D02*
X76426190Y-45826190D01*
X76926190Y-45540476D01*
X76426190Y-45540476D01*
X76878571Y-45016666D02*
X76902380Y-45040476D01*
X76926190Y-45111904D01*
X76926190Y-45159523D01*
X76902380Y-45230952D01*
X76854761Y-45278571D01*
X76807142Y-45302380D01*
X76711904Y-45326190D01*
X76640476Y-45326190D01*
X76545238Y-45302380D01*
X76497619Y-45278571D01*
X76450000Y-45230952D01*
X76426190Y-45159523D01*
X76426190Y-45111904D01*
X76450000Y-45040476D01*
X76473809Y-45016666D01*
X79323333Y-47171428D02*
X79323333Y-46933333D01*
X79466190Y-47219047D02*
X78966190Y-47052380D01*
X79466190Y-46885714D01*
X78966190Y-46719047D02*
X79370952Y-46719047D01*
X79418571Y-46695238D01*
X79442380Y-46671428D01*
X79466190Y-46623809D01*
X79466190Y-46528571D01*
X79442380Y-46480952D01*
X79418571Y-46457142D01*
X79370952Y-46433333D01*
X78966190Y-46433333D01*
X78966190Y-46242857D02*
X79466190Y-45909523D01*
X78966190Y-45909523D02*
X79466190Y-46242857D01*
X79418571Y-45433333D02*
X79442380Y-45457142D01*
X79466190Y-45528571D01*
X79466190Y-45576190D01*
X79442380Y-45647619D01*
X79394761Y-45695238D01*
X79347142Y-45719047D01*
X79251904Y-45742857D01*
X79180476Y-45742857D01*
X79085238Y-45719047D01*
X79037619Y-45695238D01*
X78990000Y-45647619D01*
X78966190Y-45576190D01*
X78966190Y-45528571D01*
X78990000Y-45457142D01*
X79013809Y-45433333D01*
X79466190Y-44980952D02*
X79466190Y-45219047D01*
X78966190Y-45219047D01*
X81927619Y-48836190D02*
X81927619Y-48336190D01*
X82165714Y-48836190D02*
X82165714Y-48336190D01*
X82451428Y-48836190D01*
X82451428Y-48336190D01*
X82618095Y-48336190D02*
X82903809Y-48336190D01*
X82760952Y-48836190D02*
X82760952Y-48336190D01*
X81784761Y-45962857D02*
X81784761Y-46296190D01*
X81784761Y-46010476D02*
X81808571Y-45986666D01*
X81856190Y-45962857D01*
X81927619Y-45962857D01*
X81975238Y-45986666D01*
X81999047Y-46034285D01*
X81999047Y-46296190D01*
X82522857Y-46248571D02*
X82499047Y-46272380D01*
X82427619Y-46296190D01*
X82380000Y-46296190D01*
X82308571Y-46272380D01*
X82260952Y-46224761D01*
X82237142Y-46177142D01*
X82213333Y-46081904D01*
X82213333Y-46010476D01*
X82237142Y-45915238D01*
X82260952Y-45867619D01*
X82308571Y-45820000D01*
X82380000Y-45796190D01*
X82427619Y-45796190D01*
X82499047Y-45820000D01*
X82522857Y-45843809D01*
X82713333Y-46272380D02*
X82784761Y-46296190D01*
X82903809Y-46296190D01*
X82951428Y-46272380D01*
X82975238Y-46248571D01*
X82999047Y-46200952D01*
X82999047Y-46153333D01*
X82975238Y-46105714D01*
X82951428Y-46081904D01*
X82903809Y-46058095D01*
X82808571Y-46034285D01*
X82760952Y-46010476D01*
X82737142Y-45986666D01*
X82713333Y-45939047D01*
X82713333Y-45891428D01*
X82737142Y-45843809D01*
X82760952Y-45820000D01*
X82808571Y-45796190D01*
X82927619Y-45796190D01*
X82999047Y-45820000D01*
X81749047Y-42851333D02*
X81987142Y-42851333D01*
X81701428Y-42994190D02*
X81868095Y-42494190D01*
X82034761Y-42994190D01*
X82201428Y-42994190D02*
X82201428Y-42494190D01*
X82320476Y-42494190D01*
X82391904Y-42518000D01*
X82439523Y-42565619D01*
X82463333Y-42613238D01*
X82487142Y-42708476D01*
X82487142Y-42779904D01*
X82463333Y-42875142D01*
X82439523Y-42922761D01*
X82391904Y-42970380D01*
X82320476Y-42994190D01*
X82201428Y-42994190D01*
X82796666Y-42494190D02*
X82891904Y-42494190D01*
X82939523Y-42518000D01*
X82987142Y-42565619D01*
X83010952Y-42660857D01*
X83010952Y-42827523D01*
X82987142Y-42922761D01*
X82939523Y-42970380D01*
X82891904Y-42994190D01*
X82796666Y-42994190D01*
X82749047Y-42970380D01*
X82701428Y-42922761D01*
X82677619Y-42827523D01*
X82677619Y-42660857D01*
X82701428Y-42565619D01*
X82749047Y-42518000D01*
X82796666Y-42494190D01*
X81725238Y-44494380D02*
X81796666Y-44518190D01*
X81915714Y-44518190D01*
X81963333Y-44494380D01*
X81987142Y-44470571D01*
X82010952Y-44422952D01*
X82010952Y-44375333D01*
X81987142Y-44327714D01*
X81963333Y-44303904D01*
X81915714Y-44280095D01*
X81820476Y-44256285D01*
X81772857Y-44232476D01*
X81749047Y-44208666D01*
X81725238Y-44161047D01*
X81725238Y-44113428D01*
X81749047Y-44065809D01*
X81772857Y-44042000D01*
X81820476Y-44018190D01*
X81939523Y-44018190D01*
X82010952Y-44042000D01*
X82225238Y-44518190D02*
X82225238Y-44018190D01*
X82344285Y-44018190D01*
X82415714Y-44042000D01*
X82463333Y-44089619D01*
X82487142Y-44137238D01*
X82510952Y-44232476D01*
X82510952Y-44303904D01*
X82487142Y-44399142D01*
X82463333Y-44446761D01*
X82415714Y-44494380D01*
X82344285Y-44518190D01*
X82225238Y-44518190D01*
X82820476Y-44018190D02*
X82915714Y-44018190D01*
X82963333Y-44042000D01*
X83010952Y-44089619D01*
X83034761Y-44184857D01*
X83034761Y-44351523D01*
X83010952Y-44446761D01*
X82963333Y-44494380D01*
X82915714Y-44518190D01*
X82820476Y-44518190D01*
X82772857Y-44494380D01*
X82725238Y-44446761D01*
X82701428Y-44351523D01*
X82701428Y-44184857D01*
X82725238Y-44089619D01*
X82772857Y-44042000D01*
X82820476Y-44018190D01*
X81052380Y-40726190D02*
X81219047Y-41226190D01*
X81385714Y-40726190D01*
X81552380Y-41226190D02*
X81552380Y-40726190D01*
X81671428Y-40726190D01*
X81742857Y-40750000D01*
X81790476Y-40797619D01*
X81814285Y-40845238D01*
X81838095Y-40940476D01*
X81838095Y-41011904D01*
X81814285Y-41107142D01*
X81790476Y-41154761D01*
X81742857Y-41202380D01*
X81671428Y-41226190D01*
X81552380Y-41226190D01*
X82052380Y-41226190D02*
X82052380Y-40726190D01*
X82171428Y-40726190D01*
X82242857Y-40750000D01*
X82290476Y-40797619D01*
X82314285Y-40845238D01*
X82338095Y-40940476D01*
X82338095Y-41011904D01*
X82314285Y-41107142D01*
X82290476Y-41154761D01*
X82242857Y-41202380D01*
X82171428Y-41226190D01*
X82052380Y-41226190D01*
X82552380Y-41226190D02*
X82552380Y-40726190D01*
X82885714Y-40726190D02*
X82980952Y-40726190D01*
X83028571Y-40750000D01*
X83076190Y-40797619D01*
X83100000Y-40892857D01*
X83100000Y-41059523D01*
X83076190Y-41154761D01*
X83028571Y-41202380D01*
X82980952Y-41226190D01*
X82885714Y-41226190D01*
X82838095Y-41202380D01*
X82790476Y-41154761D01*
X82766666Y-41059523D01*
X82766666Y-40892857D01*
X82790476Y-40797619D01*
X82838095Y-40750000D01*
X82885714Y-40726190D01*
%TO.C,U6*%
D10*
X54952380Y-75000000D02*
X55190476Y-75000000D01*
X55095238Y-75238095D02*
X55190476Y-75000000D01*
X55095238Y-74761904D01*
X55380952Y-75142857D02*
X55190476Y-75000000D01*
X55380952Y-74857142D01*
%TD*%
M02*
