%TF.GenerationSoftware,KiCad,Pcbnew,5.1.10-88a1d61d58~88~ubuntu18.04.1*%
%TF.CreationDate,2021-05-26T16:46:43+10:00*%
%TF.ProjectId,prototype_rocket_fc,70726f74-6f74-4797-9065-5f726f636b65,rev?*%
%TF.SameCoordinates,Original*%
%TF.FileFunction,Copper,L2,Bot*%
%TF.FilePolarity,Positive*%
%FSLAX46Y46*%
G04 Gerber Fmt 4.6, Leading zero omitted, Abs format (unit mm)*
G04 Created by KiCad (PCBNEW 5.1.10-88a1d61d58~88~ubuntu18.04.1) date 2021-05-26 16:46:43*
%MOMM*%
%LPD*%
G01*
G04 APERTURE LIST*
%TA.AperFunction,ComponentPad*%
%ADD10C,1.600000*%
%TD*%
%TA.AperFunction,ComponentPad*%
%ADD11O,1.700000X1.700000*%
%TD*%
%TA.AperFunction,ComponentPad*%
%ADD12C,4.800000*%
%TD*%
%TA.AperFunction,ComponentPad*%
%ADD13C,0.800000*%
%TD*%
%TA.AperFunction,ComponentPad*%
%ADD14C,6.400000*%
%TD*%
%TA.AperFunction,ComponentPad*%
%ADD15C,5.080000*%
%TD*%
%TA.AperFunction,ComponentPad*%
%ADD16C,6.000000*%
%TD*%
%TA.AperFunction,ViaPad*%
%ADD17C,0.800000*%
%TD*%
%TA.AperFunction,Conductor*%
%ADD18C,0.250000*%
%TD*%
%TA.AperFunction,Conductor*%
%ADD19C,0.254000*%
%TD*%
%TA.AperFunction,Conductor*%
%ADD20C,0.100000*%
%TD*%
G04 APERTURE END LIST*
D10*
%TO.P,U2,17*%
%TO.N,Net-(U2-Pad17)*%
X72760000Y-60500000D03*
%TO.P,U2,18*%
%TO.N,Net-(U2-Pad18)*%
X72760000Y-57960000D03*
%TO.P,U2,19*%
%TO.N,Net-(U2-Pad19)*%
X72760000Y-55420000D03*
%TO.P,U2,20*%
%TO.N,/SCK*%
X72760000Y-52880000D03*
%TO.P,U2,16*%
%TO.N,Net-(U2-Pad16)*%
X72760000Y-63040000D03*
%TO.P,U2,15*%
%TO.N,Net-(U2-Pad15)*%
X72760000Y-65580000D03*
%TO.P,U2,14*%
%TO.N,/MISO*%
X72760000Y-68120000D03*
%TO.P,U2,21*%
%TO.N,Net-(U2-Pad21)*%
X70220000Y-52880000D03*
%TO.P,U2,22*%
%TO.N,Net-(U2-Pad22)*%
X67680000Y-52880000D03*
%TO.P,U2,23*%
%TO.N,Net-(U2-Pad23)*%
X65140000Y-52880000D03*
%TO.P,U2,24*%
%TO.N,Net-(U2-Pad24)*%
X62600000Y-52880000D03*
%TO.P,U2,25*%
%TO.N,/SDA0*%
X60060000Y-52880000D03*
%TO.P,U2,26*%
%TO.N,/SCL0*%
X57520000Y-52880000D03*
%TO.P,U2,27*%
%TO.N,Net-(U2-Pad27)*%
X54980000Y-52880000D03*
%TO.P,U2,28*%
%TO.N,Net-(U2-Pad28)*%
X52440000Y-52880000D03*
%TO.P,U2,29*%
%TO.N,Net-(U2-Pad29)*%
X49900000Y-52880000D03*
%TO.P,U2,30*%
%TO.N,Net-(U2-Pad30)*%
X47360000Y-52880000D03*
%TO.P,U2,31*%
%TO.N,Net-(U2-Pad31)*%
X44820000Y-52880000D03*
%TO.P,U2,32*%
%TO.N,GND*%
X42280000Y-52880000D03*
%TO.P,U2,33*%
%TO.N,+5V*%
X39740000Y-52880000D03*
%TO.P,U2,34*%
%TO.N,Net-(U2-Pad34)*%
X42280000Y-55420000D03*
%TO.P,U2,13*%
%TO.N,/MOSI*%
X70220000Y-68120000D03*
%TO.P,U2,12*%
%TO.N,/CS*%
X67680000Y-68120000D03*
%TO.P,U2,11*%
%TO.N,Net-(U2-Pad11)*%
X65140000Y-68120000D03*
%TO.P,U2,10*%
%TO.N,/TX2*%
X62600000Y-68120000D03*
%TO.P,U2,9*%
%TO.N,/RX2*%
X60060000Y-68120000D03*
%TO.P,U2,8*%
%TO.N,Net-(U2-Pad8)*%
X57520000Y-68120000D03*
%TO.P,U2,7*%
%TO.N,Net-(U2-Pad7)*%
X54980000Y-68120000D03*
%TO.P,U2,6*%
%TO.N,Net-(U2-Pad6)*%
X52440000Y-68120000D03*
%TO.P,U2,5*%
%TO.N,Net-(U2-Pad5)*%
X49900000Y-68120000D03*
%TO.P,U2,4*%
%TO.N,/CD*%
X47360000Y-68120000D03*
%TO.P,U2,3*%
%TO.N,/TX1*%
X44820000Y-68120000D03*
%TO.P,U2,2*%
%TO.N,/RX1*%
X42280000Y-68120000D03*
%TO.P,U2,1*%
%TO.N,Net-(U2-Pad1)*%
X39740000Y-68120000D03*
%TD*%
D11*
%TO.P,U9,1*%
%TO.N,GND*%
X100170000Y-44040000D03*
%TO.P,U9,2*%
%TO.N,Net-(U9-Pad2)*%
X100170000Y-41500000D03*
%TO.P,U9,11*%
%TO.N,Net-(U9-Pad11)*%
X112870000Y-44040000D03*
%TO.P,U9,13*%
%TO.N,Net-(U9-Pad13)*%
X115410000Y-44040000D03*
%TO.P,U9,3*%
%TO.N,Net-(U9-Pad3)*%
X102710000Y-44040000D03*
%TO.P,U9,6*%
%TO.N,Net-(U9-Pad6)*%
X105250000Y-41500000D03*
%TO.P,U9,10*%
%TO.N,Net-(U9-Pad10)*%
X110330000Y-41500000D03*
%TO.P,U9,14*%
%TO.N,Net-(U9-Pad14)*%
X115410000Y-41500000D03*
%TO.P,U9,15*%
%TO.N,Net-(U9-Pad15)*%
X117950000Y-44040000D03*
%TO.P,U9,7*%
%TO.N,/TX1*%
X107790000Y-44040000D03*
%TO.P,U9,9*%
%TO.N,/RX1*%
X110330000Y-44040000D03*
%TO.P,U9,16*%
%TO.N,Net-(U9-Pad16)*%
X117950000Y-41500000D03*
%TO.P,U9,8*%
%TO.N,Net-(U9-Pad8)*%
X107790000Y-41500000D03*
%TO.P,U9,12*%
%TO.N,Net-(U9-Pad12)*%
X112870000Y-41500000D03*
%TO.P,U9,5*%
%TO.N,Net-(U9-Pad5)*%
X105250000Y-44040000D03*
%TO.P,U9,4*%
%TO.N,+5V*%
X102710000Y-41500000D03*
%TD*%
D12*
%TO.P,U8,1*%
%TO.N,GND*%
X90590000Y-66750000D03*
X90590000Y-40750000D03*
X127780000Y-53750000D03*
%TD*%
D13*
%TO.P,H2,1*%
%TO.N,GND*%
X131697056Y-88302944D03*
X130000000Y-87600000D03*
X128302944Y-88302944D03*
X127600000Y-90000000D03*
X128302944Y-91697056D03*
X130000000Y-92400000D03*
X131697056Y-91697056D03*
X132400000Y-90000000D03*
D14*
X130000000Y-90000000D03*
%TD*%
D13*
%TO.P,H1,1*%
%TO.N,GND*%
X41697056Y-38302944D03*
X40000000Y-37600000D03*
X38302944Y-38302944D03*
X37600000Y-40000000D03*
X38302944Y-41697056D03*
X40000000Y-42400000D03*
X41697056Y-41697056D03*
X42400000Y-40000000D03*
D14*
X40000000Y-40000000D03*
%TD*%
D10*
%TO.P,U1,2*%
%TO.N,Net-(U1-Pad2)*%
X98435000Y-53460000D03*
%TO.P,U1,1*%
%TO.N,+5V*%
X100975000Y-53460000D03*
%TO.P,U1,4*%
%TO.N,/SCK*%
X93355000Y-53460000D03*
%TO.P,U1,3*%
%TO.N,GND*%
X95895000Y-53460000D03*
%TO.P,U1,6*%
%TO.N,/MOSI*%
X88275000Y-53460000D03*
%TO.P,U1,5*%
%TO.N,/MISO*%
X90815000Y-53460000D03*
%TO.P,U1,8*%
%TO.N,/CD*%
X83195000Y-53460000D03*
%TO.P,U1,7*%
%TO.N,/CS*%
X85735000Y-53460000D03*
D15*
%TO.P,U1,9*%
%TO.N,N/C*%
X101475000Y-84270000D03*
%TO.P,U1,10*%
X82525000Y-84270000D03*
%TO.P,U1,11*%
X101575000Y-58930000D03*
%TO.P,U1,12*%
X82425000Y-58930000D03*
%TD*%
D10*
%TO.P,U3,1*%
%TO.N,+3V3*%
X50000000Y-39390000D03*
%TO.P,U3,2*%
%TO.N,GND*%
X52540000Y-39390000D03*
%TO.P,U3,3*%
%TO.N,/SCL0*%
X55080000Y-39390000D03*
%TO.P,U3,4*%
%TO.N,/SDA0*%
X57620000Y-39390000D03*
%TO.P,U3,5*%
%TO.N,Net-(U3-Pad5)*%
X60160000Y-39390000D03*
%TO.P,U3,6*%
%TO.N,Net-(U3-Pad6)*%
X62700000Y-39390000D03*
%TD*%
%TO.P,U4,1*%
%TO.N,Net-(U4-Pad1)*%
X107480000Y-59980000D03*
%TO.P,U4,4*%
%TO.N,GND*%
X107480000Y-67600000D03*
%TO.P,U4,2*%
%TO.N,/RX2*%
X107480000Y-62520000D03*
%TO.P,U4,3*%
%TO.N,/TX2*%
X107480000Y-65060000D03*
%TO.P,U4,5*%
%TO.N,+5V*%
X107480000Y-70140000D03*
D15*
%TO.P,U4,6*%
%TO.N,N/C*%
X128940000Y-74360000D03*
%TD*%
D10*
%TO.P,U5,1*%
%TO.N,/SCL0*%
X68730000Y-40970000D03*
%TO.P,U5,2*%
%TO.N,/SDA0*%
X68730000Y-43510000D03*
%TO.P,U5,3*%
%TO.N,+3V3*%
X68730000Y-46050000D03*
%TO.P,U5,4*%
%TO.N,GND*%
X68730000Y-48590000D03*
%TO.P,U5,5*%
%TO.N,Net-(U5-Pad5)*%
X84670000Y-40970000D03*
%TO.P,U5,6*%
%TO.N,Net-(U5-Pad6)*%
X84670000Y-43510000D03*
%TO.P,U5,7*%
%TO.N,Net-(U5-Pad7)*%
X84670000Y-46050000D03*
%TO.P,U5,8*%
%TO.N,Net-(U5-Pad8)*%
X84670000Y-48590000D03*
%TO.P,U5,9*%
%TO.N,Net-(U5-Pad9)*%
X74160000Y-48640000D03*
%TO.P,U5,10*%
%TO.N,Net-(U5-Pad10)*%
X76700000Y-48640000D03*
%TO.P,U5,11*%
%TO.N,Net-(U5-Pad11)*%
X79240000Y-48640000D03*
%TD*%
D16*
%TO.P,J1,2*%
%TO.N,GND*%
X41750000Y-84200000D03*
%TO.P,J1,1*%
%TO.N,VCC*%
%TA.AperFunction,ComponentPad*%
G36*
G01*
X40250000Y-74000000D02*
X43250000Y-74000000D01*
G75*
G02*
X44750000Y-75500000I0J-1500000D01*
G01*
X44750000Y-78500000D01*
G75*
G02*
X43250000Y-80000000I-1500000J0D01*
G01*
X40250000Y-80000000D01*
G75*
G02*
X38750000Y-78500000I0J1500000D01*
G01*
X38750000Y-75500000D01*
G75*
G02*
X40250000Y-74000000I1500000J0D01*
G01*
G37*
%TD.AperFunction*%
%TD*%
D17*
%TO.N,GND*%
X53500000Y-74750000D03*
X54437492Y-88162508D03*
X60262498Y-88212498D03*
X73512496Y-77187500D03*
X45100018Y-48250000D03*
X74900000Y-82500000D03*
%TD*%
D18*
%TO.N,/SDA0*%
X60060000Y-52180000D02*
X60060000Y-52880000D01*
X68730000Y-43510000D02*
X60060000Y-52180000D01*
%TO.N,/SCL0*%
X57520000Y-52180000D02*
X57520000Y-52880000D01*
X68730000Y-40970000D02*
X57520000Y-52180000D01*
%TO.N,/TX1*%
X73400000Y-54100000D02*
X58840000Y-54100000D01*
X58840000Y-54100000D02*
X44820000Y-68120000D01*
X75800000Y-51700000D02*
X73400000Y-54100000D01*
X107790000Y-44040000D02*
X100130000Y-51700000D01*
X100130000Y-51700000D02*
X75800000Y-51700000D01*
%TO.N,/RX1*%
X43660000Y-69500000D02*
X42280000Y-68120000D01*
X47900000Y-69500000D02*
X43660000Y-69500000D01*
X48650000Y-68750000D02*
X47900000Y-69500000D01*
X48650000Y-67350000D02*
X48650000Y-68750000D01*
X110330000Y-44040000D02*
X110330000Y-46070000D01*
X81100000Y-55700000D02*
X80100000Y-56700000D01*
X110330000Y-46070000D02*
X100700000Y-55700000D01*
X80100000Y-56700000D02*
X59300000Y-56700000D01*
X100700000Y-55700000D02*
X81100000Y-55700000D01*
X59300000Y-56700000D02*
X48650000Y-67350000D01*
%TO.N,/TX2*%
X66554999Y-64165001D02*
X62600000Y-68120000D01*
X88334999Y-64165001D02*
X66554999Y-64165001D01*
X88750000Y-63750000D02*
X88334999Y-64165001D01*
X107480000Y-65060000D02*
X106170000Y-63750000D01*
X106170000Y-63750000D02*
X88750000Y-63750000D01*
%TO.N,/RX2*%
X66265001Y-61914999D02*
X60060000Y-68120000D01*
X106874999Y-61914999D02*
X66265001Y-61914999D01*
X107480000Y-62520000D02*
X106874999Y-61914999D01*
%TD*%
D19*
%TO.N,GND*%
X130768083Y-35731173D02*
X131511891Y-35934656D01*
X132207905Y-36266638D01*
X132834130Y-36716626D01*
X133370777Y-37270403D01*
X133800871Y-37910451D01*
X134110829Y-38616553D01*
X134292065Y-39371457D01*
X134340000Y-40024207D01*
X134340001Y-89970597D01*
X134268827Y-90768083D01*
X134065344Y-91511890D01*
X133733363Y-92207904D01*
X133283374Y-92834130D01*
X132729597Y-93370777D01*
X132089549Y-93800871D01*
X131383447Y-94110829D01*
X130628543Y-94292065D01*
X129975793Y-94340000D01*
X40029392Y-94340000D01*
X39231917Y-94268827D01*
X38488110Y-94065344D01*
X37792096Y-93733363D01*
X37165870Y-93283374D01*
X36629223Y-92729597D01*
X36609927Y-92700881D01*
X127478724Y-92700881D01*
X127838912Y-93190548D01*
X128502882Y-93550849D01*
X129224385Y-93774694D01*
X129975695Y-93853480D01*
X130727938Y-93784178D01*
X131452208Y-93569452D01*
X132120670Y-93217555D01*
X132161088Y-93190548D01*
X132521276Y-92700881D01*
X130000000Y-90179605D01*
X127478724Y-92700881D01*
X36609927Y-92700881D01*
X36199129Y-92089549D01*
X35889171Y-91383447D01*
X35707935Y-90628543D01*
X35660000Y-89975793D01*
X35660000Y-89975695D01*
X126146520Y-89975695D01*
X126215822Y-90727938D01*
X126430548Y-91452208D01*
X126782445Y-92120670D01*
X126809452Y-92161088D01*
X127299119Y-92521276D01*
X129820395Y-90000000D01*
X130179605Y-90000000D01*
X132700881Y-92521276D01*
X133190548Y-92161088D01*
X133550849Y-91497118D01*
X133774694Y-90775615D01*
X133853480Y-90024305D01*
X133784178Y-89272062D01*
X133569452Y-88547792D01*
X133217555Y-87879330D01*
X133190548Y-87838912D01*
X132700881Y-87478724D01*
X130179605Y-90000000D01*
X129820395Y-90000000D01*
X127299119Y-87478724D01*
X126809452Y-87838912D01*
X126449151Y-88502882D01*
X126225306Y-89224385D01*
X126146520Y-89975695D01*
X35660000Y-89975695D01*
X35660000Y-86758686D01*
X39370919Y-86758686D01*
X39707106Y-87227868D01*
X40337068Y-87568237D01*
X41021327Y-87779166D01*
X41733589Y-87852550D01*
X42446482Y-87785569D01*
X43132609Y-87580796D01*
X43765603Y-87246102D01*
X43792894Y-87227868D01*
X44129081Y-86758686D01*
X41750000Y-84379605D01*
X39370919Y-86758686D01*
X35660000Y-86758686D01*
X35660000Y-84183589D01*
X38097450Y-84183589D01*
X38164431Y-84896482D01*
X38369204Y-85582609D01*
X38703898Y-86215603D01*
X38722132Y-86242894D01*
X39191314Y-86579081D01*
X41570395Y-84200000D01*
X41929605Y-84200000D01*
X44308686Y-86579081D01*
X44777868Y-86242894D01*
X45118237Y-85612932D01*
X45329166Y-84928673D01*
X45402550Y-84216411D01*
X45378204Y-83957290D01*
X79350000Y-83957290D01*
X79350000Y-84582710D01*
X79472014Y-85196113D01*
X79711352Y-85773926D01*
X80058817Y-86293944D01*
X80501056Y-86736183D01*
X81021074Y-87083648D01*
X81598887Y-87322986D01*
X82212290Y-87445000D01*
X82837710Y-87445000D01*
X83451113Y-87322986D01*
X84028926Y-87083648D01*
X84548944Y-86736183D01*
X84991183Y-86293944D01*
X85338648Y-85773926D01*
X85577986Y-85196113D01*
X85700000Y-84582710D01*
X85700000Y-83957290D01*
X98300000Y-83957290D01*
X98300000Y-84582710D01*
X98422014Y-85196113D01*
X98661352Y-85773926D01*
X99008817Y-86293944D01*
X99451056Y-86736183D01*
X99971074Y-87083648D01*
X100548887Y-87322986D01*
X101162290Y-87445000D01*
X101787710Y-87445000D01*
X102401113Y-87322986D01*
X102458733Y-87299119D01*
X127478724Y-87299119D01*
X130000000Y-89820395D01*
X132521276Y-87299119D01*
X132161088Y-86809452D01*
X131497118Y-86449151D01*
X130775615Y-86225306D01*
X130024305Y-86146520D01*
X129272062Y-86215822D01*
X128547792Y-86430548D01*
X127879330Y-86782445D01*
X127838912Y-86809452D01*
X127478724Y-87299119D01*
X102458733Y-87299119D01*
X102978926Y-87083648D01*
X103498944Y-86736183D01*
X103941183Y-86293944D01*
X104288648Y-85773926D01*
X104527986Y-85196113D01*
X104650000Y-84582710D01*
X104650000Y-83957290D01*
X104527986Y-83343887D01*
X104288648Y-82766074D01*
X103941183Y-82246056D01*
X103498944Y-81803817D01*
X102978926Y-81456352D01*
X102401113Y-81217014D01*
X101787710Y-81095000D01*
X101162290Y-81095000D01*
X100548887Y-81217014D01*
X99971074Y-81456352D01*
X99451056Y-81803817D01*
X99008817Y-82246056D01*
X98661352Y-82766074D01*
X98422014Y-83343887D01*
X98300000Y-83957290D01*
X85700000Y-83957290D01*
X85577986Y-83343887D01*
X85338648Y-82766074D01*
X84991183Y-82246056D01*
X84548944Y-81803817D01*
X84028926Y-81456352D01*
X83451113Y-81217014D01*
X82837710Y-81095000D01*
X82212290Y-81095000D01*
X81598887Y-81217014D01*
X81021074Y-81456352D01*
X80501056Y-81803817D01*
X80058817Y-82246056D01*
X79711352Y-82766074D01*
X79472014Y-83343887D01*
X79350000Y-83957290D01*
X45378204Y-83957290D01*
X45335569Y-83503518D01*
X45130796Y-82817391D01*
X44796102Y-82184397D01*
X44777868Y-82157106D01*
X44308686Y-81820919D01*
X41929605Y-84200000D01*
X41570395Y-84200000D01*
X39191314Y-81820919D01*
X38722132Y-82157106D01*
X38381763Y-82787068D01*
X38170834Y-83471327D01*
X38097450Y-84183589D01*
X35660000Y-84183589D01*
X35660000Y-75500000D01*
X38111928Y-75500000D01*
X38111928Y-78500000D01*
X38153010Y-78917117D01*
X38274679Y-79318205D01*
X38472258Y-79687849D01*
X38738155Y-80011845D01*
X39062151Y-80277742D01*
X39431795Y-80475321D01*
X39832883Y-80596990D01*
X40250000Y-80638072D01*
X40974305Y-80638072D01*
X40367391Y-80819204D01*
X39734397Y-81153898D01*
X39707106Y-81172132D01*
X39370919Y-81641314D01*
X41750000Y-84020395D01*
X44129081Y-81641314D01*
X43792894Y-81172132D01*
X43162932Y-80831763D01*
X42534594Y-80638072D01*
X43250000Y-80638072D01*
X43667117Y-80596990D01*
X44068205Y-80475321D01*
X44437849Y-80277742D01*
X44761845Y-80011845D01*
X45027742Y-79687849D01*
X45225321Y-79318205D01*
X45346990Y-78917117D01*
X45388072Y-78500000D01*
X45388072Y-75500000D01*
X45346990Y-75082883D01*
X45225321Y-74681795D01*
X45027742Y-74312151D01*
X44810376Y-74047290D01*
X125765000Y-74047290D01*
X125765000Y-74672710D01*
X125887014Y-75286113D01*
X126126352Y-75863926D01*
X126473817Y-76383944D01*
X126916056Y-76826183D01*
X127436074Y-77173648D01*
X128013887Y-77412986D01*
X128627290Y-77535000D01*
X129252710Y-77535000D01*
X129866113Y-77412986D01*
X130443926Y-77173648D01*
X130963944Y-76826183D01*
X131406183Y-76383944D01*
X131753648Y-75863926D01*
X131992986Y-75286113D01*
X132115000Y-74672710D01*
X132115000Y-74047290D01*
X131992986Y-73433887D01*
X131753648Y-72856074D01*
X131406183Y-72336056D01*
X130963944Y-71893817D01*
X130443926Y-71546352D01*
X129866113Y-71307014D01*
X129252710Y-71185000D01*
X128627290Y-71185000D01*
X128013887Y-71307014D01*
X127436074Y-71546352D01*
X126916056Y-71893817D01*
X126473817Y-72336056D01*
X126126352Y-72856074D01*
X125887014Y-73433887D01*
X125765000Y-74047290D01*
X44810376Y-74047290D01*
X44761845Y-73988155D01*
X44437849Y-73722258D01*
X44068205Y-73524679D01*
X43667117Y-73403010D01*
X43250000Y-73361928D01*
X40250000Y-73361928D01*
X39832883Y-73403010D01*
X39431795Y-73524679D01*
X39062151Y-73722258D01*
X38738155Y-73988155D01*
X38472258Y-74312151D01*
X38274679Y-74681795D01*
X38153010Y-75082883D01*
X38111928Y-75500000D01*
X35660000Y-75500000D01*
X35660000Y-67978665D01*
X38305000Y-67978665D01*
X38305000Y-68261335D01*
X38360147Y-68538574D01*
X38468320Y-68799727D01*
X38625363Y-69034759D01*
X38825241Y-69234637D01*
X39060273Y-69391680D01*
X39321426Y-69499853D01*
X39598665Y-69555000D01*
X39881335Y-69555000D01*
X40158574Y-69499853D01*
X40419727Y-69391680D01*
X40654759Y-69234637D01*
X40854637Y-69034759D01*
X41010000Y-68802241D01*
X41165363Y-69034759D01*
X41365241Y-69234637D01*
X41600273Y-69391680D01*
X41861426Y-69499853D01*
X42138665Y-69555000D01*
X42421335Y-69555000D01*
X42603886Y-69518688D01*
X43096201Y-70011003D01*
X43119999Y-70040001D01*
X43235724Y-70134974D01*
X43367753Y-70205546D01*
X43511014Y-70249003D01*
X43622667Y-70260000D01*
X43622675Y-70260000D01*
X43660000Y-70263676D01*
X43697325Y-70260000D01*
X47862678Y-70260000D01*
X47900000Y-70263676D01*
X47937322Y-70260000D01*
X47937333Y-70260000D01*
X48048986Y-70249003D01*
X48192247Y-70205546D01*
X48324276Y-70134974D01*
X48440001Y-70040001D01*
X48463803Y-70010998D01*
X48476136Y-69998665D01*
X106045000Y-69998665D01*
X106045000Y-70281335D01*
X106100147Y-70558574D01*
X106208320Y-70819727D01*
X106365363Y-71054759D01*
X106565241Y-71254637D01*
X106800273Y-71411680D01*
X107061426Y-71519853D01*
X107338665Y-71575000D01*
X107621335Y-71575000D01*
X107898574Y-71519853D01*
X108159727Y-71411680D01*
X108394759Y-71254637D01*
X108594637Y-71054759D01*
X108751680Y-70819727D01*
X108859853Y-70558574D01*
X108915000Y-70281335D01*
X108915000Y-69998665D01*
X108859853Y-69721426D01*
X108751680Y-69460273D01*
X108594637Y-69225241D01*
X108394759Y-69025363D01*
X108160872Y-68869085D01*
X108221514Y-68836671D01*
X108293097Y-68592702D01*
X107480000Y-67779605D01*
X106666903Y-68592702D01*
X106738486Y-68836671D01*
X106802992Y-68867194D01*
X106800273Y-68868320D01*
X106565241Y-69025363D01*
X106365363Y-69225241D01*
X106208320Y-69460273D01*
X106100147Y-69721426D01*
X106045000Y-69998665D01*
X48476136Y-69998665D01*
X49138057Y-69336745D01*
X49220273Y-69391680D01*
X49481426Y-69499853D01*
X49758665Y-69555000D01*
X50041335Y-69555000D01*
X50318574Y-69499853D01*
X50579727Y-69391680D01*
X50814759Y-69234637D01*
X51014637Y-69034759D01*
X51170000Y-68802241D01*
X51325363Y-69034759D01*
X51525241Y-69234637D01*
X51760273Y-69391680D01*
X52021426Y-69499853D01*
X52298665Y-69555000D01*
X52581335Y-69555000D01*
X52858574Y-69499853D01*
X53119727Y-69391680D01*
X53354759Y-69234637D01*
X53554637Y-69034759D01*
X53710000Y-68802241D01*
X53865363Y-69034759D01*
X54065241Y-69234637D01*
X54300273Y-69391680D01*
X54561426Y-69499853D01*
X54838665Y-69555000D01*
X55121335Y-69555000D01*
X55398574Y-69499853D01*
X55659727Y-69391680D01*
X55894759Y-69234637D01*
X56094637Y-69034759D01*
X56250000Y-68802241D01*
X56405363Y-69034759D01*
X56605241Y-69234637D01*
X56840273Y-69391680D01*
X57101426Y-69499853D01*
X57378665Y-69555000D01*
X57661335Y-69555000D01*
X57938574Y-69499853D01*
X58199727Y-69391680D01*
X58434759Y-69234637D01*
X58634637Y-69034759D01*
X58790000Y-68802241D01*
X58945363Y-69034759D01*
X59145241Y-69234637D01*
X59380273Y-69391680D01*
X59641426Y-69499853D01*
X59918665Y-69555000D01*
X60201335Y-69555000D01*
X60478574Y-69499853D01*
X60739727Y-69391680D01*
X60974759Y-69234637D01*
X61174637Y-69034759D01*
X61330000Y-68802241D01*
X61485363Y-69034759D01*
X61685241Y-69234637D01*
X61920273Y-69391680D01*
X62181426Y-69499853D01*
X62458665Y-69555000D01*
X62741335Y-69555000D01*
X63018574Y-69499853D01*
X63279727Y-69391680D01*
X63514759Y-69234637D01*
X63714637Y-69034759D01*
X63870000Y-68802241D01*
X64025363Y-69034759D01*
X64225241Y-69234637D01*
X64460273Y-69391680D01*
X64721426Y-69499853D01*
X64998665Y-69555000D01*
X65281335Y-69555000D01*
X65558574Y-69499853D01*
X65819727Y-69391680D01*
X66054759Y-69234637D01*
X66254637Y-69034759D01*
X66410000Y-68802241D01*
X66565363Y-69034759D01*
X66765241Y-69234637D01*
X67000273Y-69391680D01*
X67261426Y-69499853D01*
X67538665Y-69555000D01*
X67821335Y-69555000D01*
X68098574Y-69499853D01*
X68359727Y-69391680D01*
X68594759Y-69234637D01*
X68794637Y-69034759D01*
X68950000Y-68802241D01*
X69105363Y-69034759D01*
X69305241Y-69234637D01*
X69540273Y-69391680D01*
X69801426Y-69499853D01*
X70078665Y-69555000D01*
X70361335Y-69555000D01*
X70638574Y-69499853D01*
X70899727Y-69391680D01*
X71134759Y-69234637D01*
X71334637Y-69034759D01*
X71490000Y-68802241D01*
X71645363Y-69034759D01*
X71845241Y-69234637D01*
X72080273Y-69391680D01*
X72341426Y-69499853D01*
X72618665Y-69555000D01*
X72901335Y-69555000D01*
X73178574Y-69499853D01*
X73439727Y-69391680D01*
X73674759Y-69234637D01*
X73874637Y-69034759D01*
X73976687Y-68882029D01*
X88637576Y-68882029D01*
X88901740Y-69289755D01*
X89429661Y-69570317D01*
X90002173Y-69742496D01*
X90597275Y-69799676D01*
X91192098Y-69739658D01*
X91763782Y-69564750D01*
X92278260Y-69289755D01*
X92542424Y-68882029D01*
X90590000Y-66929605D01*
X88637576Y-68882029D01*
X73976687Y-68882029D01*
X74031680Y-68799727D01*
X74139853Y-68538574D01*
X74195000Y-68261335D01*
X74195000Y-67978665D01*
X74139853Y-67701426D01*
X74031680Y-67440273D01*
X73874637Y-67205241D01*
X73674759Y-67005363D01*
X73442241Y-66850000D01*
X73674759Y-66694637D01*
X73874637Y-66494759D01*
X74031680Y-66259727D01*
X74139853Y-65998574D01*
X74195000Y-65721335D01*
X74195000Y-65438665D01*
X74139853Y-65161426D01*
X74041923Y-64925001D01*
X88261296Y-64925001D01*
X88050245Y-65061740D01*
X87769683Y-65589661D01*
X87597504Y-66162173D01*
X87540324Y-66757275D01*
X87600342Y-67352098D01*
X87775250Y-67923782D01*
X88050245Y-68438260D01*
X88457971Y-68702424D01*
X90410395Y-66750000D01*
X90769605Y-66750000D01*
X92722029Y-68702424D01*
X93129755Y-68438260D01*
X93410317Y-67910339D01*
X93482443Y-67670512D01*
X106039783Y-67670512D01*
X106081213Y-67950130D01*
X106176397Y-68216292D01*
X106243329Y-68341514D01*
X106487298Y-68413097D01*
X107300395Y-67600000D01*
X107659605Y-67600000D01*
X108472702Y-68413097D01*
X108716671Y-68341514D01*
X108837571Y-68086004D01*
X108906300Y-67811816D01*
X108920217Y-67529488D01*
X108878787Y-67249870D01*
X108783603Y-66983708D01*
X108716671Y-66858486D01*
X108472702Y-66786903D01*
X107659605Y-67600000D01*
X107300395Y-67600000D01*
X106487298Y-66786903D01*
X106243329Y-66858486D01*
X106122429Y-67113996D01*
X106053700Y-67388184D01*
X106039783Y-67670512D01*
X93482443Y-67670512D01*
X93582496Y-67337827D01*
X93639676Y-66742725D01*
X93579658Y-66147902D01*
X93404750Y-65576218D01*
X93129755Y-65061740D01*
X92722029Y-64797576D01*
X90769605Y-66750000D01*
X90410395Y-66750000D01*
X90396253Y-66735858D01*
X90575858Y-66556253D01*
X90590000Y-66570395D01*
X92542424Y-64617971D01*
X92472470Y-64510000D01*
X105855199Y-64510000D01*
X106081312Y-64736114D01*
X106045000Y-64918665D01*
X106045000Y-65201335D01*
X106100147Y-65478574D01*
X106208320Y-65739727D01*
X106365363Y-65974759D01*
X106565241Y-66174637D01*
X106799128Y-66330915D01*
X106738486Y-66363329D01*
X106666903Y-66607298D01*
X107480000Y-67420395D01*
X108293097Y-66607298D01*
X108221514Y-66363329D01*
X108157008Y-66332806D01*
X108159727Y-66331680D01*
X108394759Y-66174637D01*
X108594637Y-65974759D01*
X108751680Y-65739727D01*
X108859853Y-65478574D01*
X108915000Y-65201335D01*
X108915000Y-64918665D01*
X108859853Y-64641426D01*
X108751680Y-64380273D01*
X108594637Y-64145241D01*
X108394759Y-63945363D01*
X108162241Y-63790000D01*
X108394759Y-63634637D01*
X108594637Y-63434759D01*
X108751680Y-63199727D01*
X108859853Y-62938574D01*
X108915000Y-62661335D01*
X108915000Y-62378665D01*
X108859853Y-62101426D01*
X108751680Y-61840273D01*
X108594637Y-61605241D01*
X108394759Y-61405363D01*
X108162241Y-61250000D01*
X108394759Y-61094637D01*
X108594637Y-60894759D01*
X108751680Y-60659727D01*
X108859853Y-60398574D01*
X108915000Y-60121335D01*
X108915000Y-59838665D01*
X108859853Y-59561426D01*
X108751680Y-59300273D01*
X108594637Y-59065241D01*
X108394759Y-58865363D01*
X108159727Y-58708320D01*
X107898574Y-58600147D01*
X107621335Y-58545000D01*
X107338665Y-58545000D01*
X107061426Y-58600147D01*
X106800273Y-58708320D01*
X106565241Y-58865363D01*
X106365363Y-59065241D01*
X106208320Y-59300273D01*
X106100147Y-59561426D01*
X106045000Y-59838665D01*
X106045000Y-60121335D01*
X106100147Y-60398574D01*
X106208320Y-60659727D01*
X106365363Y-60894759D01*
X106565241Y-61094637D01*
X106655579Y-61154999D01*
X103840128Y-61154999D01*
X104041183Y-60953944D01*
X104388648Y-60433926D01*
X104627986Y-59856113D01*
X104750000Y-59242710D01*
X104750000Y-58617290D01*
X104627986Y-58003887D01*
X104388648Y-57426074D01*
X104041183Y-56906056D01*
X103598944Y-56463817D01*
X103078926Y-56116352D01*
X102513221Y-55882029D01*
X125827576Y-55882029D01*
X126091740Y-56289755D01*
X126619661Y-56570317D01*
X127192173Y-56742496D01*
X127787275Y-56799676D01*
X128382098Y-56739658D01*
X128953782Y-56564750D01*
X129468260Y-56289755D01*
X129732424Y-55882029D01*
X127780000Y-53929605D01*
X125827576Y-55882029D01*
X102513221Y-55882029D01*
X102501113Y-55877014D01*
X101887710Y-55755000D01*
X101719801Y-55755000D01*
X103717526Y-53757275D01*
X124730324Y-53757275D01*
X124790342Y-54352098D01*
X124965250Y-54923782D01*
X125240245Y-55438260D01*
X125647971Y-55702424D01*
X127600395Y-53750000D01*
X127959605Y-53750000D01*
X129912029Y-55702424D01*
X130319755Y-55438260D01*
X130600317Y-54910339D01*
X130772496Y-54337827D01*
X130829676Y-53742725D01*
X130769658Y-53147902D01*
X130594750Y-52576218D01*
X130319755Y-52061740D01*
X129912029Y-51797576D01*
X127959605Y-53750000D01*
X127600395Y-53750000D01*
X125647971Y-51797576D01*
X125240245Y-52061740D01*
X124959683Y-52589661D01*
X124787504Y-53162173D01*
X124730324Y-53757275D01*
X103717526Y-53757275D01*
X105856830Y-51617971D01*
X125827576Y-51617971D01*
X127780000Y-53570395D01*
X129732424Y-51617971D01*
X129468260Y-51210245D01*
X128940339Y-50929683D01*
X128367827Y-50757504D01*
X127772725Y-50700324D01*
X127177902Y-50760342D01*
X126606218Y-50935250D01*
X126091740Y-51210245D01*
X125827576Y-51617971D01*
X105856830Y-51617971D01*
X110841003Y-46633799D01*
X110870001Y-46610001D01*
X110964974Y-46494276D01*
X111035546Y-46362247D01*
X111079003Y-46218986D01*
X111090000Y-46107333D01*
X111093677Y-46070000D01*
X111090000Y-46032667D01*
X111090000Y-45318178D01*
X111276632Y-45193475D01*
X111483475Y-44986632D01*
X111600000Y-44812240D01*
X111716525Y-44986632D01*
X111923368Y-45193475D01*
X112166589Y-45355990D01*
X112436842Y-45467932D01*
X112723740Y-45525000D01*
X113016260Y-45525000D01*
X113303158Y-45467932D01*
X113573411Y-45355990D01*
X113816632Y-45193475D01*
X114023475Y-44986632D01*
X114140000Y-44812240D01*
X114256525Y-44986632D01*
X114463368Y-45193475D01*
X114706589Y-45355990D01*
X114976842Y-45467932D01*
X115263740Y-45525000D01*
X115556260Y-45525000D01*
X115843158Y-45467932D01*
X116113411Y-45355990D01*
X116356632Y-45193475D01*
X116563475Y-44986632D01*
X116680000Y-44812240D01*
X116796525Y-44986632D01*
X117003368Y-45193475D01*
X117246589Y-45355990D01*
X117516842Y-45467932D01*
X117803740Y-45525000D01*
X118096260Y-45525000D01*
X118383158Y-45467932D01*
X118653411Y-45355990D01*
X118896632Y-45193475D01*
X119103475Y-44986632D01*
X119265990Y-44743411D01*
X119377932Y-44473158D01*
X119435000Y-44186260D01*
X119435000Y-43893740D01*
X119377932Y-43606842D01*
X119265990Y-43336589D01*
X119103475Y-43093368D01*
X118896632Y-42886525D01*
X118722240Y-42770000D01*
X118896632Y-42653475D01*
X119103475Y-42446632D01*
X119265990Y-42203411D01*
X119377932Y-41933158D01*
X119435000Y-41646260D01*
X119435000Y-41353740D01*
X119377932Y-41066842D01*
X119265990Y-40796589D01*
X119103475Y-40553368D01*
X118896632Y-40346525D01*
X118653411Y-40184010D01*
X118383158Y-40072068D01*
X118096260Y-40015000D01*
X117803740Y-40015000D01*
X117516842Y-40072068D01*
X117246589Y-40184010D01*
X117003368Y-40346525D01*
X116796525Y-40553368D01*
X116680000Y-40727760D01*
X116563475Y-40553368D01*
X116356632Y-40346525D01*
X116113411Y-40184010D01*
X115843158Y-40072068D01*
X115556260Y-40015000D01*
X115263740Y-40015000D01*
X114976842Y-40072068D01*
X114706589Y-40184010D01*
X114463368Y-40346525D01*
X114256525Y-40553368D01*
X114140000Y-40727760D01*
X114023475Y-40553368D01*
X113816632Y-40346525D01*
X113573411Y-40184010D01*
X113303158Y-40072068D01*
X113016260Y-40015000D01*
X112723740Y-40015000D01*
X112436842Y-40072068D01*
X112166589Y-40184010D01*
X111923368Y-40346525D01*
X111716525Y-40553368D01*
X111600000Y-40727760D01*
X111483475Y-40553368D01*
X111276632Y-40346525D01*
X111033411Y-40184010D01*
X110763158Y-40072068D01*
X110476260Y-40015000D01*
X110183740Y-40015000D01*
X109896842Y-40072068D01*
X109626589Y-40184010D01*
X109383368Y-40346525D01*
X109176525Y-40553368D01*
X109060000Y-40727760D01*
X108943475Y-40553368D01*
X108736632Y-40346525D01*
X108493411Y-40184010D01*
X108223158Y-40072068D01*
X107936260Y-40015000D01*
X107643740Y-40015000D01*
X107356842Y-40072068D01*
X107086589Y-40184010D01*
X106843368Y-40346525D01*
X106636525Y-40553368D01*
X106520000Y-40727760D01*
X106403475Y-40553368D01*
X106196632Y-40346525D01*
X105953411Y-40184010D01*
X105683158Y-40072068D01*
X105396260Y-40015000D01*
X105103740Y-40015000D01*
X104816842Y-40072068D01*
X104546589Y-40184010D01*
X104303368Y-40346525D01*
X104096525Y-40553368D01*
X103980000Y-40727760D01*
X103863475Y-40553368D01*
X103656632Y-40346525D01*
X103413411Y-40184010D01*
X103143158Y-40072068D01*
X102856260Y-40015000D01*
X102563740Y-40015000D01*
X102276842Y-40072068D01*
X102006589Y-40184010D01*
X101763368Y-40346525D01*
X101556525Y-40553368D01*
X101440000Y-40727760D01*
X101323475Y-40553368D01*
X101116632Y-40346525D01*
X100873411Y-40184010D01*
X100603158Y-40072068D01*
X100316260Y-40015000D01*
X100023740Y-40015000D01*
X99736842Y-40072068D01*
X99466589Y-40184010D01*
X99223368Y-40346525D01*
X99016525Y-40553368D01*
X98854010Y-40796589D01*
X98742068Y-41066842D01*
X98685000Y-41353740D01*
X98685000Y-41646260D01*
X98742068Y-41933158D01*
X98854010Y-42203411D01*
X99016525Y-42446632D01*
X99223368Y-42653475D01*
X99399406Y-42771100D01*
X99169731Y-42942412D01*
X98974822Y-43158645D01*
X98825843Y-43408748D01*
X98728519Y-43683109D01*
X98849186Y-43913000D01*
X100043000Y-43913000D01*
X100043000Y-43893000D01*
X100297000Y-43893000D01*
X100297000Y-43913000D01*
X100317000Y-43913000D01*
X100317000Y-44167000D01*
X100297000Y-44167000D01*
X100297000Y-45360155D01*
X100526890Y-45481476D01*
X100674099Y-45436825D01*
X100936920Y-45311641D01*
X101170269Y-45137588D01*
X101365178Y-44921355D01*
X101434805Y-44804466D01*
X101556525Y-44986632D01*
X101763368Y-45193475D01*
X102006589Y-45355990D01*
X102276842Y-45467932D01*
X102563740Y-45525000D01*
X102856260Y-45525000D01*
X103143158Y-45467932D01*
X103413411Y-45355990D01*
X103656632Y-45193475D01*
X103863475Y-44986632D01*
X103980000Y-44812240D01*
X104096525Y-44986632D01*
X104303368Y-45193475D01*
X104546589Y-45355990D01*
X104816842Y-45467932D01*
X105103740Y-45525000D01*
X105230198Y-45525000D01*
X99815199Y-50940000D01*
X75837333Y-50940000D01*
X75800000Y-50936323D01*
X75762667Y-50940000D01*
X75651014Y-50950997D01*
X75507753Y-50994454D01*
X75375724Y-51065026D01*
X75259999Y-51159999D01*
X75236201Y-51188997D01*
X74088280Y-52336918D01*
X74031680Y-52200273D01*
X73874637Y-51965241D01*
X73674759Y-51765363D01*
X73439727Y-51608320D01*
X73178574Y-51500147D01*
X72901335Y-51445000D01*
X72618665Y-51445000D01*
X72341426Y-51500147D01*
X72080273Y-51608320D01*
X71845241Y-51765363D01*
X71645363Y-51965241D01*
X71490000Y-52197759D01*
X71334637Y-51965241D01*
X71134759Y-51765363D01*
X70899727Y-51608320D01*
X70638574Y-51500147D01*
X70361335Y-51445000D01*
X70078665Y-51445000D01*
X69801426Y-51500147D01*
X69540273Y-51608320D01*
X69305241Y-51765363D01*
X69105363Y-51965241D01*
X68950000Y-52197759D01*
X68794637Y-51965241D01*
X68594759Y-51765363D01*
X68359727Y-51608320D01*
X68098574Y-51500147D01*
X67821335Y-51445000D01*
X67538665Y-51445000D01*
X67261426Y-51500147D01*
X67000273Y-51608320D01*
X66765241Y-51765363D01*
X66565363Y-51965241D01*
X66410000Y-52197759D01*
X66254637Y-51965241D01*
X66054759Y-51765363D01*
X65819727Y-51608320D01*
X65558574Y-51500147D01*
X65281335Y-51445000D01*
X64998665Y-51445000D01*
X64721426Y-51500147D01*
X64460273Y-51608320D01*
X64225241Y-51765363D01*
X64025363Y-51965241D01*
X63870000Y-52197759D01*
X63714637Y-51965241D01*
X63514759Y-51765363D01*
X63279727Y-51608320D01*
X63018574Y-51500147D01*
X62741335Y-51445000D01*
X62458665Y-51445000D01*
X62181426Y-51500147D01*
X61920273Y-51608320D01*
X61685241Y-51765363D01*
X61485363Y-51965241D01*
X61330000Y-52197759D01*
X61244701Y-52070100D01*
X63732099Y-49582702D01*
X67916903Y-49582702D01*
X67988486Y-49826671D01*
X68243996Y-49947571D01*
X68518184Y-50016300D01*
X68800512Y-50030217D01*
X69080130Y-49988787D01*
X69346292Y-49893603D01*
X69471514Y-49826671D01*
X69543097Y-49582702D01*
X68730000Y-48769605D01*
X67916903Y-49582702D01*
X63732099Y-49582702D01*
X64654289Y-48660512D01*
X67289783Y-48660512D01*
X67331213Y-48940130D01*
X67426397Y-49206292D01*
X67493329Y-49331514D01*
X67737298Y-49403097D01*
X68550395Y-48590000D01*
X68909605Y-48590000D01*
X69722702Y-49403097D01*
X69966671Y-49331514D01*
X70087571Y-49076004D01*
X70156300Y-48801816D01*
X70170217Y-48519488D01*
X70167132Y-48498665D01*
X72725000Y-48498665D01*
X72725000Y-48781335D01*
X72780147Y-49058574D01*
X72888320Y-49319727D01*
X73045363Y-49554759D01*
X73245241Y-49754637D01*
X73480273Y-49911680D01*
X73741426Y-50019853D01*
X74018665Y-50075000D01*
X74301335Y-50075000D01*
X74578574Y-50019853D01*
X74839727Y-49911680D01*
X75074759Y-49754637D01*
X75274637Y-49554759D01*
X75430000Y-49322241D01*
X75585363Y-49554759D01*
X75785241Y-49754637D01*
X76020273Y-49911680D01*
X76281426Y-50019853D01*
X76558665Y-50075000D01*
X76841335Y-50075000D01*
X77118574Y-50019853D01*
X77379727Y-49911680D01*
X77614759Y-49754637D01*
X77814637Y-49554759D01*
X77970000Y-49322241D01*
X78125363Y-49554759D01*
X78325241Y-49754637D01*
X78560273Y-49911680D01*
X78821426Y-50019853D01*
X79098665Y-50075000D01*
X79381335Y-50075000D01*
X79658574Y-50019853D01*
X79919727Y-49911680D01*
X80154759Y-49754637D01*
X80354637Y-49554759D01*
X80511680Y-49319727D01*
X80619853Y-49058574D01*
X80675000Y-48781335D01*
X80675000Y-48498665D01*
X80619853Y-48221426D01*
X80511680Y-47960273D01*
X80354637Y-47725241D01*
X80154759Y-47525363D01*
X79919727Y-47368320D01*
X79658574Y-47260147D01*
X79381335Y-47205000D01*
X79098665Y-47205000D01*
X78821426Y-47260147D01*
X78560273Y-47368320D01*
X78325241Y-47525363D01*
X78125363Y-47725241D01*
X77970000Y-47957759D01*
X77814637Y-47725241D01*
X77614759Y-47525363D01*
X77379727Y-47368320D01*
X77118574Y-47260147D01*
X76841335Y-47205000D01*
X76558665Y-47205000D01*
X76281426Y-47260147D01*
X76020273Y-47368320D01*
X75785241Y-47525363D01*
X75585363Y-47725241D01*
X75430000Y-47957759D01*
X75274637Y-47725241D01*
X75074759Y-47525363D01*
X74839727Y-47368320D01*
X74578574Y-47260147D01*
X74301335Y-47205000D01*
X74018665Y-47205000D01*
X73741426Y-47260147D01*
X73480273Y-47368320D01*
X73245241Y-47525363D01*
X73045363Y-47725241D01*
X72888320Y-47960273D01*
X72780147Y-48221426D01*
X72725000Y-48498665D01*
X70167132Y-48498665D01*
X70128787Y-48239870D01*
X70033603Y-47973708D01*
X69966671Y-47848486D01*
X69722702Y-47776903D01*
X68909605Y-48590000D01*
X68550395Y-48590000D01*
X67737298Y-47776903D01*
X67493329Y-47848486D01*
X67372429Y-48103996D01*
X67303700Y-48378184D01*
X67289783Y-48660512D01*
X64654289Y-48660512D01*
X67295000Y-46019802D01*
X67295000Y-46191335D01*
X67350147Y-46468574D01*
X67458320Y-46729727D01*
X67615363Y-46964759D01*
X67815241Y-47164637D01*
X68049128Y-47320915D01*
X67988486Y-47353329D01*
X67916903Y-47597298D01*
X68730000Y-48410395D01*
X69543097Y-47597298D01*
X69471514Y-47353329D01*
X69407008Y-47322806D01*
X69409727Y-47321680D01*
X69644759Y-47164637D01*
X69844637Y-46964759D01*
X70001680Y-46729727D01*
X70109853Y-46468574D01*
X70165000Y-46191335D01*
X70165000Y-45908665D01*
X70109853Y-45631426D01*
X70001680Y-45370273D01*
X69844637Y-45135241D01*
X69644759Y-44935363D01*
X69412241Y-44780000D01*
X69644759Y-44624637D01*
X69844637Y-44424759D01*
X70001680Y-44189727D01*
X70109853Y-43928574D01*
X70165000Y-43651335D01*
X70165000Y-43368665D01*
X70109853Y-43091426D01*
X70001680Y-42830273D01*
X69844637Y-42595241D01*
X69644759Y-42395363D01*
X69412241Y-42240000D01*
X69644759Y-42084637D01*
X69844637Y-41884759D01*
X70001680Y-41649727D01*
X70109853Y-41388574D01*
X70165000Y-41111335D01*
X70165000Y-40828665D01*
X83235000Y-40828665D01*
X83235000Y-41111335D01*
X83290147Y-41388574D01*
X83398320Y-41649727D01*
X83555363Y-41884759D01*
X83755241Y-42084637D01*
X83987759Y-42240000D01*
X83755241Y-42395363D01*
X83555363Y-42595241D01*
X83398320Y-42830273D01*
X83290147Y-43091426D01*
X83235000Y-43368665D01*
X83235000Y-43651335D01*
X83290147Y-43928574D01*
X83398320Y-44189727D01*
X83555363Y-44424759D01*
X83755241Y-44624637D01*
X83987759Y-44780000D01*
X83755241Y-44935363D01*
X83555363Y-45135241D01*
X83398320Y-45370273D01*
X83290147Y-45631426D01*
X83235000Y-45908665D01*
X83235000Y-46191335D01*
X83290147Y-46468574D01*
X83398320Y-46729727D01*
X83555363Y-46964759D01*
X83755241Y-47164637D01*
X83987759Y-47320000D01*
X83755241Y-47475363D01*
X83555363Y-47675241D01*
X83398320Y-47910273D01*
X83290147Y-48171426D01*
X83235000Y-48448665D01*
X83235000Y-48731335D01*
X83290147Y-49008574D01*
X83398320Y-49269727D01*
X83555363Y-49504759D01*
X83755241Y-49704637D01*
X83990273Y-49861680D01*
X84251426Y-49969853D01*
X84528665Y-50025000D01*
X84811335Y-50025000D01*
X85088574Y-49969853D01*
X85349727Y-49861680D01*
X85584759Y-49704637D01*
X85784637Y-49504759D01*
X85941680Y-49269727D01*
X86049853Y-49008574D01*
X86105000Y-48731335D01*
X86105000Y-48448665D01*
X86049853Y-48171426D01*
X85941680Y-47910273D01*
X85784637Y-47675241D01*
X85584759Y-47475363D01*
X85352241Y-47320000D01*
X85584759Y-47164637D01*
X85784637Y-46964759D01*
X85941680Y-46729727D01*
X86049853Y-46468574D01*
X86105000Y-46191335D01*
X86105000Y-45908665D01*
X86049853Y-45631426D01*
X85941680Y-45370273D01*
X85784637Y-45135241D01*
X85584759Y-44935363D01*
X85352241Y-44780000D01*
X85584759Y-44624637D01*
X85784637Y-44424759D01*
X85803257Y-44396891D01*
X98728519Y-44396891D01*
X98825843Y-44671252D01*
X98974822Y-44921355D01*
X99169731Y-45137588D01*
X99403080Y-45311641D01*
X99665901Y-45436825D01*
X99813110Y-45481476D01*
X100043000Y-45360155D01*
X100043000Y-44167000D01*
X98849186Y-44167000D01*
X98728519Y-44396891D01*
X85803257Y-44396891D01*
X85941680Y-44189727D01*
X86049853Y-43928574D01*
X86105000Y-43651335D01*
X86105000Y-43368665D01*
X86049853Y-43091426D01*
X85963119Y-42882029D01*
X88637576Y-42882029D01*
X88901740Y-43289755D01*
X89429661Y-43570317D01*
X90002173Y-43742496D01*
X90597275Y-43799676D01*
X91192098Y-43739658D01*
X91763782Y-43564750D01*
X92278260Y-43289755D01*
X92542424Y-42882029D01*
X90590000Y-40929605D01*
X88637576Y-42882029D01*
X85963119Y-42882029D01*
X85941680Y-42830273D01*
X85784637Y-42595241D01*
X85584759Y-42395363D01*
X85352241Y-42240000D01*
X85584759Y-42084637D01*
X85784637Y-41884759D01*
X85941680Y-41649727D01*
X86049853Y-41388574D01*
X86105000Y-41111335D01*
X86105000Y-40828665D01*
X86090800Y-40757275D01*
X87540324Y-40757275D01*
X87600342Y-41352098D01*
X87775250Y-41923782D01*
X88050245Y-42438260D01*
X88457971Y-42702424D01*
X90410395Y-40750000D01*
X90769605Y-40750000D01*
X92722029Y-42702424D01*
X93129755Y-42438260D01*
X93410317Y-41910339D01*
X93582496Y-41337827D01*
X93639676Y-40742725D01*
X93579658Y-40147902D01*
X93404750Y-39576218D01*
X93129755Y-39061740D01*
X92722029Y-38797576D01*
X90769605Y-40750000D01*
X90410395Y-40750000D01*
X88457971Y-38797576D01*
X88050245Y-39061740D01*
X87769683Y-39589661D01*
X87597504Y-40162173D01*
X87540324Y-40757275D01*
X86090800Y-40757275D01*
X86049853Y-40551426D01*
X85941680Y-40290273D01*
X85784637Y-40055241D01*
X85584759Y-39855363D01*
X85349727Y-39698320D01*
X85088574Y-39590147D01*
X84811335Y-39535000D01*
X84528665Y-39535000D01*
X84251426Y-39590147D01*
X83990273Y-39698320D01*
X83755241Y-39855363D01*
X83555363Y-40055241D01*
X83398320Y-40290273D01*
X83290147Y-40551426D01*
X83235000Y-40828665D01*
X70165000Y-40828665D01*
X70109853Y-40551426D01*
X70001680Y-40290273D01*
X69844637Y-40055241D01*
X69644759Y-39855363D01*
X69409727Y-39698320D01*
X69148574Y-39590147D01*
X68871335Y-39535000D01*
X68588665Y-39535000D01*
X68311426Y-39590147D01*
X68050273Y-39698320D01*
X67815241Y-39855363D01*
X67615363Y-40055241D01*
X67458320Y-40290273D01*
X67350147Y-40551426D01*
X67295000Y-40828665D01*
X67295000Y-41111335D01*
X67331312Y-41293886D01*
X57130918Y-51494281D01*
X57101426Y-51500147D01*
X56840273Y-51608320D01*
X56605241Y-51765363D01*
X56405363Y-51965241D01*
X56250000Y-52197759D01*
X56094637Y-51965241D01*
X55894759Y-51765363D01*
X55659727Y-51608320D01*
X55398574Y-51500147D01*
X55121335Y-51445000D01*
X54838665Y-51445000D01*
X54561426Y-51500147D01*
X54300273Y-51608320D01*
X54065241Y-51765363D01*
X53865363Y-51965241D01*
X53710000Y-52197759D01*
X53554637Y-51965241D01*
X53354759Y-51765363D01*
X53119727Y-51608320D01*
X52858574Y-51500147D01*
X52581335Y-51445000D01*
X52298665Y-51445000D01*
X52021426Y-51500147D01*
X51760273Y-51608320D01*
X51525241Y-51765363D01*
X51325363Y-51965241D01*
X51170000Y-52197759D01*
X51014637Y-51965241D01*
X50814759Y-51765363D01*
X50579727Y-51608320D01*
X50318574Y-51500147D01*
X50041335Y-51445000D01*
X49758665Y-51445000D01*
X49481426Y-51500147D01*
X49220273Y-51608320D01*
X48985241Y-51765363D01*
X48785363Y-51965241D01*
X48630000Y-52197759D01*
X48474637Y-51965241D01*
X48274759Y-51765363D01*
X48039727Y-51608320D01*
X47778574Y-51500147D01*
X47501335Y-51445000D01*
X47218665Y-51445000D01*
X46941426Y-51500147D01*
X46680273Y-51608320D01*
X46445241Y-51765363D01*
X46245363Y-51965241D01*
X46090000Y-52197759D01*
X45934637Y-51965241D01*
X45734759Y-51765363D01*
X45499727Y-51608320D01*
X45238574Y-51500147D01*
X44961335Y-51445000D01*
X44678665Y-51445000D01*
X44401426Y-51500147D01*
X44140273Y-51608320D01*
X43905241Y-51765363D01*
X43705363Y-51965241D01*
X43549085Y-52199128D01*
X43516671Y-52138486D01*
X43272702Y-52066903D01*
X42459605Y-52880000D01*
X43272702Y-53693097D01*
X43516671Y-53621514D01*
X43547194Y-53557008D01*
X43548320Y-53559727D01*
X43705363Y-53794759D01*
X43905241Y-53994637D01*
X44140273Y-54151680D01*
X44401426Y-54259853D01*
X44678665Y-54315000D01*
X44961335Y-54315000D01*
X45238574Y-54259853D01*
X45499727Y-54151680D01*
X45734759Y-53994637D01*
X45934637Y-53794759D01*
X46090000Y-53562241D01*
X46245363Y-53794759D01*
X46445241Y-53994637D01*
X46680273Y-54151680D01*
X46941426Y-54259853D01*
X47218665Y-54315000D01*
X47501335Y-54315000D01*
X47778574Y-54259853D01*
X48039727Y-54151680D01*
X48274759Y-53994637D01*
X48474637Y-53794759D01*
X48630000Y-53562241D01*
X48785363Y-53794759D01*
X48985241Y-53994637D01*
X49220273Y-54151680D01*
X49481426Y-54259853D01*
X49758665Y-54315000D01*
X50041335Y-54315000D01*
X50318574Y-54259853D01*
X50579727Y-54151680D01*
X50814759Y-53994637D01*
X51014637Y-53794759D01*
X51170000Y-53562241D01*
X51325363Y-53794759D01*
X51525241Y-53994637D01*
X51760273Y-54151680D01*
X52021426Y-54259853D01*
X52298665Y-54315000D01*
X52581335Y-54315000D01*
X52858574Y-54259853D01*
X53119727Y-54151680D01*
X53354759Y-53994637D01*
X53554637Y-53794759D01*
X53710000Y-53562241D01*
X53865363Y-53794759D01*
X54065241Y-53994637D01*
X54300273Y-54151680D01*
X54561426Y-54259853D01*
X54838665Y-54315000D01*
X55121335Y-54315000D01*
X55398574Y-54259853D01*
X55659727Y-54151680D01*
X55894759Y-53994637D01*
X56094637Y-53794759D01*
X56250000Y-53562241D01*
X56405363Y-53794759D01*
X56605241Y-53994637D01*
X56840273Y-54151680D01*
X57101426Y-54259853D01*
X57378665Y-54315000D01*
X57550198Y-54315000D01*
X45143887Y-66721312D01*
X44961335Y-66685000D01*
X44678665Y-66685000D01*
X44401426Y-66740147D01*
X44140273Y-66848320D01*
X43905241Y-67005363D01*
X43705363Y-67205241D01*
X43550000Y-67437759D01*
X43394637Y-67205241D01*
X43194759Y-67005363D01*
X42959727Y-66848320D01*
X42698574Y-66740147D01*
X42421335Y-66685000D01*
X42138665Y-66685000D01*
X41861426Y-66740147D01*
X41600273Y-66848320D01*
X41365241Y-67005363D01*
X41165363Y-67205241D01*
X41010000Y-67437759D01*
X40854637Y-67205241D01*
X40654759Y-67005363D01*
X40419727Y-66848320D01*
X40158574Y-66740147D01*
X39881335Y-66685000D01*
X39598665Y-66685000D01*
X39321426Y-66740147D01*
X39060273Y-66848320D01*
X38825241Y-67005363D01*
X38625363Y-67205241D01*
X38468320Y-67440273D01*
X38360147Y-67701426D01*
X38305000Y-67978665D01*
X35660000Y-67978665D01*
X35660000Y-55278665D01*
X40845000Y-55278665D01*
X40845000Y-55561335D01*
X40900147Y-55838574D01*
X41008320Y-56099727D01*
X41165363Y-56334759D01*
X41365241Y-56534637D01*
X41600273Y-56691680D01*
X41861426Y-56799853D01*
X42138665Y-56855000D01*
X42421335Y-56855000D01*
X42698574Y-56799853D01*
X42959727Y-56691680D01*
X43194759Y-56534637D01*
X43394637Y-56334759D01*
X43551680Y-56099727D01*
X43659853Y-55838574D01*
X43715000Y-55561335D01*
X43715000Y-55278665D01*
X43659853Y-55001426D01*
X43551680Y-54740273D01*
X43394637Y-54505241D01*
X43194759Y-54305363D01*
X42960872Y-54149085D01*
X43021514Y-54116671D01*
X43093097Y-53872702D01*
X42280000Y-53059605D01*
X41466903Y-53872702D01*
X41538486Y-54116671D01*
X41602992Y-54147194D01*
X41600273Y-54148320D01*
X41365241Y-54305363D01*
X41165363Y-54505241D01*
X41008320Y-54740273D01*
X40900147Y-55001426D01*
X40845000Y-55278665D01*
X35660000Y-55278665D01*
X35660000Y-52738665D01*
X38305000Y-52738665D01*
X38305000Y-53021335D01*
X38360147Y-53298574D01*
X38468320Y-53559727D01*
X38625363Y-53794759D01*
X38825241Y-53994637D01*
X39060273Y-54151680D01*
X39321426Y-54259853D01*
X39598665Y-54315000D01*
X39881335Y-54315000D01*
X40158574Y-54259853D01*
X40419727Y-54151680D01*
X40654759Y-53994637D01*
X40854637Y-53794759D01*
X41010915Y-53560872D01*
X41043329Y-53621514D01*
X41287298Y-53693097D01*
X42100395Y-52880000D01*
X41287298Y-52066903D01*
X41043329Y-52138486D01*
X41012806Y-52202992D01*
X41011680Y-52200273D01*
X40854637Y-51965241D01*
X40776694Y-51887298D01*
X41466903Y-51887298D01*
X42280000Y-52700395D01*
X43093097Y-51887298D01*
X43021514Y-51643329D01*
X42766004Y-51522429D01*
X42491816Y-51453700D01*
X42209488Y-51439783D01*
X41929870Y-51481213D01*
X41663708Y-51576397D01*
X41538486Y-51643329D01*
X41466903Y-51887298D01*
X40776694Y-51887298D01*
X40654759Y-51765363D01*
X40419727Y-51608320D01*
X40158574Y-51500147D01*
X39881335Y-51445000D01*
X39598665Y-51445000D01*
X39321426Y-51500147D01*
X39060273Y-51608320D01*
X38825241Y-51765363D01*
X38625363Y-51965241D01*
X38468320Y-52200273D01*
X38360147Y-52461426D01*
X38305000Y-52738665D01*
X35660000Y-52738665D01*
X35660000Y-42700881D01*
X37478724Y-42700881D01*
X37838912Y-43190548D01*
X38502882Y-43550849D01*
X39224385Y-43774694D01*
X39975695Y-43853480D01*
X40727938Y-43784178D01*
X41452208Y-43569452D01*
X42120670Y-43217555D01*
X42161088Y-43190548D01*
X42521276Y-42700881D01*
X40000000Y-40179605D01*
X37478724Y-42700881D01*
X35660000Y-42700881D01*
X35660000Y-40029392D01*
X35664792Y-39975695D01*
X36146520Y-39975695D01*
X36215822Y-40727938D01*
X36430548Y-41452208D01*
X36782445Y-42120670D01*
X36809452Y-42161088D01*
X37299119Y-42521276D01*
X39820395Y-40000000D01*
X40179605Y-40000000D01*
X42700881Y-42521276D01*
X43190548Y-42161088D01*
X43550849Y-41497118D01*
X43774694Y-40775615D01*
X43853480Y-40024305D01*
X43784178Y-39272062D01*
X43777242Y-39248665D01*
X48565000Y-39248665D01*
X48565000Y-39531335D01*
X48620147Y-39808574D01*
X48728320Y-40069727D01*
X48885363Y-40304759D01*
X49085241Y-40504637D01*
X49320273Y-40661680D01*
X49581426Y-40769853D01*
X49858665Y-40825000D01*
X50141335Y-40825000D01*
X50418574Y-40769853D01*
X50679727Y-40661680D01*
X50914759Y-40504637D01*
X51036694Y-40382702D01*
X51726903Y-40382702D01*
X51798486Y-40626671D01*
X52053996Y-40747571D01*
X52328184Y-40816300D01*
X52610512Y-40830217D01*
X52890130Y-40788787D01*
X53156292Y-40693603D01*
X53281514Y-40626671D01*
X53353097Y-40382702D01*
X52540000Y-39569605D01*
X51726903Y-40382702D01*
X51036694Y-40382702D01*
X51114637Y-40304759D01*
X51270915Y-40070872D01*
X51303329Y-40131514D01*
X51547298Y-40203097D01*
X52360395Y-39390000D01*
X52719605Y-39390000D01*
X53532702Y-40203097D01*
X53776671Y-40131514D01*
X53807194Y-40067008D01*
X53808320Y-40069727D01*
X53965363Y-40304759D01*
X54165241Y-40504637D01*
X54400273Y-40661680D01*
X54661426Y-40769853D01*
X54938665Y-40825000D01*
X55221335Y-40825000D01*
X55498574Y-40769853D01*
X55759727Y-40661680D01*
X55994759Y-40504637D01*
X56194637Y-40304759D01*
X56350000Y-40072241D01*
X56505363Y-40304759D01*
X56705241Y-40504637D01*
X56940273Y-40661680D01*
X57201426Y-40769853D01*
X57478665Y-40825000D01*
X57761335Y-40825000D01*
X58038574Y-40769853D01*
X58299727Y-40661680D01*
X58534759Y-40504637D01*
X58734637Y-40304759D01*
X58890000Y-40072241D01*
X59045363Y-40304759D01*
X59245241Y-40504637D01*
X59480273Y-40661680D01*
X59741426Y-40769853D01*
X60018665Y-40825000D01*
X60301335Y-40825000D01*
X60578574Y-40769853D01*
X60839727Y-40661680D01*
X61074759Y-40504637D01*
X61274637Y-40304759D01*
X61430000Y-40072241D01*
X61585363Y-40304759D01*
X61785241Y-40504637D01*
X62020273Y-40661680D01*
X62281426Y-40769853D01*
X62558665Y-40825000D01*
X62841335Y-40825000D01*
X63118574Y-40769853D01*
X63379727Y-40661680D01*
X63614759Y-40504637D01*
X63814637Y-40304759D01*
X63971680Y-40069727D01*
X64079853Y-39808574D01*
X64135000Y-39531335D01*
X64135000Y-39248665D01*
X64079853Y-38971426D01*
X63971680Y-38710273D01*
X63910006Y-38617971D01*
X88637576Y-38617971D01*
X90590000Y-40570395D01*
X92542424Y-38617971D01*
X92278260Y-38210245D01*
X91750339Y-37929683D01*
X91177827Y-37757504D01*
X90582725Y-37700324D01*
X89987902Y-37760342D01*
X89416218Y-37935250D01*
X88901740Y-38210245D01*
X88637576Y-38617971D01*
X63910006Y-38617971D01*
X63814637Y-38475241D01*
X63614759Y-38275363D01*
X63379727Y-38118320D01*
X63118574Y-38010147D01*
X62841335Y-37955000D01*
X62558665Y-37955000D01*
X62281426Y-38010147D01*
X62020273Y-38118320D01*
X61785241Y-38275363D01*
X61585363Y-38475241D01*
X61430000Y-38707759D01*
X61274637Y-38475241D01*
X61074759Y-38275363D01*
X60839727Y-38118320D01*
X60578574Y-38010147D01*
X60301335Y-37955000D01*
X60018665Y-37955000D01*
X59741426Y-38010147D01*
X59480273Y-38118320D01*
X59245241Y-38275363D01*
X59045363Y-38475241D01*
X58890000Y-38707759D01*
X58734637Y-38475241D01*
X58534759Y-38275363D01*
X58299727Y-38118320D01*
X58038574Y-38010147D01*
X57761335Y-37955000D01*
X57478665Y-37955000D01*
X57201426Y-38010147D01*
X56940273Y-38118320D01*
X56705241Y-38275363D01*
X56505363Y-38475241D01*
X56350000Y-38707759D01*
X56194637Y-38475241D01*
X55994759Y-38275363D01*
X55759727Y-38118320D01*
X55498574Y-38010147D01*
X55221335Y-37955000D01*
X54938665Y-37955000D01*
X54661426Y-38010147D01*
X54400273Y-38118320D01*
X54165241Y-38275363D01*
X53965363Y-38475241D01*
X53809085Y-38709128D01*
X53776671Y-38648486D01*
X53532702Y-38576903D01*
X52719605Y-39390000D01*
X52360395Y-39390000D01*
X51547298Y-38576903D01*
X51303329Y-38648486D01*
X51272806Y-38712992D01*
X51271680Y-38710273D01*
X51114637Y-38475241D01*
X51036694Y-38397298D01*
X51726903Y-38397298D01*
X52540000Y-39210395D01*
X53353097Y-38397298D01*
X53281514Y-38153329D01*
X53026004Y-38032429D01*
X52751816Y-37963700D01*
X52469488Y-37949783D01*
X52189870Y-37991213D01*
X51923708Y-38086397D01*
X51798486Y-38153329D01*
X51726903Y-38397298D01*
X51036694Y-38397298D01*
X50914759Y-38275363D01*
X50679727Y-38118320D01*
X50418574Y-38010147D01*
X50141335Y-37955000D01*
X49858665Y-37955000D01*
X49581426Y-38010147D01*
X49320273Y-38118320D01*
X49085241Y-38275363D01*
X48885363Y-38475241D01*
X48728320Y-38710273D01*
X48620147Y-38971426D01*
X48565000Y-39248665D01*
X43777242Y-39248665D01*
X43569452Y-38547792D01*
X43217555Y-37879330D01*
X43190548Y-37838912D01*
X42700881Y-37478724D01*
X40179605Y-40000000D01*
X39820395Y-40000000D01*
X37299119Y-37478724D01*
X36809452Y-37838912D01*
X36449151Y-38502882D01*
X36225306Y-39224385D01*
X36146520Y-39975695D01*
X35664792Y-39975695D01*
X35731173Y-39231917D01*
X35934656Y-38488109D01*
X36266638Y-37792095D01*
X36620876Y-37299119D01*
X37478724Y-37299119D01*
X40000000Y-39820395D01*
X42521276Y-37299119D01*
X42161088Y-36809452D01*
X41497118Y-36449151D01*
X40775615Y-36225306D01*
X40024305Y-36146520D01*
X39272062Y-36215822D01*
X38547792Y-36430548D01*
X37879330Y-36782445D01*
X37838912Y-36809452D01*
X37478724Y-37299119D01*
X36620876Y-37299119D01*
X36716626Y-37165870D01*
X37270403Y-36629223D01*
X37910451Y-36199129D01*
X38616553Y-35889171D01*
X39371457Y-35707935D01*
X40024207Y-35660000D01*
X129970608Y-35660000D01*
X130768083Y-35731173D01*
%TA.AperFunction,Conductor*%
D20*
G36*
X130768083Y-35731173D02*
G01*
X131511891Y-35934656D01*
X132207905Y-36266638D01*
X132834130Y-36716626D01*
X133370777Y-37270403D01*
X133800871Y-37910451D01*
X134110829Y-38616553D01*
X134292065Y-39371457D01*
X134340000Y-40024207D01*
X134340001Y-89970597D01*
X134268827Y-90768083D01*
X134065344Y-91511890D01*
X133733363Y-92207904D01*
X133283374Y-92834130D01*
X132729597Y-93370777D01*
X132089549Y-93800871D01*
X131383447Y-94110829D01*
X130628543Y-94292065D01*
X129975793Y-94340000D01*
X40029392Y-94340000D01*
X39231917Y-94268827D01*
X38488110Y-94065344D01*
X37792096Y-93733363D01*
X37165870Y-93283374D01*
X36629223Y-92729597D01*
X36609927Y-92700881D01*
X127478724Y-92700881D01*
X127838912Y-93190548D01*
X128502882Y-93550849D01*
X129224385Y-93774694D01*
X129975695Y-93853480D01*
X130727938Y-93784178D01*
X131452208Y-93569452D01*
X132120670Y-93217555D01*
X132161088Y-93190548D01*
X132521276Y-92700881D01*
X130000000Y-90179605D01*
X127478724Y-92700881D01*
X36609927Y-92700881D01*
X36199129Y-92089549D01*
X35889171Y-91383447D01*
X35707935Y-90628543D01*
X35660000Y-89975793D01*
X35660000Y-89975695D01*
X126146520Y-89975695D01*
X126215822Y-90727938D01*
X126430548Y-91452208D01*
X126782445Y-92120670D01*
X126809452Y-92161088D01*
X127299119Y-92521276D01*
X129820395Y-90000000D01*
X130179605Y-90000000D01*
X132700881Y-92521276D01*
X133190548Y-92161088D01*
X133550849Y-91497118D01*
X133774694Y-90775615D01*
X133853480Y-90024305D01*
X133784178Y-89272062D01*
X133569452Y-88547792D01*
X133217555Y-87879330D01*
X133190548Y-87838912D01*
X132700881Y-87478724D01*
X130179605Y-90000000D01*
X129820395Y-90000000D01*
X127299119Y-87478724D01*
X126809452Y-87838912D01*
X126449151Y-88502882D01*
X126225306Y-89224385D01*
X126146520Y-89975695D01*
X35660000Y-89975695D01*
X35660000Y-86758686D01*
X39370919Y-86758686D01*
X39707106Y-87227868D01*
X40337068Y-87568237D01*
X41021327Y-87779166D01*
X41733589Y-87852550D01*
X42446482Y-87785569D01*
X43132609Y-87580796D01*
X43765603Y-87246102D01*
X43792894Y-87227868D01*
X44129081Y-86758686D01*
X41750000Y-84379605D01*
X39370919Y-86758686D01*
X35660000Y-86758686D01*
X35660000Y-84183589D01*
X38097450Y-84183589D01*
X38164431Y-84896482D01*
X38369204Y-85582609D01*
X38703898Y-86215603D01*
X38722132Y-86242894D01*
X39191314Y-86579081D01*
X41570395Y-84200000D01*
X41929605Y-84200000D01*
X44308686Y-86579081D01*
X44777868Y-86242894D01*
X45118237Y-85612932D01*
X45329166Y-84928673D01*
X45402550Y-84216411D01*
X45378204Y-83957290D01*
X79350000Y-83957290D01*
X79350000Y-84582710D01*
X79472014Y-85196113D01*
X79711352Y-85773926D01*
X80058817Y-86293944D01*
X80501056Y-86736183D01*
X81021074Y-87083648D01*
X81598887Y-87322986D01*
X82212290Y-87445000D01*
X82837710Y-87445000D01*
X83451113Y-87322986D01*
X84028926Y-87083648D01*
X84548944Y-86736183D01*
X84991183Y-86293944D01*
X85338648Y-85773926D01*
X85577986Y-85196113D01*
X85700000Y-84582710D01*
X85700000Y-83957290D01*
X98300000Y-83957290D01*
X98300000Y-84582710D01*
X98422014Y-85196113D01*
X98661352Y-85773926D01*
X99008817Y-86293944D01*
X99451056Y-86736183D01*
X99971074Y-87083648D01*
X100548887Y-87322986D01*
X101162290Y-87445000D01*
X101787710Y-87445000D01*
X102401113Y-87322986D01*
X102458733Y-87299119D01*
X127478724Y-87299119D01*
X130000000Y-89820395D01*
X132521276Y-87299119D01*
X132161088Y-86809452D01*
X131497118Y-86449151D01*
X130775615Y-86225306D01*
X130024305Y-86146520D01*
X129272062Y-86215822D01*
X128547792Y-86430548D01*
X127879330Y-86782445D01*
X127838912Y-86809452D01*
X127478724Y-87299119D01*
X102458733Y-87299119D01*
X102978926Y-87083648D01*
X103498944Y-86736183D01*
X103941183Y-86293944D01*
X104288648Y-85773926D01*
X104527986Y-85196113D01*
X104650000Y-84582710D01*
X104650000Y-83957290D01*
X104527986Y-83343887D01*
X104288648Y-82766074D01*
X103941183Y-82246056D01*
X103498944Y-81803817D01*
X102978926Y-81456352D01*
X102401113Y-81217014D01*
X101787710Y-81095000D01*
X101162290Y-81095000D01*
X100548887Y-81217014D01*
X99971074Y-81456352D01*
X99451056Y-81803817D01*
X99008817Y-82246056D01*
X98661352Y-82766074D01*
X98422014Y-83343887D01*
X98300000Y-83957290D01*
X85700000Y-83957290D01*
X85577986Y-83343887D01*
X85338648Y-82766074D01*
X84991183Y-82246056D01*
X84548944Y-81803817D01*
X84028926Y-81456352D01*
X83451113Y-81217014D01*
X82837710Y-81095000D01*
X82212290Y-81095000D01*
X81598887Y-81217014D01*
X81021074Y-81456352D01*
X80501056Y-81803817D01*
X80058817Y-82246056D01*
X79711352Y-82766074D01*
X79472014Y-83343887D01*
X79350000Y-83957290D01*
X45378204Y-83957290D01*
X45335569Y-83503518D01*
X45130796Y-82817391D01*
X44796102Y-82184397D01*
X44777868Y-82157106D01*
X44308686Y-81820919D01*
X41929605Y-84200000D01*
X41570395Y-84200000D01*
X39191314Y-81820919D01*
X38722132Y-82157106D01*
X38381763Y-82787068D01*
X38170834Y-83471327D01*
X38097450Y-84183589D01*
X35660000Y-84183589D01*
X35660000Y-75500000D01*
X38111928Y-75500000D01*
X38111928Y-78500000D01*
X38153010Y-78917117D01*
X38274679Y-79318205D01*
X38472258Y-79687849D01*
X38738155Y-80011845D01*
X39062151Y-80277742D01*
X39431795Y-80475321D01*
X39832883Y-80596990D01*
X40250000Y-80638072D01*
X40974305Y-80638072D01*
X40367391Y-80819204D01*
X39734397Y-81153898D01*
X39707106Y-81172132D01*
X39370919Y-81641314D01*
X41750000Y-84020395D01*
X44129081Y-81641314D01*
X43792894Y-81172132D01*
X43162932Y-80831763D01*
X42534594Y-80638072D01*
X43250000Y-80638072D01*
X43667117Y-80596990D01*
X44068205Y-80475321D01*
X44437849Y-80277742D01*
X44761845Y-80011845D01*
X45027742Y-79687849D01*
X45225321Y-79318205D01*
X45346990Y-78917117D01*
X45388072Y-78500000D01*
X45388072Y-75500000D01*
X45346990Y-75082883D01*
X45225321Y-74681795D01*
X45027742Y-74312151D01*
X44810376Y-74047290D01*
X125765000Y-74047290D01*
X125765000Y-74672710D01*
X125887014Y-75286113D01*
X126126352Y-75863926D01*
X126473817Y-76383944D01*
X126916056Y-76826183D01*
X127436074Y-77173648D01*
X128013887Y-77412986D01*
X128627290Y-77535000D01*
X129252710Y-77535000D01*
X129866113Y-77412986D01*
X130443926Y-77173648D01*
X130963944Y-76826183D01*
X131406183Y-76383944D01*
X131753648Y-75863926D01*
X131992986Y-75286113D01*
X132115000Y-74672710D01*
X132115000Y-74047290D01*
X131992986Y-73433887D01*
X131753648Y-72856074D01*
X131406183Y-72336056D01*
X130963944Y-71893817D01*
X130443926Y-71546352D01*
X129866113Y-71307014D01*
X129252710Y-71185000D01*
X128627290Y-71185000D01*
X128013887Y-71307014D01*
X127436074Y-71546352D01*
X126916056Y-71893817D01*
X126473817Y-72336056D01*
X126126352Y-72856074D01*
X125887014Y-73433887D01*
X125765000Y-74047290D01*
X44810376Y-74047290D01*
X44761845Y-73988155D01*
X44437849Y-73722258D01*
X44068205Y-73524679D01*
X43667117Y-73403010D01*
X43250000Y-73361928D01*
X40250000Y-73361928D01*
X39832883Y-73403010D01*
X39431795Y-73524679D01*
X39062151Y-73722258D01*
X38738155Y-73988155D01*
X38472258Y-74312151D01*
X38274679Y-74681795D01*
X38153010Y-75082883D01*
X38111928Y-75500000D01*
X35660000Y-75500000D01*
X35660000Y-67978665D01*
X38305000Y-67978665D01*
X38305000Y-68261335D01*
X38360147Y-68538574D01*
X38468320Y-68799727D01*
X38625363Y-69034759D01*
X38825241Y-69234637D01*
X39060273Y-69391680D01*
X39321426Y-69499853D01*
X39598665Y-69555000D01*
X39881335Y-69555000D01*
X40158574Y-69499853D01*
X40419727Y-69391680D01*
X40654759Y-69234637D01*
X40854637Y-69034759D01*
X41010000Y-68802241D01*
X41165363Y-69034759D01*
X41365241Y-69234637D01*
X41600273Y-69391680D01*
X41861426Y-69499853D01*
X42138665Y-69555000D01*
X42421335Y-69555000D01*
X42603886Y-69518688D01*
X43096201Y-70011003D01*
X43119999Y-70040001D01*
X43235724Y-70134974D01*
X43367753Y-70205546D01*
X43511014Y-70249003D01*
X43622667Y-70260000D01*
X43622675Y-70260000D01*
X43660000Y-70263676D01*
X43697325Y-70260000D01*
X47862678Y-70260000D01*
X47900000Y-70263676D01*
X47937322Y-70260000D01*
X47937333Y-70260000D01*
X48048986Y-70249003D01*
X48192247Y-70205546D01*
X48324276Y-70134974D01*
X48440001Y-70040001D01*
X48463803Y-70010998D01*
X48476136Y-69998665D01*
X106045000Y-69998665D01*
X106045000Y-70281335D01*
X106100147Y-70558574D01*
X106208320Y-70819727D01*
X106365363Y-71054759D01*
X106565241Y-71254637D01*
X106800273Y-71411680D01*
X107061426Y-71519853D01*
X107338665Y-71575000D01*
X107621335Y-71575000D01*
X107898574Y-71519853D01*
X108159727Y-71411680D01*
X108394759Y-71254637D01*
X108594637Y-71054759D01*
X108751680Y-70819727D01*
X108859853Y-70558574D01*
X108915000Y-70281335D01*
X108915000Y-69998665D01*
X108859853Y-69721426D01*
X108751680Y-69460273D01*
X108594637Y-69225241D01*
X108394759Y-69025363D01*
X108160872Y-68869085D01*
X108221514Y-68836671D01*
X108293097Y-68592702D01*
X107480000Y-67779605D01*
X106666903Y-68592702D01*
X106738486Y-68836671D01*
X106802992Y-68867194D01*
X106800273Y-68868320D01*
X106565241Y-69025363D01*
X106365363Y-69225241D01*
X106208320Y-69460273D01*
X106100147Y-69721426D01*
X106045000Y-69998665D01*
X48476136Y-69998665D01*
X49138057Y-69336745D01*
X49220273Y-69391680D01*
X49481426Y-69499853D01*
X49758665Y-69555000D01*
X50041335Y-69555000D01*
X50318574Y-69499853D01*
X50579727Y-69391680D01*
X50814759Y-69234637D01*
X51014637Y-69034759D01*
X51170000Y-68802241D01*
X51325363Y-69034759D01*
X51525241Y-69234637D01*
X51760273Y-69391680D01*
X52021426Y-69499853D01*
X52298665Y-69555000D01*
X52581335Y-69555000D01*
X52858574Y-69499853D01*
X53119727Y-69391680D01*
X53354759Y-69234637D01*
X53554637Y-69034759D01*
X53710000Y-68802241D01*
X53865363Y-69034759D01*
X54065241Y-69234637D01*
X54300273Y-69391680D01*
X54561426Y-69499853D01*
X54838665Y-69555000D01*
X55121335Y-69555000D01*
X55398574Y-69499853D01*
X55659727Y-69391680D01*
X55894759Y-69234637D01*
X56094637Y-69034759D01*
X56250000Y-68802241D01*
X56405363Y-69034759D01*
X56605241Y-69234637D01*
X56840273Y-69391680D01*
X57101426Y-69499853D01*
X57378665Y-69555000D01*
X57661335Y-69555000D01*
X57938574Y-69499853D01*
X58199727Y-69391680D01*
X58434759Y-69234637D01*
X58634637Y-69034759D01*
X58790000Y-68802241D01*
X58945363Y-69034759D01*
X59145241Y-69234637D01*
X59380273Y-69391680D01*
X59641426Y-69499853D01*
X59918665Y-69555000D01*
X60201335Y-69555000D01*
X60478574Y-69499853D01*
X60739727Y-69391680D01*
X60974759Y-69234637D01*
X61174637Y-69034759D01*
X61330000Y-68802241D01*
X61485363Y-69034759D01*
X61685241Y-69234637D01*
X61920273Y-69391680D01*
X62181426Y-69499853D01*
X62458665Y-69555000D01*
X62741335Y-69555000D01*
X63018574Y-69499853D01*
X63279727Y-69391680D01*
X63514759Y-69234637D01*
X63714637Y-69034759D01*
X63870000Y-68802241D01*
X64025363Y-69034759D01*
X64225241Y-69234637D01*
X64460273Y-69391680D01*
X64721426Y-69499853D01*
X64998665Y-69555000D01*
X65281335Y-69555000D01*
X65558574Y-69499853D01*
X65819727Y-69391680D01*
X66054759Y-69234637D01*
X66254637Y-69034759D01*
X66410000Y-68802241D01*
X66565363Y-69034759D01*
X66765241Y-69234637D01*
X67000273Y-69391680D01*
X67261426Y-69499853D01*
X67538665Y-69555000D01*
X67821335Y-69555000D01*
X68098574Y-69499853D01*
X68359727Y-69391680D01*
X68594759Y-69234637D01*
X68794637Y-69034759D01*
X68950000Y-68802241D01*
X69105363Y-69034759D01*
X69305241Y-69234637D01*
X69540273Y-69391680D01*
X69801426Y-69499853D01*
X70078665Y-69555000D01*
X70361335Y-69555000D01*
X70638574Y-69499853D01*
X70899727Y-69391680D01*
X71134759Y-69234637D01*
X71334637Y-69034759D01*
X71490000Y-68802241D01*
X71645363Y-69034759D01*
X71845241Y-69234637D01*
X72080273Y-69391680D01*
X72341426Y-69499853D01*
X72618665Y-69555000D01*
X72901335Y-69555000D01*
X73178574Y-69499853D01*
X73439727Y-69391680D01*
X73674759Y-69234637D01*
X73874637Y-69034759D01*
X73976687Y-68882029D01*
X88637576Y-68882029D01*
X88901740Y-69289755D01*
X89429661Y-69570317D01*
X90002173Y-69742496D01*
X90597275Y-69799676D01*
X91192098Y-69739658D01*
X91763782Y-69564750D01*
X92278260Y-69289755D01*
X92542424Y-68882029D01*
X90590000Y-66929605D01*
X88637576Y-68882029D01*
X73976687Y-68882029D01*
X74031680Y-68799727D01*
X74139853Y-68538574D01*
X74195000Y-68261335D01*
X74195000Y-67978665D01*
X74139853Y-67701426D01*
X74031680Y-67440273D01*
X73874637Y-67205241D01*
X73674759Y-67005363D01*
X73442241Y-66850000D01*
X73674759Y-66694637D01*
X73874637Y-66494759D01*
X74031680Y-66259727D01*
X74139853Y-65998574D01*
X74195000Y-65721335D01*
X74195000Y-65438665D01*
X74139853Y-65161426D01*
X74041923Y-64925001D01*
X88261296Y-64925001D01*
X88050245Y-65061740D01*
X87769683Y-65589661D01*
X87597504Y-66162173D01*
X87540324Y-66757275D01*
X87600342Y-67352098D01*
X87775250Y-67923782D01*
X88050245Y-68438260D01*
X88457971Y-68702424D01*
X90410395Y-66750000D01*
X90769605Y-66750000D01*
X92722029Y-68702424D01*
X93129755Y-68438260D01*
X93410317Y-67910339D01*
X93482443Y-67670512D01*
X106039783Y-67670512D01*
X106081213Y-67950130D01*
X106176397Y-68216292D01*
X106243329Y-68341514D01*
X106487298Y-68413097D01*
X107300395Y-67600000D01*
X107659605Y-67600000D01*
X108472702Y-68413097D01*
X108716671Y-68341514D01*
X108837571Y-68086004D01*
X108906300Y-67811816D01*
X108920217Y-67529488D01*
X108878787Y-67249870D01*
X108783603Y-66983708D01*
X108716671Y-66858486D01*
X108472702Y-66786903D01*
X107659605Y-67600000D01*
X107300395Y-67600000D01*
X106487298Y-66786903D01*
X106243329Y-66858486D01*
X106122429Y-67113996D01*
X106053700Y-67388184D01*
X106039783Y-67670512D01*
X93482443Y-67670512D01*
X93582496Y-67337827D01*
X93639676Y-66742725D01*
X93579658Y-66147902D01*
X93404750Y-65576218D01*
X93129755Y-65061740D01*
X92722029Y-64797576D01*
X90769605Y-66750000D01*
X90410395Y-66750000D01*
X90396253Y-66735858D01*
X90575858Y-66556253D01*
X90590000Y-66570395D01*
X92542424Y-64617971D01*
X92472470Y-64510000D01*
X105855199Y-64510000D01*
X106081312Y-64736114D01*
X106045000Y-64918665D01*
X106045000Y-65201335D01*
X106100147Y-65478574D01*
X106208320Y-65739727D01*
X106365363Y-65974759D01*
X106565241Y-66174637D01*
X106799128Y-66330915D01*
X106738486Y-66363329D01*
X106666903Y-66607298D01*
X107480000Y-67420395D01*
X108293097Y-66607298D01*
X108221514Y-66363329D01*
X108157008Y-66332806D01*
X108159727Y-66331680D01*
X108394759Y-66174637D01*
X108594637Y-65974759D01*
X108751680Y-65739727D01*
X108859853Y-65478574D01*
X108915000Y-65201335D01*
X108915000Y-64918665D01*
X108859853Y-64641426D01*
X108751680Y-64380273D01*
X108594637Y-64145241D01*
X108394759Y-63945363D01*
X108162241Y-63790000D01*
X108394759Y-63634637D01*
X108594637Y-63434759D01*
X108751680Y-63199727D01*
X108859853Y-62938574D01*
X108915000Y-62661335D01*
X108915000Y-62378665D01*
X108859853Y-62101426D01*
X108751680Y-61840273D01*
X108594637Y-61605241D01*
X108394759Y-61405363D01*
X108162241Y-61250000D01*
X108394759Y-61094637D01*
X108594637Y-60894759D01*
X108751680Y-60659727D01*
X108859853Y-60398574D01*
X108915000Y-60121335D01*
X108915000Y-59838665D01*
X108859853Y-59561426D01*
X108751680Y-59300273D01*
X108594637Y-59065241D01*
X108394759Y-58865363D01*
X108159727Y-58708320D01*
X107898574Y-58600147D01*
X107621335Y-58545000D01*
X107338665Y-58545000D01*
X107061426Y-58600147D01*
X106800273Y-58708320D01*
X106565241Y-58865363D01*
X106365363Y-59065241D01*
X106208320Y-59300273D01*
X106100147Y-59561426D01*
X106045000Y-59838665D01*
X106045000Y-60121335D01*
X106100147Y-60398574D01*
X106208320Y-60659727D01*
X106365363Y-60894759D01*
X106565241Y-61094637D01*
X106655579Y-61154999D01*
X103840128Y-61154999D01*
X104041183Y-60953944D01*
X104388648Y-60433926D01*
X104627986Y-59856113D01*
X104750000Y-59242710D01*
X104750000Y-58617290D01*
X104627986Y-58003887D01*
X104388648Y-57426074D01*
X104041183Y-56906056D01*
X103598944Y-56463817D01*
X103078926Y-56116352D01*
X102513221Y-55882029D01*
X125827576Y-55882029D01*
X126091740Y-56289755D01*
X126619661Y-56570317D01*
X127192173Y-56742496D01*
X127787275Y-56799676D01*
X128382098Y-56739658D01*
X128953782Y-56564750D01*
X129468260Y-56289755D01*
X129732424Y-55882029D01*
X127780000Y-53929605D01*
X125827576Y-55882029D01*
X102513221Y-55882029D01*
X102501113Y-55877014D01*
X101887710Y-55755000D01*
X101719801Y-55755000D01*
X103717526Y-53757275D01*
X124730324Y-53757275D01*
X124790342Y-54352098D01*
X124965250Y-54923782D01*
X125240245Y-55438260D01*
X125647971Y-55702424D01*
X127600395Y-53750000D01*
X127959605Y-53750000D01*
X129912029Y-55702424D01*
X130319755Y-55438260D01*
X130600317Y-54910339D01*
X130772496Y-54337827D01*
X130829676Y-53742725D01*
X130769658Y-53147902D01*
X130594750Y-52576218D01*
X130319755Y-52061740D01*
X129912029Y-51797576D01*
X127959605Y-53750000D01*
X127600395Y-53750000D01*
X125647971Y-51797576D01*
X125240245Y-52061740D01*
X124959683Y-52589661D01*
X124787504Y-53162173D01*
X124730324Y-53757275D01*
X103717526Y-53757275D01*
X105856830Y-51617971D01*
X125827576Y-51617971D01*
X127780000Y-53570395D01*
X129732424Y-51617971D01*
X129468260Y-51210245D01*
X128940339Y-50929683D01*
X128367827Y-50757504D01*
X127772725Y-50700324D01*
X127177902Y-50760342D01*
X126606218Y-50935250D01*
X126091740Y-51210245D01*
X125827576Y-51617971D01*
X105856830Y-51617971D01*
X110841003Y-46633799D01*
X110870001Y-46610001D01*
X110964974Y-46494276D01*
X111035546Y-46362247D01*
X111079003Y-46218986D01*
X111090000Y-46107333D01*
X111093677Y-46070000D01*
X111090000Y-46032667D01*
X111090000Y-45318178D01*
X111276632Y-45193475D01*
X111483475Y-44986632D01*
X111600000Y-44812240D01*
X111716525Y-44986632D01*
X111923368Y-45193475D01*
X112166589Y-45355990D01*
X112436842Y-45467932D01*
X112723740Y-45525000D01*
X113016260Y-45525000D01*
X113303158Y-45467932D01*
X113573411Y-45355990D01*
X113816632Y-45193475D01*
X114023475Y-44986632D01*
X114140000Y-44812240D01*
X114256525Y-44986632D01*
X114463368Y-45193475D01*
X114706589Y-45355990D01*
X114976842Y-45467932D01*
X115263740Y-45525000D01*
X115556260Y-45525000D01*
X115843158Y-45467932D01*
X116113411Y-45355990D01*
X116356632Y-45193475D01*
X116563475Y-44986632D01*
X116680000Y-44812240D01*
X116796525Y-44986632D01*
X117003368Y-45193475D01*
X117246589Y-45355990D01*
X117516842Y-45467932D01*
X117803740Y-45525000D01*
X118096260Y-45525000D01*
X118383158Y-45467932D01*
X118653411Y-45355990D01*
X118896632Y-45193475D01*
X119103475Y-44986632D01*
X119265990Y-44743411D01*
X119377932Y-44473158D01*
X119435000Y-44186260D01*
X119435000Y-43893740D01*
X119377932Y-43606842D01*
X119265990Y-43336589D01*
X119103475Y-43093368D01*
X118896632Y-42886525D01*
X118722240Y-42770000D01*
X118896632Y-42653475D01*
X119103475Y-42446632D01*
X119265990Y-42203411D01*
X119377932Y-41933158D01*
X119435000Y-41646260D01*
X119435000Y-41353740D01*
X119377932Y-41066842D01*
X119265990Y-40796589D01*
X119103475Y-40553368D01*
X118896632Y-40346525D01*
X118653411Y-40184010D01*
X118383158Y-40072068D01*
X118096260Y-40015000D01*
X117803740Y-40015000D01*
X117516842Y-40072068D01*
X117246589Y-40184010D01*
X117003368Y-40346525D01*
X116796525Y-40553368D01*
X116680000Y-40727760D01*
X116563475Y-40553368D01*
X116356632Y-40346525D01*
X116113411Y-40184010D01*
X115843158Y-40072068D01*
X115556260Y-40015000D01*
X115263740Y-40015000D01*
X114976842Y-40072068D01*
X114706589Y-40184010D01*
X114463368Y-40346525D01*
X114256525Y-40553368D01*
X114140000Y-40727760D01*
X114023475Y-40553368D01*
X113816632Y-40346525D01*
X113573411Y-40184010D01*
X113303158Y-40072068D01*
X113016260Y-40015000D01*
X112723740Y-40015000D01*
X112436842Y-40072068D01*
X112166589Y-40184010D01*
X111923368Y-40346525D01*
X111716525Y-40553368D01*
X111600000Y-40727760D01*
X111483475Y-40553368D01*
X111276632Y-40346525D01*
X111033411Y-40184010D01*
X110763158Y-40072068D01*
X110476260Y-40015000D01*
X110183740Y-40015000D01*
X109896842Y-40072068D01*
X109626589Y-40184010D01*
X109383368Y-40346525D01*
X109176525Y-40553368D01*
X109060000Y-40727760D01*
X108943475Y-40553368D01*
X108736632Y-40346525D01*
X108493411Y-40184010D01*
X108223158Y-40072068D01*
X107936260Y-40015000D01*
X107643740Y-40015000D01*
X107356842Y-40072068D01*
X107086589Y-40184010D01*
X106843368Y-40346525D01*
X106636525Y-40553368D01*
X106520000Y-40727760D01*
X106403475Y-40553368D01*
X106196632Y-40346525D01*
X105953411Y-40184010D01*
X105683158Y-40072068D01*
X105396260Y-40015000D01*
X105103740Y-40015000D01*
X104816842Y-40072068D01*
X104546589Y-40184010D01*
X104303368Y-40346525D01*
X104096525Y-40553368D01*
X103980000Y-40727760D01*
X103863475Y-40553368D01*
X103656632Y-40346525D01*
X103413411Y-40184010D01*
X103143158Y-40072068D01*
X102856260Y-40015000D01*
X102563740Y-40015000D01*
X102276842Y-40072068D01*
X102006589Y-40184010D01*
X101763368Y-40346525D01*
X101556525Y-40553368D01*
X101440000Y-40727760D01*
X101323475Y-40553368D01*
X101116632Y-40346525D01*
X100873411Y-40184010D01*
X100603158Y-40072068D01*
X100316260Y-40015000D01*
X100023740Y-40015000D01*
X99736842Y-40072068D01*
X99466589Y-40184010D01*
X99223368Y-40346525D01*
X99016525Y-40553368D01*
X98854010Y-40796589D01*
X98742068Y-41066842D01*
X98685000Y-41353740D01*
X98685000Y-41646260D01*
X98742068Y-41933158D01*
X98854010Y-42203411D01*
X99016525Y-42446632D01*
X99223368Y-42653475D01*
X99399406Y-42771100D01*
X99169731Y-42942412D01*
X98974822Y-43158645D01*
X98825843Y-43408748D01*
X98728519Y-43683109D01*
X98849186Y-43913000D01*
X100043000Y-43913000D01*
X100043000Y-43893000D01*
X100297000Y-43893000D01*
X100297000Y-43913000D01*
X100317000Y-43913000D01*
X100317000Y-44167000D01*
X100297000Y-44167000D01*
X100297000Y-45360155D01*
X100526890Y-45481476D01*
X100674099Y-45436825D01*
X100936920Y-45311641D01*
X101170269Y-45137588D01*
X101365178Y-44921355D01*
X101434805Y-44804466D01*
X101556525Y-44986632D01*
X101763368Y-45193475D01*
X102006589Y-45355990D01*
X102276842Y-45467932D01*
X102563740Y-45525000D01*
X102856260Y-45525000D01*
X103143158Y-45467932D01*
X103413411Y-45355990D01*
X103656632Y-45193475D01*
X103863475Y-44986632D01*
X103980000Y-44812240D01*
X104096525Y-44986632D01*
X104303368Y-45193475D01*
X104546589Y-45355990D01*
X104816842Y-45467932D01*
X105103740Y-45525000D01*
X105230198Y-45525000D01*
X99815199Y-50940000D01*
X75837333Y-50940000D01*
X75800000Y-50936323D01*
X75762667Y-50940000D01*
X75651014Y-50950997D01*
X75507753Y-50994454D01*
X75375724Y-51065026D01*
X75259999Y-51159999D01*
X75236201Y-51188997D01*
X74088280Y-52336918D01*
X74031680Y-52200273D01*
X73874637Y-51965241D01*
X73674759Y-51765363D01*
X73439727Y-51608320D01*
X73178574Y-51500147D01*
X72901335Y-51445000D01*
X72618665Y-51445000D01*
X72341426Y-51500147D01*
X72080273Y-51608320D01*
X71845241Y-51765363D01*
X71645363Y-51965241D01*
X71490000Y-52197759D01*
X71334637Y-51965241D01*
X71134759Y-51765363D01*
X70899727Y-51608320D01*
X70638574Y-51500147D01*
X70361335Y-51445000D01*
X70078665Y-51445000D01*
X69801426Y-51500147D01*
X69540273Y-51608320D01*
X69305241Y-51765363D01*
X69105363Y-51965241D01*
X68950000Y-52197759D01*
X68794637Y-51965241D01*
X68594759Y-51765363D01*
X68359727Y-51608320D01*
X68098574Y-51500147D01*
X67821335Y-51445000D01*
X67538665Y-51445000D01*
X67261426Y-51500147D01*
X67000273Y-51608320D01*
X66765241Y-51765363D01*
X66565363Y-51965241D01*
X66410000Y-52197759D01*
X66254637Y-51965241D01*
X66054759Y-51765363D01*
X65819727Y-51608320D01*
X65558574Y-51500147D01*
X65281335Y-51445000D01*
X64998665Y-51445000D01*
X64721426Y-51500147D01*
X64460273Y-51608320D01*
X64225241Y-51765363D01*
X64025363Y-51965241D01*
X63870000Y-52197759D01*
X63714637Y-51965241D01*
X63514759Y-51765363D01*
X63279727Y-51608320D01*
X63018574Y-51500147D01*
X62741335Y-51445000D01*
X62458665Y-51445000D01*
X62181426Y-51500147D01*
X61920273Y-51608320D01*
X61685241Y-51765363D01*
X61485363Y-51965241D01*
X61330000Y-52197759D01*
X61244701Y-52070100D01*
X63732099Y-49582702D01*
X67916903Y-49582702D01*
X67988486Y-49826671D01*
X68243996Y-49947571D01*
X68518184Y-50016300D01*
X68800512Y-50030217D01*
X69080130Y-49988787D01*
X69346292Y-49893603D01*
X69471514Y-49826671D01*
X69543097Y-49582702D01*
X68730000Y-48769605D01*
X67916903Y-49582702D01*
X63732099Y-49582702D01*
X64654289Y-48660512D01*
X67289783Y-48660512D01*
X67331213Y-48940130D01*
X67426397Y-49206292D01*
X67493329Y-49331514D01*
X67737298Y-49403097D01*
X68550395Y-48590000D01*
X68909605Y-48590000D01*
X69722702Y-49403097D01*
X69966671Y-49331514D01*
X70087571Y-49076004D01*
X70156300Y-48801816D01*
X70170217Y-48519488D01*
X70167132Y-48498665D01*
X72725000Y-48498665D01*
X72725000Y-48781335D01*
X72780147Y-49058574D01*
X72888320Y-49319727D01*
X73045363Y-49554759D01*
X73245241Y-49754637D01*
X73480273Y-49911680D01*
X73741426Y-50019853D01*
X74018665Y-50075000D01*
X74301335Y-50075000D01*
X74578574Y-50019853D01*
X74839727Y-49911680D01*
X75074759Y-49754637D01*
X75274637Y-49554759D01*
X75430000Y-49322241D01*
X75585363Y-49554759D01*
X75785241Y-49754637D01*
X76020273Y-49911680D01*
X76281426Y-50019853D01*
X76558665Y-50075000D01*
X76841335Y-50075000D01*
X77118574Y-50019853D01*
X77379727Y-49911680D01*
X77614759Y-49754637D01*
X77814637Y-49554759D01*
X77970000Y-49322241D01*
X78125363Y-49554759D01*
X78325241Y-49754637D01*
X78560273Y-49911680D01*
X78821426Y-50019853D01*
X79098665Y-50075000D01*
X79381335Y-50075000D01*
X79658574Y-50019853D01*
X79919727Y-49911680D01*
X80154759Y-49754637D01*
X80354637Y-49554759D01*
X80511680Y-49319727D01*
X80619853Y-49058574D01*
X80675000Y-48781335D01*
X80675000Y-48498665D01*
X80619853Y-48221426D01*
X80511680Y-47960273D01*
X80354637Y-47725241D01*
X80154759Y-47525363D01*
X79919727Y-47368320D01*
X79658574Y-47260147D01*
X79381335Y-47205000D01*
X79098665Y-47205000D01*
X78821426Y-47260147D01*
X78560273Y-47368320D01*
X78325241Y-47525363D01*
X78125363Y-47725241D01*
X77970000Y-47957759D01*
X77814637Y-47725241D01*
X77614759Y-47525363D01*
X77379727Y-47368320D01*
X77118574Y-47260147D01*
X76841335Y-47205000D01*
X76558665Y-47205000D01*
X76281426Y-47260147D01*
X76020273Y-47368320D01*
X75785241Y-47525363D01*
X75585363Y-47725241D01*
X75430000Y-47957759D01*
X75274637Y-47725241D01*
X75074759Y-47525363D01*
X74839727Y-47368320D01*
X74578574Y-47260147D01*
X74301335Y-47205000D01*
X74018665Y-47205000D01*
X73741426Y-47260147D01*
X73480273Y-47368320D01*
X73245241Y-47525363D01*
X73045363Y-47725241D01*
X72888320Y-47960273D01*
X72780147Y-48221426D01*
X72725000Y-48498665D01*
X70167132Y-48498665D01*
X70128787Y-48239870D01*
X70033603Y-47973708D01*
X69966671Y-47848486D01*
X69722702Y-47776903D01*
X68909605Y-48590000D01*
X68550395Y-48590000D01*
X67737298Y-47776903D01*
X67493329Y-47848486D01*
X67372429Y-48103996D01*
X67303700Y-48378184D01*
X67289783Y-48660512D01*
X64654289Y-48660512D01*
X67295000Y-46019802D01*
X67295000Y-46191335D01*
X67350147Y-46468574D01*
X67458320Y-46729727D01*
X67615363Y-46964759D01*
X67815241Y-47164637D01*
X68049128Y-47320915D01*
X67988486Y-47353329D01*
X67916903Y-47597298D01*
X68730000Y-48410395D01*
X69543097Y-47597298D01*
X69471514Y-47353329D01*
X69407008Y-47322806D01*
X69409727Y-47321680D01*
X69644759Y-47164637D01*
X69844637Y-46964759D01*
X70001680Y-46729727D01*
X70109853Y-46468574D01*
X70165000Y-46191335D01*
X70165000Y-45908665D01*
X70109853Y-45631426D01*
X70001680Y-45370273D01*
X69844637Y-45135241D01*
X69644759Y-44935363D01*
X69412241Y-44780000D01*
X69644759Y-44624637D01*
X69844637Y-44424759D01*
X70001680Y-44189727D01*
X70109853Y-43928574D01*
X70165000Y-43651335D01*
X70165000Y-43368665D01*
X70109853Y-43091426D01*
X70001680Y-42830273D01*
X69844637Y-42595241D01*
X69644759Y-42395363D01*
X69412241Y-42240000D01*
X69644759Y-42084637D01*
X69844637Y-41884759D01*
X70001680Y-41649727D01*
X70109853Y-41388574D01*
X70165000Y-41111335D01*
X70165000Y-40828665D01*
X83235000Y-40828665D01*
X83235000Y-41111335D01*
X83290147Y-41388574D01*
X83398320Y-41649727D01*
X83555363Y-41884759D01*
X83755241Y-42084637D01*
X83987759Y-42240000D01*
X83755241Y-42395363D01*
X83555363Y-42595241D01*
X83398320Y-42830273D01*
X83290147Y-43091426D01*
X83235000Y-43368665D01*
X83235000Y-43651335D01*
X83290147Y-43928574D01*
X83398320Y-44189727D01*
X83555363Y-44424759D01*
X83755241Y-44624637D01*
X83987759Y-44780000D01*
X83755241Y-44935363D01*
X83555363Y-45135241D01*
X83398320Y-45370273D01*
X83290147Y-45631426D01*
X83235000Y-45908665D01*
X83235000Y-46191335D01*
X83290147Y-46468574D01*
X83398320Y-46729727D01*
X83555363Y-46964759D01*
X83755241Y-47164637D01*
X83987759Y-47320000D01*
X83755241Y-47475363D01*
X83555363Y-47675241D01*
X83398320Y-47910273D01*
X83290147Y-48171426D01*
X83235000Y-48448665D01*
X83235000Y-48731335D01*
X83290147Y-49008574D01*
X83398320Y-49269727D01*
X83555363Y-49504759D01*
X83755241Y-49704637D01*
X83990273Y-49861680D01*
X84251426Y-49969853D01*
X84528665Y-50025000D01*
X84811335Y-50025000D01*
X85088574Y-49969853D01*
X85349727Y-49861680D01*
X85584759Y-49704637D01*
X85784637Y-49504759D01*
X85941680Y-49269727D01*
X86049853Y-49008574D01*
X86105000Y-48731335D01*
X86105000Y-48448665D01*
X86049853Y-48171426D01*
X85941680Y-47910273D01*
X85784637Y-47675241D01*
X85584759Y-47475363D01*
X85352241Y-47320000D01*
X85584759Y-47164637D01*
X85784637Y-46964759D01*
X85941680Y-46729727D01*
X86049853Y-46468574D01*
X86105000Y-46191335D01*
X86105000Y-45908665D01*
X86049853Y-45631426D01*
X85941680Y-45370273D01*
X85784637Y-45135241D01*
X85584759Y-44935363D01*
X85352241Y-44780000D01*
X85584759Y-44624637D01*
X85784637Y-44424759D01*
X85803257Y-44396891D01*
X98728519Y-44396891D01*
X98825843Y-44671252D01*
X98974822Y-44921355D01*
X99169731Y-45137588D01*
X99403080Y-45311641D01*
X99665901Y-45436825D01*
X99813110Y-45481476D01*
X100043000Y-45360155D01*
X100043000Y-44167000D01*
X98849186Y-44167000D01*
X98728519Y-44396891D01*
X85803257Y-44396891D01*
X85941680Y-44189727D01*
X86049853Y-43928574D01*
X86105000Y-43651335D01*
X86105000Y-43368665D01*
X86049853Y-43091426D01*
X85963119Y-42882029D01*
X88637576Y-42882029D01*
X88901740Y-43289755D01*
X89429661Y-43570317D01*
X90002173Y-43742496D01*
X90597275Y-43799676D01*
X91192098Y-43739658D01*
X91763782Y-43564750D01*
X92278260Y-43289755D01*
X92542424Y-42882029D01*
X90590000Y-40929605D01*
X88637576Y-42882029D01*
X85963119Y-42882029D01*
X85941680Y-42830273D01*
X85784637Y-42595241D01*
X85584759Y-42395363D01*
X85352241Y-42240000D01*
X85584759Y-42084637D01*
X85784637Y-41884759D01*
X85941680Y-41649727D01*
X86049853Y-41388574D01*
X86105000Y-41111335D01*
X86105000Y-40828665D01*
X86090800Y-40757275D01*
X87540324Y-40757275D01*
X87600342Y-41352098D01*
X87775250Y-41923782D01*
X88050245Y-42438260D01*
X88457971Y-42702424D01*
X90410395Y-40750000D01*
X90769605Y-40750000D01*
X92722029Y-42702424D01*
X93129755Y-42438260D01*
X93410317Y-41910339D01*
X93582496Y-41337827D01*
X93639676Y-40742725D01*
X93579658Y-40147902D01*
X93404750Y-39576218D01*
X93129755Y-39061740D01*
X92722029Y-38797576D01*
X90769605Y-40750000D01*
X90410395Y-40750000D01*
X88457971Y-38797576D01*
X88050245Y-39061740D01*
X87769683Y-39589661D01*
X87597504Y-40162173D01*
X87540324Y-40757275D01*
X86090800Y-40757275D01*
X86049853Y-40551426D01*
X85941680Y-40290273D01*
X85784637Y-40055241D01*
X85584759Y-39855363D01*
X85349727Y-39698320D01*
X85088574Y-39590147D01*
X84811335Y-39535000D01*
X84528665Y-39535000D01*
X84251426Y-39590147D01*
X83990273Y-39698320D01*
X83755241Y-39855363D01*
X83555363Y-40055241D01*
X83398320Y-40290273D01*
X83290147Y-40551426D01*
X83235000Y-40828665D01*
X70165000Y-40828665D01*
X70109853Y-40551426D01*
X70001680Y-40290273D01*
X69844637Y-40055241D01*
X69644759Y-39855363D01*
X69409727Y-39698320D01*
X69148574Y-39590147D01*
X68871335Y-39535000D01*
X68588665Y-39535000D01*
X68311426Y-39590147D01*
X68050273Y-39698320D01*
X67815241Y-39855363D01*
X67615363Y-40055241D01*
X67458320Y-40290273D01*
X67350147Y-40551426D01*
X67295000Y-40828665D01*
X67295000Y-41111335D01*
X67331312Y-41293886D01*
X57130918Y-51494281D01*
X57101426Y-51500147D01*
X56840273Y-51608320D01*
X56605241Y-51765363D01*
X56405363Y-51965241D01*
X56250000Y-52197759D01*
X56094637Y-51965241D01*
X55894759Y-51765363D01*
X55659727Y-51608320D01*
X55398574Y-51500147D01*
X55121335Y-51445000D01*
X54838665Y-51445000D01*
X54561426Y-51500147D01*
X54300273Y-51608320D01*
X54065241Y-51765363D01*
X53865363Y-51965241D01*
X53710000Y-52197759D01*
X53554637Y-51965241D01*
X53354759Y-51765363D01*
X53119727Y-51608320D01*
X52858574Y-51500147D01*
X52581335Y-51445000D01*
X52298665Y-51445000D01*
X52021426Y-51500147D01*
X51760273Y-51608320D01*
X51525241Y-51765363D01*
X51325363Y-51965241D01*
X51170000Y-52197759D01*
X51014637Y-51965241D01*
X50814759Y-51765363D01*
X50579727Y-51608320D01*
X50318574Y-51500147D01*
X50041335Y-51445000D01*
X49758665Y-51445000D01*
X49481426Y-51500147D01*
X49220273Y-51608320D01*
X48985241Y-51765363D01*
X48785363Y-51965241D01*
X48630000Y-52197759D01*
X48474637Y-51965241D01*
X48274759Y-51765363D01*
X48039727Y-51608320D01*
X47778574Y-51500147D01*
X47501335Y-51445000D01*
X47218665Y-51445000D01*
X46941426Y-51500147D01*
X46680273Y-51608320D01*
X46445241Y-51765363D01*
X46245363Y-51965241D01*
X46090000Y-52197759D01*
X45934637Y-51965241D01*
X45734759Y-51765363D01*
X45499727Y-51608320D01*
X45238574Y-51500147D01*
X44961335Y-51445000D01*
X44678665Y-51445000D01*
X44401426Y-51500147D01*
X44140273Y-51608320D01*
X43905241Y-51765363D01*
X43705363Y-51965241D01*
X43549085Y-52199128D01*
X43516671Y-52138486D01*
X43272702Y-52066903D01*
X42459605Y-52880000D01*
X43272702Y-53693097D01*
X43516671Y-53621514D01*
X43547194Y-53557008D01*
X43548320Y-53559727D01*
X43705363Y-53794759D01*
X43905241Y-53994637D01*
X44140273Y-54151680D01*
X44401426Y-54259853D01*
X44678665Y-54315000D01*
X44961335Y-54315000D01*
X45238574Y-54259853D01*
X45499727Y-54151680D01*
X45734759Y-53994637D01*
X45934637Y-53794759D01*
X46090000Y-53562241D01*
X46245363Y-53794759D01*
X46445241Y-53994637D01*
X46680273Y-54151680D01*
X46941426Y-54259853D01*
X47218665Y-54315000D01*
X47501335Y-54315000D01*
X47778574Y-54259853D01*
X48039727Y-54151680D01*
X48274759Y-53994637D01*
X48474637Y-53794759D01*
X48630000Y-53562241D01*
X48785363Y-53794759D01*
X48985241Y-53994637D01*
X49220273Y-54151680D01*
X49481426Y-54259853D01*
X49758665Y-54315000D01*
X50041335Y-54315000D01*
X50318574Y-54259853D01*
X50579727Y-54151680D01*
X50814759Y-53994637D01*
X51014637Y-53794759D01*
X51170000Y-53562241D01*
X51325363Y-53794759D01*
X51525241Y-53994637D01*
X51760273Y-54151680D01*
X52021426Y-54259853D01*
X52298665Y-54315000D01*
X52581335Y-54315000D01*
X52858574Y-54259853D01*
X53119727Y-54151680D01*
X53354759Y-53994637D01*
X53554637Y-53794759D01*
X53710000Y-53562241D01*
X53865363Y-53794759D01*
X54065241Y-53994637D01*
X54300273Y-54151680D01*
X54561426Y-54259853D01*
X54838665Y-54315000D01*
X55121335Y-54315000D01*
X55398574Y-54259853D01*
X55659727Y-54151680D01*
X55894759Y-53994637D01*
X56094637Y-53794759D01*
X56250000Y-53562241D01*
X56405363Y-53794759D01*
X56605241Y-53994637D01*
X56840273Y-54151680D01*
X57101426Y-54259853D01*
X57378665Y-54315000D01*
X57550198Y-54315000D01*
X45143887Y-66721312D01*
X44961335Y-66685000D01*
X44678665Y-66685000D01*
X44401426Y-66740147D01*
X44140273Y-66848320D01*
X43905241Y-67005363D01*
X43705363Y-67205241D01*
X43550000Y-67437759D01*
X43394637Y-67205241D01*
X43194759Y-67005363D01*
X42959727Y-66848320D01*
X42698574Y-66740147D01*
X42421335Y-66685000D01*
X42138665Y-66685000D01*
X41861426Y-66740147D01*
X41600273Y-66848320D01*
X41365241Y-67005363D01*
X41165363Y-67205241D01*
X41010000Y-67437759D01*
X40854637Y-67205241D01*
X40654759Y-67005363D01*
X40419727Y-66848320D01*
X40158574Y-66740147D01*
X39881335Y-66685000D01*
X39598665Y-66685000D01*
X39321426Y-66740147D01*
X39060273Y-66848320D01*
X38825241Y-67005363D01*
X38625363Y-67205241D01*
X38468320Y-67440273D01*
X38360147Y-67701426D01*
X38305000Y-67978665D01*
X35660000Y-67978665D01*
X35660000Y-55278665D01*
X40845000Y-55278665D01*
X40845000Y-55561335D01*
X40900147Y-55838574D01*
X41008320Y-56099727D01*
X41165363Y-56334759D01*
X41365241Y-56534637D01*
X41600273Y-56691680D01*
X41861426Y-56799853D01*
X42138665Y-56855000D01*
X42421335Y-56855000D01*
X42698574Y-56799853D01*
X42959727Y-56691680D01*
X43194759Y-56534637D01*
X43394637Y-56334759D01*
X43551680Y-56099727D01*
X43659853Y-55838574D01*
X43715000Y-55561335D01*
X43715000Y-55278665D01*
X43659853Y-55001426D01*
X43551680Y-54740273D01*
X43394637Y-54505241D01*
X43194759Y-54305363D01*
X42960872Y-54149085D01*
X43021514Y-54116671D01*
X43093097Y-53872702D01*
X42280000Y-53059605D01*
X41466903Y-53872702D01*
X41538486Y-54116671D01*
X41602992Y-54147194D01*
X41600273Y-54148320D01*
X41365241Y-54305363D01*
X41165363Y-54505241D01*
X41008320Y-54740273D01*
X40900147Y-55001426D01*
X40845000Y-55278665D01*
X35660000Y-55278665D01*
X35660000Y-52738665D01*
X38305000Y-52738665D01*
X38305000Y-53021335D01*
X38360147Y-53298574D01*
X38468320Y-53559727D01*
X38625363Y-53794759D01*
X38825241Y-53994637D01*
X39060273Y-54151680D01*
X39321426Y-54259853D01*
X39598665Y-54315000D01*
X39881335Y-54315000D01*
X40158574Y-54259853D01*
X40419727Y-54151680D01*
X40654759Y-53994637D01*
X40854637Y-53794759D01*
X41010915Y-53560872D01*
X41043329Y-53621514D01*
X41287298Y-53693097D01*
X42100395Y-52880000D01*
X41287298Y-52066903D01*
X41043329Y-52138486D01*
X41012806Y-52202992D01*
X41011680Y-52200273D01*
X40854637Y-51965241D01*
X40776694Y-51887298D01*
X41466903Y-51887298D01*
X42280000Y-52700395D01*
X43093097Y-51887298D01*
X43021514Y-51643329D01*
X42766004Y-51522429D01*
X42491816Y-51453700D01*
X42209488Y-51439783D01*
X41929870Y-51481213D01*
X41663708Y-51576397D01*
X41538486Y-51643329D01*
X41466903Y-51887298D01*
X40776694Y-51887298D01*
X40654759Y-51765363D01*
X40419727Y-51608320D01*
X40158574Y-51500147D01*
X39881335Y-51445000D01*
X39598665Y-51445000D01*
X39321426Y-51500147D01*
X39060273Y-51608320D01*
X38825241Y-51765363D01*
X38625363Y-51965241D01*
X38468320Y-52200273D01*
X38360147Y-52461426D01*
X38305000Y-52738665D01*
X35660000Y-52738665D01*
X35660000Y-42700881D01*
X37478724Y-42700881D01*
X37838912Y-43190548D01*
X38502882Y-43550849D01*
X39224385Y-43774694D01*
X39975695Y-43853480D01*
X40727938Y-43784178D01*
X41452208Y-43569452D01*
X42120670Y-43217555D01*
X42161088Y-43190548D01*
X42521276Y-42700881D01*
X40000000Y-40179605D01*
X37478724Y-42700881D01*
X35660000Y-42700881D01*
X35660000Y-40029392D01*
X35664792Y-39975695D01*
X36146520Y-39975695D01*
X36215822Y-40727938D01*
X36430548Y-41452208D01*
X36782445Y-42120670D01*
X36809452Y-42161088D01*
X37299119Y-42521276D01*
X39820395Y-40000000D01*
X40179605Y-40000000D01*
X42700881Y-42521276D01*
X43190548Y-42161088D01*
X43550849Y-41497118D01*
X43774694Y-40775615D01*
X43853480Y-40024305D01*
X43784178Y-39272062D01*
X43777242Y-39248665D01*
X48565000Y-39248665D01*
X48565000Y-39531335D01*
X48620147Y-39808574D01*
X48728320Y-40069727D01*
X48885363Y-40304759D01*
X49085241Y-40504637D01*
X49320273Y-40661680D01*
X49581426Y-40769853D01*
X49858665Y-40825000D01*
X50141335Y-40825000D01*
X50418574Y-40769853D01*
X50679727Y-40661680D01*
X50914759Y-40504637D01*
X51036694Y-40382702D01*
X51726903Y-40382702D01*
X51798486Y-40626671D01*
X52053996Y-40747571D01*
X52328184Y-40816300D01*
X52610512Y-40830217D01*
X52890130Y-40788787D01*
X53156292Y-40693603D01*
X53281514Y-40626671D01*
X53353097Y-40382702D01*
X52540000Y-39569605D01*
X51726903Y-40382702D01*
X51036694Y-40382702D01*
X51114637Y-40304759D01*
X51270915Y-40070872D01*
X51303329Y-40131514D01*
X51547298Y-40203097D01*
X52360395Y-39390000D01*
X52719605Y-39390000D01*
X53532702Y-40203097D01*
X53776671Y-40131514D01*
X53807194Y-40067008D01*
X53808320Y-40069727D01*
X53965363Y-40304759D01*
X54165241Y-40504637D01*
X54400273Y-40661680D01*
X54661426Y-40769853D01*
X54938665Y-40825000D01*
X55221335Y-40825000D01*
X55498574Y-40769853D01*
X55759727Y-40661680D01*
X55994759Y-40504637D01*
X56194637Y-40304759D01*
X56350000Y-40072241D01*
X56505363Y-40304759D01*
X56705241Y-40504637D01*
X56940273Y-40661680D01*
X57201426Y-40769853D01*
X57478665Y-40825000D01*
X57761335Y-40825000D01*
X58038574Y-40769853D01*
X58299727Y-40661680D01*
X58534759Y-40504637D01*
X58734637Y-40304759D01*
X58890000Y-40072241D01*
X59045363Y-40304759D01*
X59245241Y-40504637D01*
X59480273Y-40661680D01*
X59741426Y-40769853D01*
X60018665Y-40825000D01*
X60301335Y-40825000D01*
X60578574Y-40769853D01*
X60839727Y-40661680D01*
X61074759Y-40504637D01*
X61274637Y-40304759D01*
X61430000Y-40072241D01*
X61585363Y-40304759D01*
X61785241Y-40504637D01*
X62020273Y-40661680D01*
X62281426Y-40769853D01*
X62558665Y-40825000D01*
X62841335Y-40825000D01*
X63118574Y-40769853D01*
X63379727Y-40661680D01*
X63614759Y-40504637D01*
X63814637Y-40304759D01*
X63971680Y-40069727D01*
X64079853Y-39808574D01*
X64135000Y-39531335D01*
X64135000Y-39248665D01*
X64079853Y-38971426D01*
X63971680Y-38710273D01*
X63910006Y-38617971D01*
X88637576Y-38617971D01*
X90590000Y-40570395D01*
X92542424Y-38617971D01*
X92278260Y-38210245D01*
X91750339Y-37929683D01*
X91177827Y-37757504D01*
X90582725Y-37700324D01*
X89987902Y-37760342D01*
X89416218Y-37935250D01*
X88901740Y-38210245D01*
X88637576Y-38617971D01*
X63910006Y-38617971D01*
X63814637Y-38475241D01*
X63614759Y-38275363D01*
X63379727Y-38118320D01*
X63118574Y-38010147D01*
X62841335Y-37955000D01*
X62558665Y-37955000D01*
X62281426Y-38010147D01*
X62020273Y-38118320D01*
X61785241Y-38275363D01*
X61585363Y-38475241D01*
X61430000Y-38707759D01*
X61274637Y-38475241D01*
X61074759Y-38275363D01*
X60839727Y-38118320D01*
X60578574Y-38010147D01*
X60301335Y-37955000D01*
X60018665Y-37955000D01*
X59741426Y-38010147D01*
X59480273Y-38118320D01*
X59245241Y-38275363D01*
X59045363Y-38475241D01*
X58890000Y-38707759D01*
X58734637Y-38475241D01*
X58534759Y-38275363D01*
X58299727Y-38118320D01*
X58038574Y-38010147D01*
X57761335Y-37955000D01*
X57478665Y-37955000D01*
X57201426Y-38010147D01*
X56940273Y-38118320D01*
X56705241Y-38275363D01*
X56505363Y-38475241D01*
X56350000Y-38707759D01*
X56194637Y-38475241D01*
X55994759Y-38275363D01*
X55759727Y-38118320D01*
X55498574Y-38010147D01*
X55221335Y-37955000D01*
X54938665Y-37955000D01*
X54661426Y-38010147D01*
X54400273Y-38118320D01*
X54165241Y-38275363D01*
X53965363Y-38475241D01*
X53809085Y-38709128D01*
X53776671Y-38648486D01*
X53532702Y-38576903D01*
X52719605Y-39390000D01*
X52360395Y-39390000D01*
X51547298Y-38576903D01*
X51303329Y-38648486D01*
X51272806Y-38712992D01*
X51271680Y-38710273D01*
X51114637Y-38475241D01*
X51036694Y-38397298D01*
X51726903Y-38397298D01*
X52540000Y-39210395D01*
X53353097Y-38397298D01*
X53281514Y-38153329D01*
X53026004Y-38032429D01*
X52751816Y-37963700D01*
X52469488Y-37949783D01*
X52189870Y-37991213D01*
X51923708Y-38086397D01*
X51798486Y-38153329D01*
X51726903Y-38397298D01*
X51036694Y-38397298D01*
X50914759Y-38275363D01*
X50679727Y-38118320D01*
X50418574Y-38010147D01*
X50141335Y-37955000D01*
X49858665Y-37955000D01*
X49581426Y-38010147D01*
X49320273Y-38118320D01*
X49085241Y-38275363D01*
X48885363Y-38475241D01*
X48728320Y-38710273D01*
X48620147Y-38971426D01*
X48565000Y-39248665D01*
X43777242Y-39248665D01*
X43569452Y-38547792D01*
X43217555Y-37879330D01*
X43190548Y-37838912D01*
X42700881Y-37478724D01*
X40179605Y-40000000D01*
X39820395Y-40000000D01*
X37299119Y-37478724D01*
X36809452Y-37838912D01*
X36449151Y-38502882D01*
X36225306Y-39224385D01*
X36146520Y-39975695D01*
X35664792Y-39975695D01*
X35731173Y-39231917D01*
X35934656Y-38488109D01*
X36266638Y-37792095D01*
X36620876Y-37299119D01*
X37478724Y-37299119D01*
X40000000Y-39820395D01*
X42521276Y-37299119D01*
X42161088Y-36809452D01*
X41497118Y-36449151D01*
X40775615Y-36225306D01*
X40024305Y-36146520D01*
X39272062Y-36215822D01*
X38547792Y-36430548D01*
X37879330Y-36782445D01*
X37838912Y-36809452D01*
X37478724Y-37299119D01*
X36620876Y-37299119D01*
X36716626Y-37165870D01*
X37270403Y-36629223D01*
X37910451Y-36199129D01*
X38616553Y-35889171D01*
X39371457Y-35707935D01*
X40024207Y-35660000D01*
X129970608Y-35660000D01*
X130768083Y-35731173D01*
G37*
%TD.AperFunction*%
D19*
X82080363Y-52545241D02*
X81923320Y-52780273D01*
X81815147Y-53041426D01*
X81760000Y-53318665D01*
X81760000Y-53601335D01*
X81815147Y-53878574D01*
X81923320Y-54139727D01*
X82080363Y-54374759D01*
X82280241Y-54574637D01*
X82515273Y-54731680D01*
X82776426Y-54839853D01*
X83053665Y-54895000D01*
X83336335Y-54895000D01*
X83613574Y-54839853D01*
X83874727Y-54731680D01*
X84109759Y-54574637D01*
X84309637Y-54374759D01*
X84465000Y-54142241D01*
X84620363Y-54374759D01*
X84820241Y-54574637D01*
X85055273Y-54731680D01*
X85316426Y-54839853D01*
X85593665Y-54895000D01*
X85876335Y-54895000D01*
X86153574Y-54839853D01*
X86414727Y-54731680D01*
X86649759Y-54574637D01*
X86849637Y-54374759D01*
X87005000Y-54142241D01*
X87160363Y-54374759D01*
X87360241Y-54574637D01*
X87595273Y-54731680D01*
X87856426Y-54839853D01*
X88133665Y-54895000D01*
X88416335Y-54895000D01*
X88693574Y-54839853D01*
X88954727Y-54731680D01*
X89189759Y-54574637D01*
X89389637Y-54374759D01*
X89545000Y-54142241D01*
X89700363Y-54374759D01*
X89900241Y-54574637D01*
X90135273Y-54731680D01*
X90396426Y-54839853D01*
X90673665Y-54895000D01*
X90956335Y-54895000D01*
X91233574Y-54839853D01*
X91494727Y-54731680D01*
X91729759Y-54574637D01*
X91929637Y-54374759D01*
X92085000Y-54142241D01*
X92240363Y-54374759D01*
X92440241Y-54574637D01*
X92675273Y-54731680D01*
X92936426Y-54839853D01*
X93213665Y-54895000D01*
X93496335Y-54895000D01*
X93773574Y-54839853D01*
X94034727Y-54731680D01*
X94269759Y-54574637D01*
X94391694Y-54452702D01*
X95081903Y-54452702D01*
X95153486Y-54696671D01*
X95408996Y-54817571D01*
X95683184Y-54886300D01*
X95965512Y-54900217D01*
X96245130Y-54858787D01*
X96511292Y-54763603D01*
X96636514Y-54696671D01*
X96708097Y-54452702D01*
X95895000Y-53639605D01*
X95081903Y-54452702D01*
X94391694Y-54452702D01*
X94469637Y-54374759D01*
X94625915Y-54140872D01*
X94658329Y-54201514D01*
X94902298Y-54273097D01*
X95715395Y-53460000D01*
X95701253Y-53445858D01*
X95880858Y-53266253D01*
X95895000Y-53280395D01*
X95909143Y-53266253D01*
X96088748Y-53445858D01*
X96074605Y-53460000D01*
X96887702Y-54273097D01*
X97131671Y-54201514D01*
X97162194Y-54137008D01*
X97163320Y-54139727D01*
X97320363Y-54374759D01*
X97520241Y-54574637D01*
X97755273Y-54731680D01*
X98016426Y-54839853D01*
X98293665Y-54895000D01*
X98576335Y-54895000D01*
X98853574Y-54839853D01*
X99114727Y-54731680D01*
X99349759Y-54574637D01*
X99549637Y-54374759D01*
X99705000Y-54142241D01*
X99860363Y-54374759D01*
X100060241Y-54574637D01*
X100295273Y-54731680D01*
X100506165Y-54819034D01*
X100385199Y-54940000D01*
X81137333Y-54940000D01*
X81100000Y-54936323D01*
X81062667Y-54940000D01*
X80951014Y-54950997D01*
X80807753Y-54994454D01*
X80675724Y-55065026D01*
X80559999Y-55159999D01*
X80536201Y-55188997D01*
X79785199Y-55940000D01*
X74097841Y-55940000D01*
X74139853Y-55838574D01*
X74195000Y-55561335D01*
X74195000Y-55278665D01*
X74139853Y-55001426D01*
X74031680Y-54740273D01*
X73953605Y-54623425D01*
X73963804Y-54610997D01*
X76114802Y-52460000D01*
X82165604Y-52460000D01*
X82080363Y-52545241D01*
%TA.AperFunction,Conductor*%
D20*
G36*
X82080363Y-52545241D02*
G01*
X81923320Y-52780273D01*
X81815147Y-53041426D01*
X81760000Y-53318665D01*
X81760000Y-53601335D01*
X81815147Y-53878574D01*
X81923320Y-54139727D01*
X82080363Y-54374759D01*
X82280241Y-54574637D01*
X82515273Y-54731680D01*
X82776426Y-54839853D01*
X83053665Y-54895000D01*
X83336335Y-54895000D01*
X83613574Y-54839853D01*
X83874727Y-54731680D01*
X84109759Y-54574637D01*
X84309637Y-54374759D01*
X84465000Y-54142241D01*
X84620363Y-54374759D01*
X84820241Y-54574637D01*
X85055273Y-54731680D01*
X85316426Y-54839853D01*
X85593665Y-54895000D01*
X85876335Y-54895000D01*
X86153574Y-54839853D01*
X86414727Y-54731680D01*
X86649759Y-54574637D01*
X86849637Y-54374759D01*
X87005000Y-54142241D01*
X87160363Y-54374759D01*
X87360241Y-54574637D01*
X87595273Y-54731680D01*
X87856426Y-54839853D01*
X88133665Y-54895000D01*
X88416335Y-54895000D01*
X88693574Y-54839853D01*
X88954727Y-54731680D01*
X89189759Y-54574637D01*
X89389637Y-54374759D01*
X89545000Y-54142241D01*
X89700363Y-54374759D01*
X89900241Y-54574637D01*
X90135273Y-54731680D01*
X90396426Y-54839853D01*
X90673665Y-54895000D01*
X90956335Y-54895000D01*
X91233574Y-54839853D01*
X91494727Y-54731680D01*
X91729759Y-54574637D01*
X91929637Y-54374759D01*
X92085000Y-54142241D01*
X92240363Y-54374759D01*
X92440241Y-54574637D01*
X92675273Y-54731680D01*
X92936426Y-54839853D01*
X93213665Y-54895000D01*
X93496335Y-54895000D01*
X93773574Y-54839853D01*
X94034727Y-54731680D01*
X94269759Y-54574637D01*
X94391694Y-54452702D01*
X95081903Y-54452702D01*
X95153486Y-54696671D01*
X95408996Y-54817571D01*
X95683184Y-54886300D01*
X95965512Y-54900217D01*
X96245130Y-54858787D01*
X96511292Y-54763603D01*
X96636514Y-54696671D01*
X96708097Y-54452702D01*
X95895000Y-53639605D01*
X95081903Y-54452702D01*
X94391694Y-54452702D01*
X94469637Y-54374759D01*
X94625915Y-54140872D01*
X94658329Y-54201514D01*
X94902298Y-54273097D01*
X95715395Y-53460000D01*
X95701253Y-53445858D01*
X95880858Y-53266253D01*
X95895000Y-53280395D01*
X95909143Y-53266253D01*
X96088748Y-53445858D01*
X96074605Y-53460000D01*
X96887702Y-54273097D01*
X97131671Y-54201514D01*
X97162194Y-54137008D01*
X97163320Y-54139727D01*
X97320363Y-54374759D01*
X97520241Y-54574637D01*
X97755273Y-54731680D01*
X98016426Y-54839853D01*
X98293665Y-54895000D01*
X98576335Y-54895000D01*
X98853574Y-54839853D01*
X99114727Y-54731680D01*
X99349759Y-54574637D01*
X99549637Y-54374759D01*
X99705000Y-54142241D01*
X99860363Y-54374759D01*
X100060241Y-54574637D01*
X100295273Y-54731680D01*
X100506165Y-54819034D01*
X100385199Y-54940000D01*
X81137333Y-54940000D01*
X81100000Y-54936323D01*
X81062667Y-54940000D01*
X80951014Y-54950997D01*
X80807753Y-54994454D01*
X80675724Y-55065026D01*
X80559999Y-55159999D01*
X80536201Y-55188997D01*
X79785199Y-55940000D01*
X74097841Y-55940000D01*
X74139853Y-55838574D01*
X74195000Y-55561335D01*
X74195000Y-55278665D01*
X74139853Y-55001426D01*
X74031680Y-54740273D01*
X73953605Y-54623425D01*
X73963804Y-54610997D01*
X76114802Y-52460000D01*
X82165604Y-52460000D01*
X82080363Y-52545241D01*
G37*
%TD.AperFunction*%
%TD*%
M02*
