%TF.GenerationSoftware,KiCad,Pcbnew,5.1.10-88a1d61d58~88~ubuntu18.04.1*%
%TF.CreationDate,2021-05-26T16:46:43+10:00*%
%TF.ProjectId,prototype_rocket_fc,70726f74-6f74-4797-9065-5f726f636b65,rev?*%
%TF.SameCoordinates,Original*%
%TF.FileFunction,Soldermask,Top*%
%TF.FilePolarity,Negative*%
%FSLAX46Y46*%
G04 Gerber Fmt 4.6, Leading zero omitted, Abs format (unit mm)*
G04 Created by KiCad (PCBNEW 5.1.10-88a1d61d58~88~ubuntu18.04.1) date 2021-05-26 16:46:43*
%MOMM*%
%LPD*%
G01*
G04 APERTURE LIST*
%ADD10C,1.600000*%
%ADD11O,1.700000X1.700000*%
%ADD12C,4.800000*%
%ADD13C,0.800000*%
%ADD14C,6.400000*%
%ADD15C,5.080000*%
%ADD16R,2.000000X3.200000*%
%ADD17R,0.599999X1.000001*%
%ADD18R,1.060000X0.650000*%
%ADD19C,6.000000*%
G04 APERTURE END LIST*
D10*
%TO.C,U2*%
X72760000Y-60500000D03*
X72760000Y-57960000D03*
X72760000Y-55420000D03*
X72760000Y-52880000D03*
X72760000Y-63040000D03*
X72760000Y-65580000D03*
X72760000Y-68120000D03*
X70220000Y-52880000D03*
X67680000Y-52880000D03*
X65140000Y-52880000D03*
X62600000Y-52880000D03*
X60060000Y-52880000D03*
X57520000Y-52880000D03*
X54980000Y-52880000D03*
X52440000Y-52880000D03*
X49900000Y-52880000D03*
X47360000Y-52880000D03*
X44820000Y-52880000D03*
X42280000Y-52880000D03*
X39740000Y-52880000D03*
X42280000Y-55420000D03*
X70220000Y-68120000D03*
X67680000Y-68120000D03*
X65140000Y-68120000D03*
X62600000Y-68120000D03*
X60060000Y-68120000D03*
X57520000Y-68120000D03*
X54980000Y-68120000D03*
X52440000Y-68120000D03*
X49900000Y-68120000D03*
X47360000Y-68120000D03*
X44820000Y-68120000D03*
X42280000Y-68120000D03*
X39740000Y-68120000D03*
%TD*%
D11*
%TO.C,U9*%
X100170000Y-44040000D03*
X100170000Y-41500000D03*
X112870000Y-44040000D03*
X115410000Y-44040000D03*
X102710000Y-44040000D03*
X105250000Y-41500000D03*
X110330000Y-41500000D03*
X115410000Y-41500000D03*
X117950000Y-44040000D03*
X107790000Y-44040000D03*
X110330000Y-44040000D03*
X117950000Y-41500000D03*
X107790000Y-41500000D03*
X112870000Y-41500000D03*
X105250000Y-44040000D03*
X102710000Y-41500000D03*
%TD*%
D12*
%TO.C,U8*%
X90590000Y-66750000D03*
X90590000Y-40750000D03*
X127780000Y-53750000D03*
%TD*%
D13*
%TO.C,H2*%
X131697056Y-88302944D03*
X130000000Y-87600000D03*
X128302944Y-88302944D03*
X127600000Y-90000000D03*
X128302944Y-91697056D03*
X130000000Y-92400000D03*
X131697056Y-91697056D03*
X132400000Y-90000000D03*
D14*
X130000000Y-90000000D03*
%TD*%
D13*
%TO.C,H1*%
X41697056Y-38302944D03*
X40000000Y-37600000D03*
X38302944Y-38302944D03*
X37600000Y-40000000D03*
X38302944Y-41697056D03*
X40000000Y-42400000D03*
X41697056Y-41697056D03*
X42400000Y-40000000D03*
D14*
X40000000Y-40000000D03*
%TD*%
%TO.C,R5*%
G36*
G01*
X72112500Y-85680000D02*
X72587500Y-85680000D01*
G75*
G02*
X72825000Y-85917500I0J-237500D01*
G01*
X72825000Y-86417500D01*
G75*
G02*
X72587500Y-86655000I-237500J0D01*
G01*
X72112500Y-86655000D01*
G75*
G02*
X71875000Y-86417500I0J237500D01*
G01*
X71875000Y-85917500D01*
G75*
G02*
X72112500Y-85680000I237500J0D01*
G01*
G37*
G36*
G01*
X72112500Y-83855000D02*
X72587500Y-83855000D01*
G75*
G02*
X72825000Y-84092500I0J-237500D01*
G01*
X72825000Y-84592500D01*
G75*
G02*
X72587500Y-84830000I-237500J0D01*
G01*
X72112500Y-84830000D01*
G75*
G02*
X71875000Y-84592500I0J237500D01*
G01*
X71875000Y-84092500D01*
G75*
G02*
X72112500Y-83855000I237500J0D01*
G01*
G37*
%TD*%
%TO.C,D1*%
G36*
G01*
X74662500Y-85650000D02*
X75137500Y-85650000D01*
G75*
G02*
X75375000Y-85887500I0J-237500D01*
G01*
X75375000Y-86462500D01*
G75*
G02*
X75137500Y-86700000I-237500J0D01*
G01*
X74662500Y-86700000D01*
G75*
G02*
X74425000Y-86462500I0J237500D01*
G01*
X74425000Y-85887500D01*
G75*
G02*
X74662500Y-85650000I237500J0D01*
G01*
G37*
G36*
G01*
X74662500Y-83900000D02*
X75137500Y-83900000D01*
G75*
G02*
X75375000Y-84137500I0J-237500D01*
G01*
X75375000Y-84712500D01*
G75*
G02*
X75137500Y-84950000I-237500J0D01*
G01*
X74662500Y-84950000D01*
G75*
G02*
X74425000Y-84712500I0J237500D01*
G01*
X74425000Y-84137500D01*
G75*
G02*
X74662500Y-83900000I237500J0D01*
G01*
G37*
%TD*%
D10*
%TO.C,U1*%
X98435000Y-53460000D03*
X100975000Y-53460000D03*
X93355000Y-53460000D03*
X95895000Y-53460000D03*
X88275000Y-53460000D03*
X90815000Y-53460000D03*
X83195000Y-53460000D03*
X85735000Y-53460000D03*
D15*
X101475000Y-84270000D03*
X82525000Y-84270000D03*
X101575000Y-58930000D03*
X82425000Y-58930000D03*
%TD*%
%TO.C,C1*%
G36*
G01*
X59725000Y-87137500D02*
X59725000Y-86662500D01*
G75*
G02*
X59962500Y-86425000I237500J0D01*
G01*
X60562500Y-86425000D01*
G75*
G02*
X60800000Y-86662500I0J-237500D01*
G01*
X60800000Y-87137500D01*
G75*
G02*
X60562500Y-87375000I-237500J0D01*
G01*
X59962500Y-87375000D01*
G75*
G02*
X59725000Y-87137500I0J237500D01*
G01*
G37*
G36*
G01*
X58000000Y-87137500D02*
X58000000Y-86662500D01*
G75*
G02*
X58237500Y-86425000I237500J0D01*
G01*
X58837500Y-86425000D01*
G75*
G02*
X59075000Y-86662500I0J-237500D01*
G01*
X59075000Y-87137500D01*
G75*
G02*
X58837500Y-87375000I-237500J0D01*
G01*
X58237500Y-87375000D01*
G75*
G02*
X58000000Y-87137500I0J237500D01*
G01*
G37*
%TD*%
%TO.C,C2*%
G36*
G01*
X58000000Y-84937500D02*
X58000000Y-84462500D01*
G75*
G02*
X58237500Y-84225000I237500J0D01*
G01*
X58837500Y-84225000D01*
G75*
G02*
X59075000Y-84462500I0J-237500D01*
G01*
X59075000Y-84937500D01*
G75*
G02*
X58837500Y-85175000I-237500J0D01*
G01*
X58237500Y-85175000D01*
G75*
G02*
X58000000Y-84937500I0J237500D01*
G01*
G37*
G36*
G01*
X59725000Y-84937500D02*
X59725000Y-84462500D01*
G75*
G02*
X59962500Y-84225000I237500J0D01*
G01*
X60562500Y-84225000D01*
G75*
G02*
X60800000Y-84462500I0J-237500D01*
G01*
X60800000Y-84937500D01*
G75*
G02*
X60562500Y-85175000I-237500J0D01*
G01*
X59962500Y-85175000D01*
G75*
G02*
X59725000Y-84937500I0J237500D01*
G01*
G37*
%TD*%
%TO.C,C3*%
G36*
G01*
X56700000Y-84512500D02*
X56700000Y-84987500D01*
G75*
G02*
X56462500Y-85225000I-237500J0D01*
G01*
X55862500Y-85225000D01*
G75*
G02*
X55625000Y-84987500I0J237500D01*
G01*
X55625000Y-84512500D01*
G75*
G02*
X55862500Y-84275000I237500J0D01*
G01*
X56462500Y-84275000D01*
G75*
G02*
X56700000Y-84512500I0J-237500D01*
G01*
G37*
G36*
G01*
X54975000Y-84512500D02*
X54975000Y-84987500D01*
G75*
G02*
X54737500Y-85225000I-237500J0D01*
G01*
X54137500Y-85225000D01*
G75*
G02*
X53900000Y-84987500I0J237500D01*
G01*
X53900000Y-84512500D01*
G75*
G02*
X54137500Y-84275000I237500J0D01*
G01*
X54737500Y-84275000D01*
G75*
G02*
X54975000Y-84512500I0J-237500D01*
G01*
G37*
%TD*%
%TO.C,C4*%
G36*
G01*
X57737500Y-77537500D02*
X57262500Y-77537500D01*
G75*
G02*
X57025000Y-77300000I0J237500D01*
G01*
X57025000Y-76700000D01*
G75*
G02*
X57262500Y-76462500I237500J0D01*
G01*
X57737500Y-76462500D01*
G75*
G02*
X57975000Y-76700000I0J-237500D01*
G01*
X57975000Y-77300000D01*
G75*
G02*
X57737500Y-77537500I-237500J0D01*
G01*
G37*
G36*
G01*
X57737500Y-79262500D02*
X57262500Y-79262500D01*
G75*
G02*
X57025000Y-79025000I0J237500D01*
G01*
X57025000Y-78425000D01*
G75*
G02*
X57262500Y-78187500I237500J0D01*
G01*
X57737500Y-78187500D01*
G75*
G02*
X57975000Y-78425000I0J-237500D01*
G01*
X57975000Y-79025000D01*
G75*
G02*
X57737500Y-79262500I-237500J0D01*
G01*
G37*
%TD*%
%TO.C,C5*%
G36*
G01*
X75900003Y-80975000D02*
X74599997Y-80975000D01*
G75*
G02*
X74350000Y-80725003I0J249997D01*
G01*
X74350000Y-79899997D01*
G75*
G02*
X74599997Y-79650000I249997J0D01*
G01*
X75900003Y-79650000D01*
G75*
G02*
X76150000Y-79899997I0J-249997D01*
G01*
X76150000Y-80725003D01*
G75*
G02*
X75900003Y-80975000I-249997J0D01*
G01*
G37*
G36*
G01*
X75900003Y-77850000D02*
X74599997Y-77850000D01*
G75*
G02*
X74350000Y-77600003I0J249997D01*
G01*
X74350000Y-76774997D01*
G75*
G02*
X74599997Y-76525000I249997J0D01*
G01*
X75900003Y-76525000D01*
G75*
G02*
X76150000Y-76774997I0J-249997D01*
G01*
X76150000Y-77600003D01*
G75*
G02*
X75900003Y-77850000I-249997J0D01*
G01*
G37*
%TD*%
%TO.C,C6*%
G36*
G01*
X72400003Y-77850000D02*
X71099997Y-77850000D01*
G75*
G02*
X70850000Y-77600003I0J249997D01*
G01*
X70850000Y-76774997D01*
G75*
G02*
X71099997Y-76525000I249997J0D01*
G01*
X72400003Y-76525000D01*
G75*
G02*
X72650000Y-76774997I0J-249997D01*
G01*
X72650000Y-77600003D01*
G75*
G02*
X72400003Y-77850000I-249997J0D01*
G01*
G37*
G36*
G01*
X72400003Y-80975000D02*
X71099997Y-80975000D01*
G75*
G02*
X70850000Y-80725003I0J249997D01*
G01*
X70850000Y-79899997D01*
G75*
G02*
X71099997Y-79650000I249997J0D01*
G01*
X72400003Y-79650000D01*
G75*
G02*
X72650000Y-79899997I0J-249997D01*
G01*
X72650000Y-80725003D01*
G75*
G02*
X72400003Y-80975000I-249997J0D01*
G01*
G37*
%TD*%
%TO.C,C7*%
G36*
G01*
X39012500Y-46850000D02*
X39487500Y-46850000D01*
G75*
G02*
X39725000Y-47087500I0J-237500D01*
G01*
X39725000Y-47687500D01*
G75*
G02*
X39487500Y-47925000I-237500J0D01*
G01*
X39012500Y-47925000D01*
G75*
G02*
X38775000Y-47687500I0J237500D01*
G01*
X38775000Y-47087500D01*
G75*
G02*
X39012500Y-46850000I237500J0D01*
G01*
G37*
G36*
G01*
X39012500Y-48575000D02*
X39487500Y-48575000D01*
G75*
G02*
X39725000Y-48812500I0J-237500D01*
G01*
X39725000Y-49412500D01*
G75*
G02*
X39487500Y-49650000I-237500J0D01*
G01*
X39012500Y-49650000D01*
G75*
G02*
X38775000Y-49412500I0J237500D01*
G01*
X38775000Y-48812500D01*
G75*
G02*
X39012500Y-48575000I237500J0D01*
G01*
G37*
%TD*%
%TO.C,C8*%
G36*
G01*
X46262500Y-48575000D02*
X46737500Y-48575000D01*
G75*
G02*
X46975000Y-48812500I0J-237500D01*
G01*
X46975000Y-49412500D01*
G75*
G02*
X46737500Y-49650000I-237500J0D01*
G01*
X46262500Y-49650000D01*
G75*
G02*
X46025000Y-49412500I0J237500D01*
G01*
X46025000Y-48812500D01*
G75*
G02*
X46262500Y-48575000I237500J0D01*
G01*
G37*
G36*
G01*
X46262500Y-46850000D02*
X46737500Y-46850000D01*
G75*
G02*
X46975000Y-47087500I0J-237500D01*
G01*
X46975000Y-47687500D01*
G75*
G02*
X46737500Y-47925000I-237500J0D01*
G01*
X46262500Y-47925000D01*
G75*
G02*
X46025000Y-47687500I0J237500D01*
G01*
X46025000Y-47087500D01*
G75*
G02*
X46262500Y-46850000I237500J0D01*
G01*
G37*
%TD*%
D16*
%TO.C,L1*%
X60600000Y-78800000D03*
X68400000Y-78800000D03*
%TD*%
%TO.C,R1*%
G36*
G01*
X56900000Y-82099999D02*
X56900000Y-83000001D01*
G75*
G02*
X56650001Y-83250000I-249999J0D01*
G01*
X55949999Y-83250000D01*
G75*
G02*
X55700000Y-83000001I0J249999D01*
G01*
X55700000Y-82099999D01*
G75*
G02*
X55949999Y-81850000I249999J0D01*
G01*
X56650001Y-81850000D01*
G75*
G02*
X56900000Y-82099999I0J-249999D01*
G01*
G37*
G36*
G01*
X54900000Y-82099999D02*
X54900000Y-83000001D01*
G75*
G02*
X54650001Y-83250000I-249999J0D01*
G01*
X53949999Y-83250000D01*
G75*
G02*
X53700000Y-83000001I0J249999D01*
G01*
X53700000Y-82099999D01*
G75*
G02*
X53949999Y-81850000I249999J0D01*
G01*
X54650001Y-81850000D01*
G75*
G02*
X54900000Y-82099999I0J-249999D01*
G01*
G37*
%TD*%
%TO.C,R2*%
G36*
G01*
X56700000Y-86512500D02*
X56700000Y-86987500D01*
G75*
G02*
X56462500Y-87225000I-237500J0D01*
G01*
X55962500Y-87225000D01*
G75*
G02*
X55725000Y-86987500I0J237500D01*
G01*
X55725000Y-86512500D01*
G75*
G02*
X55962500Y-86275000I237500J0D01*
G01*
X56462500Y-86275000D01*
G75*
G02*
X56700000Y-86512500I0J-237500D01*
G01*
G37*
G36*
G01*
X54875000Y-86512500D02*
X54875000Y-86987500D01*
G75*
G02*
X54637500Y-87225000I-237500J0D01*
G01*
X54137500Y-87225000D01*
G75*
G02*
X53900000Y-86987500I0J237500D01*
G01*
X53900000Y-86512500D01*
G75*
G02*
X54137500Y-86275000I237500J0D01*
G01*
X54637500Y-86275000D01*
G75*
G02*
X54875000Y-86512500I0J-237500D01*
G01*
G37*
%TD*%
%TO.C,R3*%
G36*
G01*
X48512500Y-74100000D02*
X48987500Y-74100000D01*
G75*
G02*
X49225000Y-74337500I0J-237500D01*
G01*
X49225000Y-74837500D01*
G75*
G02*
X48987500Y-75075000I-237500J0D01*
G01*
X48512500Y-75075000D01*
G75*
G02*
X48275000Y-74837500I0J237500D01*
G01*
X48275000Y-74337500D01*
G75*
G02*
X48512500Y-74100000I237500J0D01*
G01*
G37*
G36*
G01*
X48512500Y-75925000D02*
X48987500Y-75925000D01*
G75*
G02*
X49225000Y-76162500I0J-237500D01*
G01*
X49225000Y-76662500D01*
G75*
G02*
X48987500Y-76900000I-237500J0D01*
G01*
X48512500Y-76900000D01*
G75*
G02*
X48275000Y-76662500I0J237500D01*
G01*
X48275000Y-76162500D01*
G75*
G02*
X48512500Y-75925000I237500J0D01*
G01*
G37*
%TD*%
%TO.C,R4*%
G36*
G01*
X50987500Y-75075000D02*
X50512500Y-75075000D01*
G75*
G02*
X50275000Y-74837500I0J237500D01*
G01*
X50275000Y-74337500D01*
G75*
G02*
X50512500Y-74100000I237500J0D01*
G01*
X50987500Y-74100000D01*
G75*
G02*
X51225000Y-74337500I0J-237500D01*
G01*
X51225000Y-74837500D01*
G75*
G02*
X50987500Y-75075000I-237500J0D01*
G01*
G37*
G36*
G01*
X50987500Y-76900000D02*
X50512500Y-76900000D01*
G75*
G02*
X50275000Y-76662500I0J237500D01*
G01*
X50275000Y-76162500D01*
G75*
G02*
X50512500Y-75925000I237500J0D01*
G01*
X50987500Y-75925000D01*
G75*
G02*
X51225000Y-76162500I0J-237500D01*
G01*
X51225000Y-76662500D01*
G75*
G02*
X50987500Y-76900000I-237500J0D01*
G01*
G37*
%TD*%
D10*
%TO.C,U3*%
X50000000Y-39390000D03*
X52540000Y-39390000D03*
X55080000Y-39390000D03*
X57620000Y-39390000D03*
X60160000Y-39390000D03*
X62700000Y-39390000D03*
%TD*%
%TO.C,U4*%
X107480000Y-59980000D03*
X107480000Y-67600000D03*
X107480000Y-62520000D03*
X107480000Y-65060000D03*
X107480000Y-70140000D03*
D15*
X128940000Y-74360000D03*
%TD*%
D10*
%TO.C,U5*%
X68730000Y-40970000D03*
X68730000Y-43510000D03*
X68730000Y-46050000D03*
X68730000Y-48590000D03*
X84670000Y-40970000D03*
X84670000Y-43510000D03*
X84670000Y-46050000D03*
X84670000Y-48590000D03*
X74160000Y-48640000D03*
X76700000Y-48640000D03*
X79240000Y-48640000D03*
%TD*%
D17*
%TO.C,U6*%
X55100001Y-76374999D03*
X54150000Y-76374999D03*
X53200002Y-76374999D03*
X53200002Y-79124999D03*
X54150000Y-79124999D03*
X55100001Y-79124999D03*
%TD*%
D18*
%TO.C,U7*%
X41500000Y-47300000D03*
X41500000Y-48250000D03*
X41500000Y-49200000D03*
X43700000Y-49200000D03*
X43700000Y-47300000D03*
%TD*%
D19*
%TO.C,J1*%
X41750000Y-84200000D03*
G36*
G01*
X40250000Y-74000000D02*
X43250000Y-74000000D01*
G75*
G02*
X44750000Y-75500000I0J-1500000D01*
G01*
X44750000Y-78500000D01*
G75*
G02*
X43250000Y-80000000I-1500000J0D01*
G01*
X40250000Y-80000000D01*
G75*
G02*
X38750000Y-78500000I0J1500000D01*
G01*
X38750000Y-75500000D01*
G75*
G02*
X40250000Y-74000000I1500000J0D01*
G01*
G37*
%TD*%
M02*
