%FSLAX45Y45*%
G04 Gerber Fmt 4.5, Leading zero omitted, Abs format (unit mm)*
G04 Created by KiCad (PCBNEW 5.1.10-88a1d61d58~88~ubuntu18.04.1) date 2021-05-26 16:46:39*
%MOMM*%
%LPD*%
G01*
G04 APERTURE LIST*
%TA.AperFunction,Profile*%
%ADD10C,0.050000*%
%TD*%
%ADD11C,0.200000*%
%ADD12C,0.300000*%
G04 APERTURE END LIST*
D10*
X13500000Y-9000000D02*
G75*
G02*
X13000000Y-9500000I-500000J0D01*
G01*
X4000000Y-9500000D02*
G75*
G02*
X3500000Y-9000000I0J500000D01*
G01*
X3500000Y-4000000D02*
G75*
G02*
X4000000Y-3500000I500000J0D01*
G01*
X13000000Y-3500000D02*
G75*
G02*
X13500000Y-4000000I0J-500000D01*
G01*
X3500000Y-9000000D02*
X3500000Y-4000000D01*
X13000000Y-9500000D02*
X4000000Y-9500000D01*
X13500000Y-4000000D02*
X13500000Y-9000000D01*
X4000000Y-3500000D02*
X13000000Y-3500000D01*
D11*
X4490002Y-4805000D02*
X4530002Y-4845000D01*
X4530002Y-4805000D02*
X4490002Y-4845000D01*
X5330000Y-7455000D02*
X5370000Y-7495000D01*
X5370000Y-7455000D02*
X5330000Y-7495000D01*
X5423749Y-8796251D02*
X5463749Y-8836251D01*
X5463749Y-8796251D02*
X5423749Y-8836251D01*
X6006250Y-8801250D02*
X6046250Y-8841250D01*
X6046250Y-8801250D02*
X6006250Y-8841250D01*
X7331250Y-7698750D02*
X7371250Y-7738750D01*
X7371250Y-7698750D02*
X7331250Y-7738750D01*
X7470000Y-8230000D02*
X7510000Y-8270000D01*
X7510000Y-8230000D02*
X7470000Y-8270000D01*
X3785000Y-4000000D02*
G75*
G03*
X3785000Y-4000000I-25000J0D01*
G01*
X3855294Y-3830294D02*
G75*
G03*
X3855294Y-3830294I-25000J0D01*
G01*
X3855294Y-4169706D02*
G75*
G03*
X3855294Y-4169706I-25000J0D01*
G01*
X4025000Y-3760000D02*
G75*
G03*
X4025000Y-3760000I-25000J0D01*
G01*
X4025000Y-4240000D02*
G75*
G03*
X4025000Y-4240000I-25000J0D01*
G01*
X4194706Y-3830294D02*
G75*
G03*
X4194706Y-3830294I-25000J0D01*
G01*
X4194706Y-4169706D02*
G75*
G03*
X4194706Y-4169706I-25000J0D01*
G01*
X4265000Y-4000000D02*
G75*
G03*
X4265000Y-4000000I-25000J0D01*
G01*
X12785000Y-9000000D02*
G75*
G03*
X12785000Y-9000000I-25000J0D01*
G01*
X12855294Y-8830294D02*
G75*
G03*
X12855294Y-8830294I-25000J0D01*
G01*
X12855294Y-9169706D02*
G75*
G03*
X12855294Y-9169706I-25000J0D01*
G01*
X13025000Y-8760000D02*
G75*
G03*
X13025000Y-8760000I-25000J0D01*
G01*
X13025000Y-9240000D02*
G75*
G03*
X13025000Y-9240000I-25000J0D01*
G01*
X13194706Y-8830294D02*
G75*
G03*
X13194706Y-8830294I-25000J0D01*
G01*
X13194706Y-9169706D02*
G75*
G03*
X13194706Y-9169706I-25000J0D01*
G01*
X13265000Y-9000000D02*
G75*
G03*
X13265000Y-9000000I-25000J0D01*
G01*
X10017000Y-4100000D02*
X10017000Y-4200000D01*
X9967000Y-4150000D02*
X10067000Y-4150000D01*
X10017000Y-4354000D02*
X10017000Y-4454000D01*
X9967000Y-4404000D02*
X10067000Y-4404000D01*
X10271000Y-4100000D02*
X10271000Y-4200000D01*
X10221000Y-4150000D02*
X10321000Y-4150000D01*
X10271000Y-4354000D02*
X10271000Y-4454000D01*
X10221000Y-4404000D02*
X10321000Y-4404000D01*
X10525000Y-4100000D02*
X10525000Y-4200000D01*
X10475000Y-4150000D02*
X10575000Y-4150000D01*
X10525000Y-4354000D02*
X10525000Y-4454000D01*
X10475000Y-4404000D02*
X10575000Y-4404000D01*
X10779000Y-4100000D02*
X10779000Y-4200000D01*
X10729000Y-4150000D02*
X10829000Y-4150000D01*
X10779000Y-4354000D02*
X10779000Y-4454000D01*
X10729000Y-4404000D02*
X10829000Y-4404000D01*
X11033000Y-4100000D02*
X11033000Y-4200000D01*
X10983000Y-4150000D02*
X11083000Y-4150000D01*
X11033000Y-4354000D02*
X11033000Y-4454000D01*
X10983000Y-4404000D02*
X11083000Y-4404000D01*
X11287000Y-4100000D02*
X11287000Y-4200000D01*
X11237000Y-4150000D02*
X11337000Y-4150000D01*
X11287000Y-4354000D02*
X11287000Y-4454000D01*
X11237000Y-4404000D02*
X11337000Y-4404000D01*
X11541000Y-4100000D02*
X11541000Y-4200000D01*
X11491000Y-4150000D02*
X11591000Y-4150000D01*
X11541000Y-4354000D02*
X11541000Y-4454000D01*
X11491000Y-4404000D02*
X11591000Y-4404000D01*
X11795000Y-4100000D02*
X11795000Y-4200000D01*
X11745000Y-4150000D02*
X11845000Y-4150000D01*
X11795000Y-4354000D02*
X11795000Y-4454000D01*
X11745000Y-4404000D02*
X11845000Y-4404000D01*
X4012891Y-5326891D02*
X4012891Y-5249109D01*
X3935109Y-5249109D01*
X3935109Y-5326891D01*
X4012891Y-5326891D01*
X4012891Y-6850891D02*
X4012891Y-6773109D01*
X3935109Y-6773109D01*
X3935109Y-6850891D01*
X4012891Y-6850891D01*
X4266891Y-5326891D02*
X4266891Y-5249109D01*
X4189109Y-5249109D01*
X4189109Y-5326891D01*
X4266891Y-5326891D01*
X4266891Y-5580891D02*
X4266891Y-5503109D01*
X4189109Y-5503109D01*
X4189109Y-5580891D01*
X4266891Y-5580891D01*
X4266891Y-6850891D02*
X4266891Y-6773109D01*
X4189109Y-6773109D01*
X4189109Y-6850891D01*
X4266891Y-6850891D01*
X4520891Y-5326891D02*
X4520891Y-5249109D01*
X4443109Y-5249109D01*
X4443109Y-5326891D01*
X4520891Y-5326891D01*
X4520891Y-6850891D02*
X4520891Y-6773109D01*
X4443109Y-6773109D01*
X4443109Y-6850891D01*
X4520891Y-6850891D01*
X4774891Y-5326891D02*
X4774891Y-5249109D01*
X4697109Y-5249109D01*
X4697109Y-5326891D01*
X4774891Y-5326891D01*
X4774891Y-6850891D02*
X4774891Y-6773109D01*
X4697109Y-6773109D01*
X4697109Y-6850891D01*
X4774891Y-6850891D01*
X5028891Y-5326891D02*
X5028891Y-5249109D01*
X4951109Y-5249109D01*
X4951109Y-5326891D01*
X5028891Y-5326891D01*
X5028891Y-6850891D02*
X5028891Y-6773109D01*
X4951109Y-6773109D01*
X4951109Y-6850891D01*
X5028891Y-6850891D01*
X5038891Y-3977891D02*
X5038891Y-3900109D01*
X4961109Y-3900109D01*
X4961109Y-3977891D01*
X5038891Y-3977891D01*
X5282891Y-5326891D02*
X5282891Y-5249109D01*
X5205109Y-5249109D01*
X5205109Y-5326891D01*
X5282891Y-5326891D01*
X5282891Y-6850891D02*
X5282891Y-6773109D01*
X5205109Y-6773109D01*
X5205109Y-6850891D01*
X5282891Y-6850891D01*
X5292891Y-3977891D02*
X5292891Y-3900109D01*
X5215109Y-3900109D01*
X5215109Y-3977891D01*
X5292891Y-3977891D01*
X5536891Y-5326891D02*
X5536891Y-5249109D01*
X5459109Y-5249109D01*
X5459109Y-5326891D01*
X5536891Y-5326891D01*
X5536891Y-6850891D02*
X5536891Y-6773109D01*
X5459109Y-6773109D01*
X5459109Y-6850891D01*
X5536891Y-6850891D01*
X5546891Y-3977891D02*
X5546891Y-3900109D01*
X5469109Y-3900109D01*
X5469109Y-3977891D01*
X5546891Y-3977891D01*
X5790891Y-5326891D02*
X5790891Y-5249109D01*
X5713109Y-5249109D01*
X5713109Y-5326891D01*
X5790891Y-5326891D01*
X5790891Y-6850891D02*
X5790891Y-6773109D01*
X5713109Y-6773109D01*
X5713109Y-6850891D01*
X5790891Y-6850891D01*
X5800891Y-3977891D02*
X5800891Y-3900109D01*
X5723109Y-3900109D01*
X5723109Y-3977891D01*
X5800891Y-3977891D01*
X6044891Y-5326891D02*
X6044891Y-5249109D01*
X5967109Y-5249109D01*
X5967109Y-5326891D01*
X6044891Y-5326891D01*
X6044891Y-6850891D02*
X6044891Y-6773109D01*
X5967109Y-6773109D01*
X5967109Y-6850891D01*
X6044891Y-6850891D01*
X6054891Y-3977891D02*
X6054891Y-3900109D01*
X5977109Y-3900109D01*
X5977109Y-3977891D01*
X6054891Y-3977891D01*
X6298891Y-5326891D02*
X6298891Y-5249109D01*
X6221109Y-5249109D01*
X6221109Y-5326891D01*
X6298891Y-5326891D01*
X6298891Y-6850891D02*
X6298891Y-6773109D01*
X6221109Y-6773109D01*
X6221109Y-6850891D01*
X6298891Y-6850891D01*
X6308891Y-3977891D02*
X6308891Y-3900109D01*
X6231109Y-3900109D01*
X6231109Y-3977891D01*
X6308891Y-3977891D01*
X6552891Y-5326891D02*
X6552891Y-5249109D01*
X6475109Y-5249109D01*
X6475109Y-5326891D01*
X6552891Y-5326891D01*
X6552891Y-6850891D02*
X6552891Y-6773109D01*
X6475109Y-6773109D01*
X6475109Y-6850891D01*
X6552891Y-6850891D01*
X6806891Y-5326891D02*
X6806891Y-5249109D01*
X6729109Y-5249109D01*
X6729109Y-5326891D01*
X6806891Y-5326891D01*
X6806891Y-6850891D02*
X6806891Y-6773109D01*
X6729109Y-6773109D01*
X6729109Y-6850891D01*
X6806891Y-6850891D01*
X6911891Y-4135891D02*
X6911891Y-4058109D01*
X6834109Y-4058109D01*
X6834109Y-4135891D01*
X6911891Y-4135891D01*
X6911891Y-4389891D02*
X6911891Y-4312109D01*
X6834109Y-4312109D01*
X6834109Y-4389891D01*
X6911891Y-4389891D01*
X6911891Y-4643891D02*
X6911891Y-4566109D01*
X6834109Y-4566109D01*
X6834109Y-4643891D01*
X6911891Y-4643891D01*
X6911891Y-4897891D02*
X6911891Y-4820109D01*
X6834109Y-4820109D01*
X6834109Y-4897891D01*
X6911891Y-4897891D01*
X7060891Y-5326891D02*
X7060891Y-5249109D01*
X6983109Y-5249109D01*
X6983109Y-5326891D01*
X7060891Y-5326891D01*
X7060891Y-6850891D02*
X7060891Y-6773109D01*
X6983109Y-6773109D01*
X6983109Y-6850891D01*
X7060891Y-6850891D01*
X7314891Y-5326891D02*
X7314891Y-5249109D01*
X7237109Y-5249109D01*
X7237109Y-5326891D01*
X7314891Y-5326891D01*
X7314891Y-5580891D02*
X7314891Y-5503109D01*
X7237109Y-5503109D01*
X7237109Y-5580891D01*
X7314891Y-5580891D01*
X7314891Y-5834891D02*
X7314891Y-5757109D01*
X7237109Y-5757109D01*
X7237109Y-5834891D01*
X7314891Y-5834891D01*
X7314891Y-6088891D02*
X7314891Y-6011109D01*
X7237109Y-6011109D01*
X7237109Y-6088891D01*
X7314891Y-6088891D01*
X7314891Y-6342891D02*
X7314891Y-6265109D01*
X7237109Y-6265109D01*
X7237109Y-6342891D01*
X7314891Y-6342891D01*
X7314891Y-6596891D02*
X7314891Y-6519109D01*
X7237109Y-6519109D01*
X7237109Y-6596891D01*
X7314891Y-6596891D01*
X7314891Y-6850891D02*
X7314891Y-6773109D01*
X7237109Y-6773109D01*
X7237109Y-6850891D01*
X7314891Y-6850891D01*
X7454891Y-4902891D02*
X7454891Y-4825109D01*
X7377109Y-4825109D01*
X7377109Y-4902891D01*
X7454891Y-4902891D01*
X7708891Y-4902891D02*
X7708891Y-4825109D01*
X7631109Y-4825109D01*
X7631109Y-4902891D01*
X7708891Y-4902891D01*
X7962891Y-4902891D02*
X7962891Y-4825109D01*
X7885109Y-4825109D01*
X7885109Y-4902891D01*
X7962891Y-4902891D01*
X8358391Y-5384891D02*
X8358391Y-5307109D01*
X8280609Y-5307109D01*
X8280609Y-5384891D01*
X8358391Y-5384891D01*
X8505891Y-4135891D02*
X8505891Y-4058109D01*
X8428109Y-4058109D01*
X8428109Y-4135891D01*
X8505891Y-4135891D01*
X8505891Y-4389891D02*
X8505891Y-4312109D01*
X8428109Y-4312109D01*
X8428109Y-4389891D01*
X8505891Y-4389891D01*
X8505891Y-4643891D02*
X8505891Y-4566109D01*
X8428109Y-4566109D01*
X8428109Y-4643891D01*
X8505891Y-4643891D01*
X8505891Y-4897891D02*
X8505891Y-4820109D01*
X8428109Y-4820109D01*
X8428109Y-4897891D01*
X8505891Y-4897891D01*
X8612391Y-5384891D02*
X8612391Y-5307109D01*
X8534609Y-5307109D01*
X8534609Y-5384891D01*
X8612391Y-5384891D01*
X8866391Y-5384891D02*
X8866391Y-5307109D01*
X8788609Y-5307109D01*
X8788609Y-5384891D01*
X8866391Y-5384891D01*
X9120391Y-5384891D02*
X9120391Y-5307109D01*
X9042609Y-5307109D01*
X9042609Y-5384891D01*
X9120391Y-5384891D01*
X9374391Y-5384891D02*
X9374391Y-5307109D01*
X9296609Y-5307109D01*
X9296609Y-5384891D01*
X9374391Y-5384891D01*
X9628391Y-5384891D02*
X9628391Y-5307109D01*
X9550609Y-5307109D01*
X9550609Y-5384891D01*
X9628391Y-5384891D01*
X9882391Y-5384891D02*
X9882391Y-5307109D01*
X9804609Y-5307109D01*
X9804609Y-5384891D01*
X9882391Y-5384891D01*
X10136391Y-5384891D02*
X10136391Y-5307109D01*
X10058609Y-5307109D01*
X10058609Y-5384891D01*
X10136391Y-5384891D01*
X10786891Y-6036891D02*
X10786891Y-5959109D01*
X10709109Y-5959109D01*
X10709109Y-6036891D01*
X10786891Y-6036891D01*
X10786891Y-6290891D02*
X10786891Y-6213109D01*
X10709109Y-6213109D01*
X10709109Y-6290891D01*
X10786891Y-6290891D01*
X10786891Y-6544891D02*
X10786891Y-6467109D01*
X10709109Y-6467109D01*
X10709109Y-6544891D01*
X10786891Y-6544891D01*
X10786891Y-6798891D02*
X10786891Y-6721109D01*
X10709109Y-6721109D01*
X10709109Y-6798891D01*
X10786891Y-6798891D01*
X10786891Y-7052891D02*
X10786891Y-6975109D01*
X10709109Y-6975109D01*
X10709109Y-7052891D01*
X10786891Y-7052891D01*
X4000000Y-4160000D02*
X4160000Y-4000000D01*
X4000000Y-3840000D01*
X3840000Y-4000000D01*
X4000000Y-4160000D01*
X8242500Y-6053000D02*
X8402500Y-5893000D01*
X8242500Y-5733000D01*
X8082500Y-5893000D01*
X8242500Y-6053000D01*
X8252500Y-8587000D02*
X8412500Y-8427000D01*
X8252500Y-8267000D01*
X8092500Y-8427000D01*
X8252500Y-8587000D01*
X9059000Y-4235000D02*
X9219000Y-4075000D01*
X9059000Y-3915000D01*
X8899000Y-4075000D01*
X9059000Y-4235000D01*
X9059000Y-6835000D02*
X9219000Y-6675000D01*
X9059000Y-6515000D01*
X8899000Y-6675000D01*
X9059000Y-6835000D01*
X10147500Y-8587000D02*
X10307500Y-8427000D01*
X10147500Y-8267000D01*
X9987500Y-8427000D01*
X10147500Y-8587000D01*
X10157500Y-6053000D02*
X10317500Y-5893000D01*
X10157500Y-5733000D01*
X9997500Y-5893000D01*
X10157500Y-6053000D01*
X12778000Y-5535000D02*
X12938000Y-5375000D01*
X12778000Y-5215000D01*
X12618000Y-5375000D01*
X12778000Y-5535000D01*
X12894000Y-7596000D02*
X13054000Y-7436000D01*
X12894000Y-7276000D01*
X12734000Y-7436000D01*
X12894000Y-7596000D01*
X13000000Y-9160000D02*
X13160000Y-9000000D01*
X13000000Y-8840000D01*
X12840000Y-9000000D01*
X13000000Y-9160000D01*
X3950000Y-7475000D02*
X4400000Y-7925000D01*
X4400000Y-7475000D02*
X3950000Y-7925000D01*
X4400000Y-7700000D02*
G75*
G03*
X4400000Y-7700000I-225000J0D01*
G01*
X3950000Y-8195000D02*
X4400000Y-8645000D01*
X4400000Y-8195000D02*
X3950000Y-8645000D01*
X4400000Y-8420000D02*
G75*
G03*
X4400000Y-8420000I-225000J0D01*
G01*
D12*
X3783928Y-9968214D02*
X3783928Y-9668214D01*
X3855357Y-9668214D01*
X3898214Y-9682500D01*
X3926786Y-9711072D01*
X3941071Y-9739643D01*
X3955357Y-9796786D01*
X3955357Y-9839643D01*
X3941071Y-9896786D01*
X3926786Y-9925357D01*
X3898214Y-9953929D01*
X3855357Y-9968214D01*
X3783928Y-9968214D01*
X4083928Y-9968214D02*
X4083928Y-9768214D01*
X4083928Y-9825357D02*
X4098214Y-9796786D01*
X4112500Y-9782500D01*
X4141071Y-9768214D01*
X4169643Y-9768214D01*
X4269643Y-9968214D02*
X4269643Y-9768214D01*
X4269643Y-9668214D02*
X4255357Y-9682500D01*
X4269643Y-9696786D01*
X4283928Y-9682500D01*
X4269643Y-9668214D01*
X4269643Y-9696786D01*
X4455357Y-9968214D02*
X4426786Y-9953929D01*
X4412500Y-9925357D01*
X4412500Y-9668214D01*
X4612500Y-9968214D02*
X4583928Y-9953929D01*
X4569643Y-9925357D01*
X4569643Y-9668214D01*
X4955357Y-9968214D02*
X4955357Y-9668214D01*
X5055357Y-9882500D01*
X5155357Y-9668214D01*
X5155357Y-9968214D01*
X5426786Y-9968214D02*
X5426786Y-9811072D01*
X5412500Y-9782500D01*
X5383928Y-9768214D01*
X5326786Y-9768214D01*
X5298214Y-9782500D01*
X5426786Y-9953929D02*
X5398214Y-9968214D01*
X5326786Y-9968214D01*
X5298214Y-9953929D01*
X5283928Y-9925357D01*
X5283928Y-9896786D01*
X5298214Y-9868214D01*
X5326786Y-9853929D01*
X5398214Y-9853929D01*
X5426786Y-9839643D01*
X5569643Y-9768214D02*
X5569643Y-10068214D01*
X5569643Y-9782500D02*
X5598214Y-9768214D01*
X5655357Y-9768214D01*
X5683928Y-9782500D01*
X5698214Y-9796786D01*
X5712500Y-9825357D01*
X5712500Y-9911072D01*
X5698214Y-9939643D01*
X5683928Y-9953929D01*
X5655357Y-9968214D01*
X5598214Y-9968214D01*
X5569643Y-9953929D01*
X5841071Y-9939643D02*
X5855357Y-9953929D01*
X5841071Y-9968214D01*
X5826786Y-9953929D01*
X5841071Y-9939643D01*
X5841071Y-9968214D01*
X5841071Y-9782500D02*
X5855357Y-9796786D01*
X5841071Y-9811072D01*
X5826786Y-9796786D01*
X5841071Y-9782500D01*
X5841071Y-9811072D01*
X3457500Y-10442500D02*
X3497500Y-10482500D01*
X3497500Y-10442500D02*
X3457500Y-10482500D01*
X3841071Y-10298214D02*
X3869643Y-10298214D01*
X3898214Y-10312500D01*
X3912500Y-10326786D01*
X3926786Y-10355357D01*
X3941071Y-10412500D01*
X3941071Y-10483929D01*
X3926786Y-10541072D01*
X3912500Y-10569643D01*
X3898214Y-10583929D01*
X3869643Y-10598214D01*
X3841071Y-10598214D01*
X3812500Y-10583929D01*
X3798214Y-10569643D01*
X3783928Y-10541072D01*
X3769643Y-10483929D01*
X3769643Y-10412500D01*
X3783928Y-10355357D01*
X3798214Y-10326786D01*
X3812500Y-10312500D01*
X3841071Y-10298214D01*
X4069643Y-10569643D02*
X4083928Y-10583929D01*
X4069643Y-10598214D01*
X4055357Y-10583929D01*
X4069643Y-10569643D01*
X4069643Y-10598214D01*
X4341071Y-10398214D02*
X4341071Y-10598214D01*
X4269643Y-10283929D02*
X4198214Y-10498214D01*
X4383928Y-10498214D01*
X4555357Y-10298214D02*
X4583928Y-10298214D01*
X4612500Y-10312500D01*
X4626786Y-10326786D01*
X4641071Y-10355357D01*
X4655357Y-10412500D01*
X4655357Y-10483929D01*
X4641071Y-10541072D01*
X4626786Y-10569643D01*
X4612500Y-10583929D01*
X4583928Y-10598214D01*
X4555357Y-10598214D01*
X4526786Y-10583929D01*
X4512500Y-10569643D01*
X4498214Y-10541072D01*
X4483928Y-10483929D01*
X4483928Y-10412500D01*
X4498214Y-10355357D01*
X4512500Y-10326786D01*
X4526786Y-10312500D01*
X4555357Y-10298214D01*
X4841071Y-10298214D02*
X4869643Y-10298214D01*
X4898214Y-10312500D01*
X4912500Y-10326786D01*
X4926786Y-10355357D01*
X4941071Y-10412500D01*
X4941071Y-10483929D01*
X4926786Y-10541072D01*
X4912500Y-10569643D01*
X4898214Y-10583929D01*
X4869643Y-10598214D01*
X4841071Y-10598214D01*
X4812500Y-10583929D01*
X4798214Y-10569643D01*
X4783928Y-10541072D01*
X4769643Y-10483929D01*
X4769643Y-10412500D01*
X4783928Y-10355357D01*
X4798214Y-10326786D01*
X4812500Y-10312500D01*
X4841071Y-10298214D01*
X5069643Y-10598214D02*
X5069643Y-10398214D01*
X5069643Y-10426786D02*
X5083928Y-10412500D01*
X5112500Y-10398214D01*
X5155357Y-10398214D01*
X5183928Y-10412500D01*
X5198214Y-10441072D01*
X5198214Y-10598214D01*
X5198214Y-10441072D02*
X5212500Y-10412500D01*
X5241071Y-10398214D01*
X5283928Y-10398214D01*
X5312500Y-10412500D01*
X5326786Y-10441072D01*
X5326786Y-10598214D01*
X5469643Y-10598214D02*
X5469643Y-10398214D01*
X5469643Y-10426786D02*
X5483928Y-10412500D01*
X5512500Y-10398214D01*
X5555357Y-10398214D01*
X5583928Y-10412500D01*
X5598214Y-10441072D01*
X5598214Y-10598214D01*
X5598214Y-10441072D02*
X5612500Y-10412500D01*
X5641071Y-10398214D01*
X5683928Y-10398214D01*
X5712500Y-10412500D01*
X5726786Y-10441072D01*
X5726786Y-10598214D01*
X6312500Y-10283929D02*
X6055357Y-10669643D01*
X6698214Y-10298214D02*
X6726786Y-10298214D01*
X6755357Y-10312500D01*
X6769643Y-10326786D01*
X6783928Y-10355357D01*
X6798214Y-10412500D01*
X6798214Y-10483929D01*
X6783928Y-10541072D01*
X6769643Y-10569643D01*
X6755357Y-10583929D01*
X6726786Y-10598214D01*
X6698214Y-10598214D01*
X6669643Y-10583929D01*
X6655357Y-10569643D01*
X6641071Y-10541072D01*
X6626786Y-10483929D01*
X6626786Y-10412500D01*
X6641071Y-10355357D01*
X6655357Y-10326786D01*
X6669643Y-10312500D01*
X6698214Y-10298214D01*
X6926786Y-10569643D02*
X6941071Y-10583929D01*
X6926786Y-10598214D01*
X6912500Y-10583929D01*
X6926786Y-10569643D01*
X6926786Y-10598214D01*
X7126786Y-10298214D02*
X7155357Y-10298214D01*
X7183928Y-10312500D01*
X7198214Y-10326786D01*
X7212500Y-10355357D01*
X7226786Y-10412500D01*
X7226786Y-10483929D01*
X7212500Y-10541072D01*
X7198214Y-10569643D01*
X7183928Y-10583929D01*
X7155357Y-10598214D01*
X7126786Y-10598214D01*
X7098214Y-10583929D01*
X7083928Y-10569643D01*
X7069643Y-10541072D01*
X7055357Y-10483929D01*
X7055357Y-10412500D01*
X7069643Y-10355357D01*
X7083928Y-10326786D01*
X7098214Y-10312500D01*
X7126786Y-10298214D01*
X7512500Y-10598214D02*
X7341071Y-10598214D01*
X7426786Y-10598214D02*
X7426786Y-10298214D01*
X7398214Y-10341072D01*
X7369643Y-10369643D01*
X7341071Y-10383929D01*
X7783928Y-10298214D02*
X7641071Y-10298214D01*
X7626786Y-10441072D01*
X7641071Y-10426786D01*
X7669643Y-10412500D01*
X7741071Y-10412500D01*
X7769643Y-10426786D01*
X7783928Y-10441072D01*
X7798214Y-10469643D01*
X7798214Y-10541072D01*
X7783928Y-10569643D01*
X7769643Y-10583929D01*
X7741071Y-10598214D01*
X7669643Y-10598214D01*
X7641071Y-10583929D01*
X7626786Y-10569643D01*
X7898214Y-10298214D02*
X8098214Y-10298214D01*
X7969643Y-10598214D01*
X8198214Y-10298214D02*
X8198214Y-10355357D01*
X8312500Y-10298214D02*
X8312500Y-10355357D01*
X8755357Y-10712500D02*
X8741071Y-10698214D01*
X8712500Y-10655357D01*
X8698214Y-10626786D01*
X8683928Y-10583929D01*
X8669643Y-10512500D01*
X8669643Y-10455357D01*
X8683928Y-10383929D01*
X8698214Y-10341072D01*
X8712500Y-10312500D01*
X8741071Y-10269643D01*
X8755357Y-10255357D01*
X8998214Y-10298214D02*
X8941071Y-10298214D01*
X8912500Y-10312500D01*
X8898214Y-10326786D01*
X8869643Y-10369643D01*
X8855357Y-10426786D01*
X8855357Y-10541072D01*
X8869643Y-10569643D01*
X8883928Y-10583929D01*
X8912500Y-10598214D01*
X8969643Y-10598214D01*
X8998214Y-10583929D01*
X9012500Y-10569643D01*
X9026786Y-10541072D01*
X9026786Y-10469643D01*
X9012500Y-10441072D01*
X8998214Y-10426786D01*
X8969643Y-10412500D01*
X8912500Y-10412500D01*
X8883928Y-10426786D01*
X8869643Y-10441072D01*
X8855357Y-10469643D01*
X9383928Y-10598214D02*
X9383928Y-10298214D01*
X9512500Y-10598214D02*
X9512500Y-10441072D01*
X9498214Y-10412500D01*
X9469643Y-10398214D01*
X9426786Y-10398214D01*
X9398214Y-10412500D01*
X9383928Y-10426786D01*
X9698214Y-10598214D02*
X9669643Y-10583929D01*
X9655357Y-10569643D01*
X9641071Y-10541072D01*
X9641071Y-10455357D01*
X9655357Y-10426786D01*
X9669643Y-10412500D01*
X9698214Y-10398214D01*
X9741071Y-10398214D01*
X9769643Y-10412500D01*
X9783928Y-10426786D01*
X9798214Y-10455357D01*
X9798214Y-10541072D01*
X9783928Y-10569643D01*
X9769643Y-10583929D01*
X9741071Y-10598214D01*
X9698214Y-10598214D01*
X9969643Y-10598214D02*
X9941071Y-10583929D01*
X9926786Y-10555357D01*
X9926786Y-10298214D01*
X10198214Y-10583929D02*
X10169643Y-10598214D01*
X10112500Y-10598214D01*
X10083928Y-10583929D01*
X10069643Y-10555357D01*
X10069643Y-10441072D01*
X10083928Y-10412500D01*
X10112500Y-10398214D01*
X10169643Y-10398214D01*
X10198214Y-10412500D01*
X10212500Y-10441072D01*
X10212500Y-10469643D01*
X10069643Y-10498214D01*
X10326786Y-10583929D02*
X10355357Y-10598214D01*
X10412500Y-10598214D01*
X10441071Y-10583929D01*
X10455357Y-10555357D01*
X10455357Y-10541072D01*
X10441071Y-10512500D01*
X10412500Y-10498214D01*
X10369643Y-10498214D01*
X10341071Y-10483929D01*
X10326786Y-10455357D01*
X10326786Y-10441072D01*
X10341071Y-10412500D01*
X10369643Y-10398214D01*
X10412500Y-10398214D01*
X10441071Y-10412500D01*
X10555357Y-10712500D02*
X10569643Y-10698214D01*
X10598214Y-10655357D01*
X10612500Y-10626786D01*
X10626786Y-10583929D01*
X10641071Y-10512500D01*
X10641071Y-10455357D01*
X10626786Y-10383929D01*
X10612500Y-10341072D01*
X10598214Y-10312500D01*
X10569643Y-10269643D01*
X10555357Y-10255357D01*
X3497500Y-10858500D02*
G75*
G03*
X3497500Y-10858500I-25000J0D01*
G01*
X3841071Y-10694214D02*
X3869643Y-10694214D01*
X3898214Y-10708500D01*
X3912500Y-10722786D01*
X3926786Y-10751357D01*
X3941071Y-10808500D01*
X3941071Y-10879929D01*
X3926786Y-10937072D01*
X3912500Y-10965643D01*
X3898214Y-10979929D01*
X3869643Y-10994214D01*
X3841071Y-10994214D01*
X3812500Y-10979929D01*
X3798214Y-10965643D01*
X3783928Y-10937072D01*
X3769643Y-10879929D01*
X3769643Y-10808500D01*
X3783928Y-10751357D01*
X3798214Y-10722786D01*
X3812500Y-10708500D01*
X3841071Y-10694214D01*
X4069643Y-10965643D02*
X4083928Y-10979929D01*
X4069643Y-10994214D01*
X4055357Y-10979929D01*
X4069643Y-10965643D01*
X4069643Y-10994214D01*
X4355357Y-10694214D02*
X4212500Y-10694214D01*
X4198214Y-10837072D01*
X4212500Y-10822786D01*
X4241071Y-10808500D01*
X4312500Y-10808500D01*
X4341071Y-10822786D01*
X4355357Y-10837072D01*
X4369643Y-10865643D01*
X4369643Y-10937072D01*
X4355357Y-10965643D01*
X4341071Y-10979929D01*
X4312500Y-10994214D01*
X4241071Y-10994214D01*
X4212500Y-10979929D01*
X4198214Y-10965643D01*
X4555357Y-10694214D02*
X4583928Y-10694214D01*
X4612500Y-10708500D01*
X4626786Y-10722786D01*
X4641071Y-10751357D01*
X4655357Y-10808500D01*
X4655357Y-10879929D01*
X4641071Y-10937072D01*
X4626786Y-10965643D01*
X4612500Y-10979929D01*
X4583928Y-10994214D01*
X4555357Y-10994214D01*
X4526786Y-10979929D01*
X4512500Y-10965643D01*
X4498214Y-10937072D01*
X4483928Y-10879929D01*
X4483928Y-10808500D01*
X4498214Y-10751357D01*
X4512500Y-10722786D01*
X4526786Y-10708500D01*
X4555357Y-10694214D01*
X4841071Y-10694214D02*
X4869643Y-10694214D01*
X4898214Y-10708500D01*
X4912500Y-10722786D01*
X4926786Y-10751357D01*
X4941071Y-10808500D01*
X4941071Y-10879929D01*
X4926786Y-10937072D01*
X4912500Y-10965643D01*
X4898214Y-10979929D01*
X4869643Y-10994214D01*
X4841071Y-10994214D01*
X4812500Y-10979929D01*
X4798214Y-10965643D01*
X4783928Y-10937072D01*
X4769643Y-10879929D01*
X4769643Y-10808500D01*
X4783928Y-10751357D01*
X4798214Y-10722786D01*
X4812500Y-10708500D01*
X4841071Y-10694214D01*
X5069643Y-10994214D02*
X5069643Y-10794214D01*
X5069643Y-10822786D02*
X5083928Y-10808500D01*
X5112500Y-10794214D01*
X5155357Y-10794214D01*
X5183928Y-10808500D01*
X5198214Y-10837072D01*
X5198214Y-10994214D01*
X5198214Y-10837072D02*
X5212500Y-10808500D01*
X5241071Y-10794214D01*
X5283928Y-10794214D01*
X5312500Y-10808500D01*
X5326786Y-10837072D01*
X5326786Y-10994214D01*
X5469643Y-10994214D02*
X5469643Y-10794214D01*
X5469643Y-10822786D02*
X5483928Y-10808500D01*
X5512500Y-10794214D01*
X5555357Y-10794214D01*
X5583928Y-10808500D01*
X5598214Y-10837072D01*
X5598214Y-10994214D01*
X5598214Y-10837072D02*
X5612500Y-10808500D01*
X5641071Y-10794214D01*
X5683928Y-10794214D01*
X5712500Y-10808500D01*
X5726786Y-10837072D01*
X5726786Y-10994214D01*
X6312500Y-10679929D02*
X6055357Y-11065643D01*
X6698214Y-10694214D02*
X6726786Y-10694214D01*
X6755357Y-10708500D01*
X6769643Y-10722786D01*
X6783928Y-10751357D01*
X6798214Y-10808500D01*
X6798214Y-10879929D01*
X6783928Y-10937072D01*
X6769643Y-10965643D01*
X6755357Y-10979929D01*
X6726786Y-10994214D01*
X6698214Y-10994214D01*
X6669643Y-10979929D01*
X6655357Y-10965643D01*
X6641071Y-10937072D01*
X6626786Y-10879929D01*
X6626786Y-10808500D01*
X6641071Y-10751357D01*
X6655357Y-10722786D01*
X6669643Y-10708500D01*
X6698214Y-10694214D01*
X6926786Y-10965643D02*
X6941071Y-10979929D01*
X6926786Y-10994214D01*
X6912500Y-10979929D01*
X6926786Y-10965643D01*
X6926786Y-10994214D01*
X7126786Y-10694214D02*
X7155357Y-10694214D01*
X7183928Y-10708500D01*
X7198214Y-10722786D01*
X7212500Y-10751357D01*
X7226786Y-10808500D01*
X7226786Y-10879929D01*
X7212500Y-10937072D01*
X7198214Y-10965643D01*
X7183928Y-10979929D01*
X7155357Y-10994214D01*
X7126786Y-10994214D01*
X7098214Y-10979929D01*
X7083928Y-10965643D01*
X7069643Y-10937072D01*
X7055357Y-10879929D01*
X7055357Y-10808500D01*
X7069643Y-10751357D01*
X7083928Y-10722786D01*
X7098214Y-10708500D01*
X7126786Y-10694214D01*
X7512500Y-10994214D02*
X7341071Y-10994214D01*
X7426786Y-10994214D02*
X7426786Y-10694214D01*
X7398214Y-10737072D01*
X7369643Y-10765643D01*
X7341071Y-10779929D01*
X7655357Y-10994214D02*
X7712500Y-10994214D01*
X7741071Y-10979929D01*
X7755357Y-10965643D01*
X7783928Y-10922786D01*
X7798214Y-10865643D01*
X7798214Y-10751357D01*
X7783928Y-10722786D01*
X7769643Y-10708500D01*
X7741071Y-10694214D01*
X7683928Y-10694214D01*
X7655357Y-10708500D01*
X7641071Y-10722786D01*
X7626786Y-10751357D01*
X7626786Y-10822786D01*
X7641071Y-10851357D01*
X7655357Y-10865643D01*
X7683928Y-10879929D01*
X7741071Y-10879929D01*
X7769643Y-10865643D01*
X7783928Y-10851357D01*
X7798214Y-10822786D01*
X7898214Y-10694214D02*
X8098214Y-10694214D01*
X7969643Y-10994214D01*
X8198214Y-10694214D02*
X8198214Y-10751357D01*
X8312500Y-10694214D02*
X8312500Y-10751357D01*
X8755357Y-11108500D02*
X8741071Y-11094214D01*
X8712500Y-11051357D01*
X8698214Y-11022786D01*
X8683928Y-10979929D01*
X8669643Y-10908500D01*
X8669643Y-10851357D01*
X8683928Y-10779929D01*
X8698214Y-10737072D01*
X8712500Y-10708500D01*
X8741071Y-10665643D01*
X8755357Y-10651357D01*
X9026786Y-10994214D02*
X8855357Y-10994214D01*
X8941071Y-10994214D02*
X8941071Y-10694214D01*
X8912500Y-10737072D01*
X8883928Y-10765643D01*
X8855357Y-10779929D01*
X9283928Y-10694214D02*
X9226786Y-10694214D01*
X9198214Y-10708500D01*
X9183928Y-10722786D01*
X9155357Y-10765643D01*
X9141071Y-10822786D01*
X9141071Y-10937072D01*
X9155357Y-10965643D01*
X9169643Y-10979929D01*
X9198214Y-10994214D01*
X9255357Y-10994214D01*
X9283928Y-10979929D01*
X9298214Y-10965643D01*
X9312500Y-10937072D01*
X9312500Y-10865643D01*
X9298214Y-10837072D01*
X9283928Y-10822786D01*
X9255357Y-10808500D01*
X9198214Y-10808500D01*
X9169643Y-10822786D01*
X9155357Y-10837072D01*
X9141071Y-10865643D01*
X9669643Y-10994214D02*
X9669643Y-10694214D01*
X9798214Y-10994214D02*
X9798214Y-10837072D01*
X9783928Y-10808500D01*
X9755357Y-10794214D01*
X9712500Y-10794214D01*
X9683928Y-10808500D01*
X9669643Y-10822786D01*
X9983928Y-10994214D02*
X9955357Y-10979929D01*
X9941071Y-10965643D01*
X9926786Y-10937072D01*
X9926786Y-10851357D01*
X9941071Y-10822786D01*
X9955357Y-10808500D01*
X9983928Y-10794214D01*
X10026786Y-10794214D01*
X10055357Y-10808500D01*
X10069643Y-10822786D01*
X10083928Y-10851357D01*
X10083928Y-10937072D01*
X10069643Y-10965643D01*
X10055357Y-10979929D01*
X10026786Y-10994214D01*
X9983928Y-10994214D01*
X10255357Y-10994214D02*
X10226786Y-10979929D01*
X10212500Y-10951357D01*
X10212500Y-10694214D01*
X10483928Y-10979929D02*
X10455357Y-10994214D01*
X10398214Y-10994214D01*
X10369643Y-10979929D01*
X10355357Y-10951357D01*
X10355357Y-10837072D01*
X10369643Y-10808500D01*
X10398214Y-10794214D01*
X10455357Y-10794214D01*
X10483928Y-10808500D01*
X10498214Y-10837072D01*
X10498214Y-10865643D01*
X10355357Y-10894214D01*
X10612500Y-10979929D02*
X10641071Y-10994214D01*
X10698214Y-10994214D01*
X10726786Y-10979929D01*
X10741071Y-10951357D01*
X10741071Y-10937072D01*
X10726786Y-10908500D01*
X10698214Y-10894214D01*
X10655357Y-10894214D01*
X10626786Y-10879929D01*
X10612500Y-10851357D01*
X10612500Y-10837072D01*
X10626786Y-10808500D01*
X10655357Y-10794214D01*
X10698214Y-10794214D01*
X10726786Y-10808500D01*
X10841071Y-11108500D02*
X10855357Y-11094214D01*
X10883928Y-11051357D01*
X10898214Y-11022786D01*
X10912500Y-10979929D01*
X10926786Y-10908500D01*
X10926786Y-10851357D01*
X10912500Y-10779929D01*
X10898214Y-10737072D01*
X10883928Y-10708500D01*
X10855357Y-10665643D01*
X10841071Y-10651357D01*
X3447500Y-11204500D02*
X3447500Y-11304500D01*
X3397500Y-11254500D02*
X3497500Y-11254500D01*
X3941071Y-11390214D02*
X3769643Y-11390214D01*
X3855357Y-11390214D02*
X3855357Y-11090214D01*
X3826786Y-11133072D01*
X3798214Y-11161643D01*
X3769643Y-11175929D01*
X4069643Y-11361643D02*
X4083928Y-11375929D01*
X4069643Y-11390214D01*
X4055357Y-11375929D01*
X4069643Y-11361643D01*
X4069643Y-11390214D01*
X4269643Y-11090214D02*
X4298214Y-11090214D01*
X4326786Y-11104500D01*
X4341071Y-11118786D01*
X4355357Y-11147357D01*
X4369643Y-11204500D01*
X4369643Y-11275929D01*
X4355357Y-11333071D01*
X4341071Y-11361643D01*
X4326786Y-11375929D01*
X4298214Y-11390214D01*
X4269643Y-11390214D01*
X4241071Y-11375929D01*
X4226786Y-11361643D01*
X4212500Y-11333071D01*
X4198214Y-11275929D01*
X4198214Y-11204500D01*
X4212500Y-11147357D01*
X4226786Y-11118786D01*
X4241071Y-11104500D01*
X4269643Y-11090214D01*
X4555357Y-11090214D02*
X4583928Y-11090214D01*
X4612500Y-11104500D01*
X4626786Y-11118786D01*
X4641071Y-11147357D01*
X4655357Y-11204500D01*
X4655357Y-11275929D01*
X4641071Y-11333071D01*
X4626786Y-11361643D01*
X4612500Y-11375929D01*
X4583928Y-11390214D01*
X4555357Y-11390214D01*
X4526786Y-11375929D01*
X4512500Y-11361643D01*
X4498214Y-11333071D01*
X4483928Y-11275929D01*
X4483928Y-11204500D01*
X4498214Y-11147357D01*
X4512500Y-11118786D01*
X4526786Y-11104500D01*
X4555357Y-11090214D01*
X4841071Y-11090214D02*
X4869643Y-11090214D01*
X4898214Y-11104500D01*
X4912500Y-11118786D01*
X4926786Y-11147357D01*
X4941071Y-11204500D01*
X4941071Y-11275929D01*
X4926786Y-11333071D01*
X4912500Y-11361643D01*
X4898214Y-11375929D01*
X4869643Y-11390214D01*
X4841071Y-11390214D01*
X4812500Y-11375929D01*
X4798214Y-11361643D01*
X4783928Y-11333071D01*
X4769643Y-11275929D01*
X4769643Y-11204500D01*
X4783928Y-11147357D01*
X4798214Y-11118786D01*
X4812500Y-11104500D01*
X4841071Y-11090214D01*
X5069643Y-11390214D02*
X5069643Y-11190214D01*
X5069643Y-11218786D02*
X5083928Y-11204500D01*
X5112500Y-11190214D01*
X5155357Y-11190214D01*
X5183928Y-11204500D01*
X5198214Y-11233071D01*
X5198214Y-11390214D01*
X5198214Y-11233071D02*
X5212500Y-11204500D01*
X5241071Y-11190214D01*
X5283928Y-11190214D01*
X5312500Y-11204500D01*
X5326786Y-11233071D01*
X5326786Y-11390214D01*
X5469643Y-11390214D02*
X5469643Y-11190214D01*
X5469643Y-11218786D02*
X5483928Y-11204500D01*
X5512500Y-11190214D01*
X5555357Y-11190214D01*
X5583928Y-11204500D01*
X5598214Y-11233071D01*
X5598214Y-11390214D01*
X5598214Y-11233071D02*
X5612500Y-11204500D01*
X5641071Y-11190214D01*
X5683928Y-11190214D01*
X5712500Y-11204500D01*
X5726786Y-11233071D01*
X5726786Y-11390214D01*
X6312500Y-11075929D02*
X6055357Y-11461643D01*
X6698214Y-11090214D02*
X6726786Y-11090214D01*
X6755357Y-11104500D01*
X6769643Y-11118786D01*
X6783928Y-11147357D01*
X6798214Y-11204500D01*
X6798214Y-11275929D01*
X6783928Y-11333071D01*
X6769643Y-11361643D01*
X6755357Y-11375929D01*
X6726786Y-11390214D01*
X6698214Y-11390214D01*
X6669643Y-11375929D01*
X6655357Y-11361643D01*
X6641071Y-11333071D01*
X6626786Y-11275929D01*
X6626786Y-11204500D01*
X6641071Y-11147357D01*
X6655357Y-11118786D01*
X6669643Y-11104500D01*
X6698214Y-11090214D01*
X6926786Y-11361643D02*
X6941071Y-11375929D01*
X6926786Y-11390214D01*
X6912500Y-11375929D01*
X6926786Y-11361643D01*
X6926786Y-11390214D01*
X7126786Y-11090214D02*
X7155357Y-11090214D01*
X7183928Y-11104500D01*
X7198214Y-11118786D01*
X7212500Y-11147357D01*
X7226786Y-11204500D01*
X7226786Y-11275929D01*
X7212500Y-11333071D01*
X7198214Y-11361643D01*
X7183928Y-11375929D01*
X7155357Y-11390214D01*
X7126786Y-11390214D01*
X7098214Y-11375929D01*
X7083928Y-11361643D01*
X7069643Y-11333071D01*
X7055357Y-11275929D01*
X7055357Y-11204500D01*
X7069643Y-11147357D01*
X7083928Y-11118786D01*
X7098214Y-11104500D01*
X7126786Y-11090214D01*
X7326786Y-11090214D02*
X7512500Y-11090214D01*
X7412500Y-11204500D01*
X7455357Y-11204500D01*
X7483928Y-11218786D01*
X7498214Y-11233071D01*
X7512500Y-11261643D01*
X7512500Y-11333071D01*
X7498214Y-11361643D01*
X7483928Y-11375929D01*
X7455357Y-11390214D01*
X7369643Y-11390214D01*
X7341071Y-11375929D01*
X7326786Y-11361643D01*
X7655357Y-11390214D02*
X7712500Y-11390214D01*
X7741071Y-11375929D01*
X7755357Y-11361643D01*
X7783928Y-11318786D01*
X7798214Y-11261643D01*
X7798214Y-11147357D01*
X7783928Y-11118786D01*
X7769643Y-11104500D01*
X7741071Y-11090214D01*
X7683928Y-11090214D01*
X7655357Y-11104500D01*
X7641071Y-11118786D01*
X7626786Y-11147357D01*
X7626786Y-11218786D01*
X7641071Y-11247357D01*
X7655357Y-11261643D01*
X7683928Y-11275929D01*
X7741071Y-11275929D01*
X7769643Y-11261643D01*
X7783928Y-11247357D01*
X7798214Y-11218786D01*
X8055357Y-11190214D02*
X8055357Y-11390214D01*
X7983928Y-11075929D02*
X7912500Y-11290214D01*
X8098214Y-11290214D01*
X8198214Y-11090214D02*
X8198214Y-11147357D01*
X8312500Y-11090214D02*
X8312500Y-11147357D01*
X8755357Y-11504500D02*
X8741071Y-11490214D01*
X8712500Y-11447357D01*
X8698214Y-11418786D01*
X8683928Y-11375929D01*
X8669643Y-11304500D01*
X8669643Y-11247357D01*
X8683928Y-11175929D01*
X8698214Y-11133072D01*
X8712500Y-11104500D01*
X8741071Y-11061643D01*
X8755357Y-11047357D01*
X9026786Y-11390214D02*
X8855357Y-11390214D01*
X8941071Y-11390214D02*
X8941071Y-11090214D01*
X8912500Y-11133072D01*
X8883928Y-11161643D01*
X8855357Y-11175929D01*
X9283928Y-11090214D02*
X9226786Y-11090214D01*
X9198214Y-11104500D01*
X9183928Y-11118786D01*
X9155357Y-11161643D01*
X9141071Y-11218786D01*
X9141071Y-11333071D01*
X9155357Y-11361643D01*
X9169643Y-11375929D01*
X9198214Y-11390214D01*
X9255357Y-11390214D01*
X9283928Y-11375929D01*
X9298214Y-11361643D01*
X9312500Y-11333071D01*
X9312500Y-11261643D01*
X9298214Y-11233071D01*
X9283928Y-11218786D01*
X9255357Y-11204500D01*
X9198214Y-11204500D01*
X9169643Y-11218786D01*
X9155357Y-11233071D01*
X9141071Y-11261643D01*
X9669643Y-11390214D02*
X9669643Y-11090214D01*
X9798214Y-11390214D02*
X9798214Y-11233071D01*
X9783928Y-11204500D01*
X9755357Y-11190214D01*
X9712500Y-11190214D01*
X9683928Y-11204500D01*
X9669643Y-11218786D01*
X9983928Y-11390214D02*
X9955357Y-11375929D01*
X9941071Y-11361643D01*
X9926786Y-11333071D01*
X9926786Y-11247357D01*
X9941071Y-11218786D01*
X9955357Y-11204500D01*
X9983928Y-11190214D01*
X10026786Y-11190214D01*
X10055357Y-11204500D01*
X10069643Y-11218786D01*
X10083928Y-11247357D01*
X10083928Y-11333071D01*
X10069643Y-11361643D01*
X10055357Y-11375929D01*
X10026786Y-11390214D01*
X9983928Y-11390214D01*
X10255357Y-11390214D02*
X10226786Y-11375929D01*
X10212500Y-11347357D01*
X10212500Y-11090214D01*
X10483928Y-11375929D02*
X10455357Y-11390214D01*
X10398214Y-11390214D01*
X10369643Y-11375929D01*
X10355357Y-11347357D01*
X10355357Y-11233071D01*
X10369643Y-11204500D01*
X10398214Y-11190214D01*
X10455357Y-11190214D01*
X10483928Y-11204500D01*
X10498214Y-11233071D01*
X10498214Y-11261643D01*
X10355357Y-11290214D01*
X10612500Y-11375929D02*
X10641071Y-11390214D01*
X10698214Y-11390214D01*
X10726786Y-11375929D01*
X10741071Y-11347357D01*
X10741071Y-11333071D01*
X10726786Y-11304500D01*
X10698214Y-11290214D01*
X10655357Y-11290214D01*
X10626786Y-11275929D01*
X10612500Y-11247357D01*
X10612500Y-11233071D01*
X10626786Y-11204500D01*
X10655357Y-11190214D01*
X10698214Y-11190214D01*
X10726786Y-11204500D01*
X10841071Y-11504500D02*
X10855357Y-11490214D01*
X10883928Y-11447357D01*
X10898214Y-11418786D01*
X10912500Y-11375929D01*
X10926786Y-11304500D01*
X10926786Y-11247357D01*
X10912500Y-11175929D01*
X10898214Y-11133072D01*
X10883928Y-11104500D01*
X10855357Y-11061643D01*
X10841071Y-11047357D01*
X3481391Y-11689391D02*
X3481391Y-11611609D01*
X3403609Y-11611609D01*
X3403609Y-11689391D01*
X3481391Y-11689391D01*
X3941071Y-11786214D02*
X3769643Y-11786214D01*
X3855357Y-11786214D02*
X3855357Y-11486214D01*
X3826786Y-11529071D01*
X3798214Y-11557643D01*
X3769643Y-11571929D01*
X4069643Y-11757643D02*
X4083928Y-11771929D01*
X4069643Y-11786214D01*
X4055357Y-11771929D01*
X4069643Y-11757643D01*
X4069643Y-11786214D01*
X4369643Y-11786214D02*
X4198214Y-11786214D01*
X4283928Y-11786214D02*
X4283928Y-11486214D01*
X4255357Y-11529071D01*
X4226786Y-11557643D01*
X4198214Y-11571929D01*
X4555357Y-11486214D02*
X4583928Y-11486214D01*
X4612500Y-11500500D01*
X4626786Y-11514786D01*
X4641071Y-11543357D01*
X4655357Y-11600500D01*
X4655357Y-11671929D01*
X4641071Y-11729071D01*
X4626786Y-11757643D01*
X4612500Y-11771929D01*
X4583928Y-11786214D01*
X4555357Y-11786214D01*
X4526786Y-11771929D01*
X4512500Y-11757643D01*
X4498214Y-11729071D01*
X4483928Y-11671929D01*
X4483928Y-11600500D01*
X4498214Y-11543357D01*
X4512500Y-11514786D01*
X4526786Y-11500500D01*
X4555357Y-11486214D01*
X4841071Y-11486214D02*
X4869643Y-11486214D01*
X4898214Y-11500500D01*
X4912500Y-11514786D01*
X4926786Y-11543357D01*
X4941071Y-11600500D01*
X4941071Y-11671929D01*
X4926786Y-11729071D01*
X4912500Y-11757643D01*
X4898214Y-11771929D01*
X4869643Y-11786214D01*
X4841071Y-11786214D01*
X4812500Y-11771929D01*
X4798214Y-11757643D01*
X4783928Y-11729071D01*
X4769643Y-11671929D01*
X4769643Y-11600500D01*
X4783928Y-11543357D01*
X4798214Y-11514786D01*
X4812500Y-11500500D01*
X4841071Y-11486214D01*
X5069643Y-11786214D02*
X5069643Y-11586214D01*
X5069643Y-11614786D02*
X5083928Y-11600500D01*
X5112500Y-11586214D01*
X5155357Y-11586214D01*
X5183928Y-11600500D01*
X5198214Y-11629071D01*
X5198214Y-11786214D01*
X5198214Y-11629071D02*
X5212500Y-11600500D01*
X5241071Y-11586214D01*
X5283928Y-11586214D01*
X5312500Y-11600500D01*
X5326786Y-11629071D01*
X5326786Y-11786214D01*
X5469643Y-11786214D02*
X5469643Y-11586214D01*
X5469643Y-11614786D02*
X5483928Y-11600500D01*
X5512500Y-11586214D01*
X5555357Y-11586214D01*
X5583928Y-11600500D01*
X5598214Y-11629071D01*
X5598214Y-11786214D01*
X5598214Y-11629071D02*
X5612500Y-11600500D01*
X5641071Y-11586214D01*
X5683928Y-11586214D01*
X5712500Y-11600500D01*
X5726786Y-11629071D01*
X5726786Y-11786214D01*
X6312500Y-11471929D02*
X6055357Y-11857643D01*
X6698214Y-11486214D02*
X6726786Y-11486214D01*
X6755357Y-11500500D01*
X6769643Y-11514786D01*
X6783928Y-11543357D01*
X6798214Y-11600500D01*
X6798214Y-11671929D01*
X6783928Y-11729071D01*
X6769643Y-11757643D01*
X6755357Y-11771929D01*
X6726786Y-11786214D01*
X6698214Y-11786214D01*
X6669643Y-11771929D01*
X6655357Y-11757643D01*
X6641071Y-11729071D01*
X6626786Y-11671929D01*
X6626786Y-11600500D01*
X6641071Y-11543357D01*
X6655357Y-11514786D01*
X6669643Y-11500500D01*
X6698214Y-11486214D01*
X6926786Y-11757643D02*
X6941071Y-11771929D01*
X6926786Y-11786214D01*
X6912500Y-11771929D01*
X6926786Y-11757643D01*
X6926786Y-11786214D01*
X7126786Y-11486214D02*
X7155357Y-11486214D01*
X7183928Y-11500500D01*
X7198214Y-11514786D01*
X7212500Y-11543357D01*
X7226786Y-11600500D01*
X7226786Y-11671929D01*
X7212500Y-11729071D01*
X7198214Y-11757643D01*
X7183928Y-11771929D01*
X7155357Y-11786214D01*
X7126786Y-11786214D01*
X7098214Y-11771929D01*
X7083928Y-11757643D01*
X7069643Y-11729071D01*
X7055357Y-11671929D01*
X7055357Y-11600500D01*
X7069643Y-11543357D01*
X7083928Y-11514786D01*
X7098214Y-11500500D01*
X7126786Y-11486214D01*
X7483928Y-11586214D02*
X7483928Y-11786214D01*
X7412500Y-11471929D02*
X7341071Y-11686214D01*
X7526786Y-11686214D01*
X7612500Y-11486214D02*
X7798214Y-11486214D01*
X7698214Y-11600500D01*
X7741071Y-11600500D01*
X7769643Y-11614786D01*
X7783928Y-11629071D01*
X7798214Y-11657643D01*
X7798214Y-11729071D01*
X7783928Y-11757643D01*
X7769643Y-11771929D01*
X7741071Y-11786214D01*
X7655357Y-11786214D01*
X7626786Y-11771929D01*
X7612500Y-11757643D01*
X7898214Y-11486214D02*
X8083928Y-11486214D01*
X7983928Y-11600500D01*
X8026786Y-11600500D01*
X8055357Y-11614786D01*
X8069643Y-11629071D01*
X8083928Y-11657643D01*
X8083928Y-11729071D01*
X8069643Y-11757643D01*
X8055357Y-11771929D01*
X8026786Y-11786214D01*
X7941071Y-11786214D01*
X7912500Y-11771929D01*
X7898214Y-11757643D01*
X8198214Y-11486214D02*
X8198214Y-11543357D01*
X8312500Y-11486214D02*
X8312500Y-11543357D01*
X8755357Y-11900500D02*
X8741071Y-11886214D01*
X8712500Y-11843357D01*
X8698214Y-11814786D01*
X8683928Y-11771929D01*
X8669643Y-11700500D01*
X8669643Y-11643357D01*
X8683928Y-11571929D01*
X8698214Y-11529071D01*
X8712500Y-11500500D01*
X8741071Y-11457643D01*
X8755357Y-11443357D01*
X8998214Y-11486214D02*
X8941071Y-11486214D01*
X8912500Y-11500500D01*
X8898214Y-11514786D01*
X8869643Y-11557643D01*
X8855357Y-11614786D01*
X8855357Y-11729071D01*
X8869643Y-11757643D01*
X8883928Y-11771929D01*
X8912500Y-11786214D01*
X8969643Y-11786214D01*
X8998214Y-11771929D01*
X9012500Y-11757643D01*
X9026786Y-11729071D01*
X9026786Y-11657643D01*
X9012500Y-11629071D01*
X8998214Y-11614786D01*
X8969643Y-11600500D01*
X8912500Y-11600500D01*
X8883928Y-11614786D01*
X8869643Y-11629071D01*
X8855357Y-11657643D01*
X9283928Y-11586214D02*
X9283928Y-11786214D01*
X9212500Y-11471929D02*
X9141071Y-11686214D01*
X9326786Y-11686214D01*
X9669643Y-11786214D02*
X9669643Y-11486214D01*
X9798214Y-11786214D02*
X9798214Y-11629071D01*
X9783928Y-11600500D01*
X9755357Y-11586214D01*
X9712500Y-11586214D01*
X9683928Y-11600500D01*
X9669643Y-11614786D01*
X9983928Y-11786214D02*
X9955357Y-11771929D01*
X9941071Y-11757643D01*
X9926786Y-11729071D01*
X9926786Y-11643357D01*
X9941071Y-11614786D01*
X9955357Y-11600500D01*
X9983928Y-11586214D01*
X10026786Y-11586214D01*
X10055357Y-11600500D01*
X10069643Y-11614786D01*
X10083928Y-11643357D01*
X10083928Y-11729071D01*
X10069643Y-11757643D01*
X10055357Y-11771929D01*
X10026786Y-11786214D01*
X9983928Y-11786214D01*
X10255357Y-11786214D02*
X10226786Y-11771929D01*
X10212500Y-11743357D01*
X10212500Y-11486214D01*
X10483928Y-11771929D02*
X10455357Y-11786214D01*
X10398214Y-11786214D01*
X10369643Y-11771929D01*
X10355357Y-11743357D01*
X10355357Y-11629071D01*
X10369643Y-11600500D01*
X10398214Y-11586214D01*
X10455357Y-11586214D01*
X10483928Y-11600500D01*
X10498214Y-11629071D01*
X10498214Y-11657643D01*
X10355357Y-11686214D01*
X10612500Y-11771929D02*
X10641071Y-11786214D01*
X10698214Y-11786214D01*
X10726786Y-11771929D01*
X10741071Y-11743357D01*
X10741071Y-11729071D01*
X10726786Y-11700500D01*
X10698214Y-11686214D01*
X10655357Y-11686214D01*
X10626786Y-11671929D01*
X10612500Y-11643357D01*
X10612500Y-11629071D01*
X10626786Y-11600500D01*
X10655357Y-11586214D01*
X10698214Y-11586214D01*
X10726786Y-11600500D01*
X10841071Y-11900500D02*
X10855357Y-11886214D01*
X10883928Y-11843357D01*
X10898214Y-11814786D01*
X10912500Y-11771929D01*
X10926786Y-11700500D01*
X10926786Y-11643357D01*
X10912500Y-11571929D01*
X10898214Y-11529071D01*
X10883928Y-11500500D01*
X10855357Y-11457643D01*
X10841071Y-11443357D01*
X3337500Y-12206500D02*
X3497500Y-12046500D01*
X3337500Y-11886500D01*
X3177500Y-12046500D01*
X3337500Y-12206500D01*
X3755357Y-11882214D02*
X3941071Y-11882214D01*
X3841071Y-11996500D01*
X3883928Y-11996500D01*
X3912500Y-12010786D01*
X3926786Y-12025071D01*
X3941071Y-12053643D01*
X3941071Y-12125071D01*
X3926786Y-12153643D01*
X3912500Y-12167929D01*
X3883928Y-12182214D01*
X3798214Y-12182214D01*
X3769643Y-12167929D01*
X3755357Y-12153643D01*
X4069643Y-12153643D02*
X4083928Y-12167929D01*
X4069643Y-12182214D01*
X4055357Y-12167929D01*
X4069643Y-12153643D01*
X4069643Y-12182214D01*
X4198214Y-11910786D02*
X4212500Y-11896500D01*
X4241071Y-11882214D01*
X4312500Y-11882214D01*
X4341071Y-11896500D01*
X4355357Y-11910786D01*
X4369643Y-11939357D01*
X4369643Y-11967929D01*
X4355357Y-12010786D01*
X4183928Y-12182214D01*
X4369643Y-12182214D01*
X4555357Y-11882214D02*
X4583928Y-11882214D01*
X4612500Y-11896500D01*
X4626786Y-11910786D01*
X4641071Y-11939357D01*
X4655357Y-11996500D01*
X4655357Y-12067929D01*
X4641071Y-12125071D01*
X4626786Y-12153643D01*
X4612500Y-12167929D01*
X4583928Y-12182214D01*
X4555357Y-12182214D01*
X4526786Y-12167929D01*
X4512500Y-12153643D01*
X4498214Y-12125071D01*
X4483928Y-12067929D01*
X4483928Y-11996500D01*
X4498214Y-11939357D01*
X4512500Y-11910786D01*
X4526786Y-11896500D01*
X4555357Y-11882214D01*
X4841071Y-11882214D02*
X4869643Y-11882214D01*
X4898214Y-11896500D01*
X4912500Y-11910786D01*
X4926786Y-11939357D01*
X4941071Y-11996500D01*
X4941071Y-12067929D01*
X4926786Y-12125071D01*
X4912500Y-12153643D01*
X4898214Y-12167929D01*
X4869643Y-12182214D01*
X4841071Y-12182214D01*
X4812500Y-12167929D01*
X4798214Y-12153643D01*
X4783928Y-12125071D01*
X4769643Y-12067929D01*
X4769643Y-11996500D01*
X4783928Y-11939357D01*
X4798214Y-11910786D01*
X4812500Y-11896500D01*
X4841071Y-11882214D01*
X5069643Y-12182214D02*
X5069643Y-11982214D01*
X5069643Y-12010786D02*
X5083928Y-11996500D01*
X5112500Y-11982214D01*
X5155357Y-11982214D01*
X5183928Y-11996500D01*
X5198214Y-12025071D01*
X5198214Y-12182214D01*
X5198214Y-12025071D02*
X5212500Y-11996500D01*
X5241071Y-11982214D01*
X5283928Y-11982214D01*
X5312500Y-11996500D01*
X5326786Y-12025071D01*
X5326786Y-12182214D01*
X5469643Y-12182214D02*
X5469643Y-11982214D01*
X5469643Y-12010786D02*
X5483928Y-11996500D01*
X5512500Y-11982214D01*
X5555357Y-11982214D01*
X5583928Y-11996500D01*
X5598214Y-12025071D01*
X5598214Y-12182214D01*
X5598214Y-12025071D02*
X5612500Y-11996500D01*
X5641071Y-11982214D01*
X5683928Y-11982214D01*
X5712500Y-11996500D01*
X5726786Y-12025071D01*
X5726786Y-12182214D01*
X6312500Y-11867929D02*
X6055357Y-12253643D01*
X6698214Y-11882214D02*
X6726786Y-11882214D01*
X6755357Y-11896500D01*
X6769643Y-11910786D01*
X6783928Y-11939357D01*
X6798214Y-11996500D01*
X6798214Y-12067929D01*
X6783928Y-12125071D01*
X6769643Y-12153643D01*
X6755357Y-12167929D01*
X6726786Y-12182214D01*
X6698214Y-12182214D01*
X6669643Y-12167929D01*
X6655357Y-12153643D01*
X6641071Y-12125071D01*
X6626786Y-12067929D01*
X6626786Y-11996500D01*
X6641071Y-11939357D01*
X6655357Y-11910786D01*
X6669643Y-11896500D01*
X6698214Y-11882214D01*
X6926786Y-12153643D02*
X6941071Y-12167929D01*
X6926786Y-12182214D01*
X6912500Y-12167929D01*
X6926786Y-12153643D01*
X6926786Y-12182214D01*
X7226786Y-12182214D02*
X7055357Y-12182214D01*
X7141071Y-12182214D02*
X7141071Y-11882214D01*
X7112500Y-11925071D01*
X7083928Y-11953643D01*
X7055357Y-11967929D01*
X7341071Y-11910786D02*
X7355357Y-11896500D01*
X7383928Y-11882214D01*
X7455357Y-11882214D01*
X7483928Y-11896500D01*
X7498214Y-11910786D01*
X7512500Y-11939357D01*
X7512500Y-11967929D01*
X7498214Y-12010786D01*
X7326786Y-12182214D01*
X7512500Y-12182214D01*
X7769643Y-11882214D02*
X7712500Y-11882214D01*
X7683928Y-11896500D01*
X7669643Y-11910786D01*
X7641071Y-11953643D01*
X7626786Y-12010786D01*
X7626786Y-12125071D01*
X7641071Y-12153643D01*
X7655357Y-12167929D01*
X7683928Y-12182214D01*
X7741071Y-12182214D01*
X7769643Y-12167929D01*
X7783928Y-12153643D01*
X7798214Y-12125071D01*
X7798214Y-12053643D01*
X7783928Y-12025071D01*
X7769643Y-12010786D01*
X7741071Y-11996500D01*
X7683928Y-11996500D01*
X7655357Y-12010786D01*
X7641071Y-12025071D01*
X7626786Y-12053643D01*
X7983928Y-11882214D02*
X8012500Y-11882214D01*
X8041071Y-11896500D01*
X8055357Y-11910786D01*
X8069643Y-11939357D01*
X8083928Y-11996500D01*
X8083928Y-12067929D01*
X8069643Y-12125071D01*
X8055357Y-12153643D01*
X8041071Y-12167929D01*
X8012500Y-12182214D01*
X7983928Y-12182214D01*
X7955357Y-12167929D01*
X7941071Y-12153643D01*
X7926786Y-12125071D01*
X7912500Y-12067929D01*
X7912500Y-11996500D01*
X7926786Y-11939357D01*
X7941071Y-11910786D01*
X7955357Y-11896500D01*
X7983928Y-11882214D01*
X8198214Y-11882214D02*
X8198214Y-11939357D01*
X8312500Y-11882214D02*
X8312500Y-11939357D01*
X8755357Y-12296500D02*
X8741071Y-12282214D01*
X8712500Y-12239357D01*
X8698214Y-12210786D01*
X8683928Y-12167929D01*
X8669643Y-12096500D01*
X8669643Y-12039357D01*
X8683928Y-11967929D01*
X8698214Y-11925071D01*
X8712500Y-11896500D01*
X8741071Y-11853643D01*
X8755357Y-11839357D01*
X9026786Y-12182214D02*
X8855357Y-12182214D01*
X8941071Y-12182214D02*
X8941071Y-11882214D01*
X8912500Y-11925071D01*
X8883928Y-11953643D01*
X8855357Y-11967929D01*
X9212500Y-11882214D02*
X9241071Y-11882214D01*
X9269643Y-11896500D01*
X9283928Y-11910786D01*
X9298214Y-11939357D01*
X9312500Y-11996500D01*
X9312500Y-12067929D01*
X9298214Y-12125071D01*
X9283928Y-12153643D01*
X9269643Y-12167929D01*
X9241071Y-12182214D01*
X9212500Y-12182214D01*
X9183928Y-12167929D01*
X9169643Y-12153643D01*
X9155357Y-12125071D01*
X9141071Y-12067929D01*
X9141071Y-11996500D01*
X9155357Y-11939357D01*
X9169643Y-11910786D01*
X9183928Y-11896500D01*
X9212500Y-11882214D01*
X9669643Y-12182214D02*
X9669643Y-11882214D01*
X9798214Y-12182214D02*
X9798214Y-12025071D01*
X9783928Y-11996500D01*
X9755357Y-11982214D01*
X9712500Y-11982214D01*
X9683928Y-11996500D01*
X9669643Y-12010786D01*
X9983928Y-12182214D02*
X9955357Y-12167929D01*
X9941071Y-12153643D01*
X9926786Y-12125071D01*
X9926786Y-12039357D01*
X9941071Y-12010786D01*
X9955357Y-11996500D01*
X9983928Y-11982214D01*
X10026786Y-11982214D01*
X10055357Y-11996500D01*
X10069643Y-12010786D01*
X10083928Y-12039357D01*
X10083928Y-12125071D01*
X10069643Y-12153643D01*
X10055357Y-12167929D01*
X10026786Y-12182214D01*
X9983928Y-12182214D01*
X10255357Y-12182214D02*
X10226786Y-12167929D01*
X10212500Y-12139357D01*
X10212500Y-11882214D01*
X10483928Y-12167929D02*
X10455357Y-12182214D01*
X10398214Y-12182214D01*
X10369643Y-12167929D01*
X10355357Y-12139357D01*
X10355357Y-12025071D01*
X10369643Y-11996500D01*
X10398214Y-11982214D01*
X10455357Y-11982214D01*
X10483928Y-11996500D01*
X10498214Y-12025071D01*
X10498214Y-12053643D01*
X10355357Y-12082214D01*
X10612500Y-12167929D02*
X10641071Y-12182214D01*
X10698214Y-12182214D01*
X10726786Y-12167929D01*
X10741071Y-12139357D01*
X10741071Y-12125071D01*
X10726786Y-12096500D01*
X10698214Y-12082214D01*
X10655357Y-12082214D01*
X10626786Y-12067929D01*
X10612500Y-12039357D01*
X10612500Y-12025071D01*
X10626786Y-11996500D01*
X10655357Y-11982214D01*
X10698214Y-11982214D01*
X10726786Y-11996500D01*
X10841071Y-12296500D02*
X10855357Y-12282214D01*
X10883928Y-12239357D01*
X10898214Y-12210786D01*
X10912500Y-12167929D01*
X10926786Y-12096500D01*
X10926786Y-12039357D01*
X10912500Y-11967929D01*
X10898214Y-11925071D01*
X10883928Y-11896500D01*
X10855357Y-11853643D01*
X10841071Y-11839357D01*
X3047500Y-12271500D02*
X3497500Y-12721500D01*
X3497500Y-12271500D02*
X3047500Y-12721500D01*
X3497500Y-12496500D02*
G75*
G03*
X3497500Y-12496500I-225000J0D01*
G01*
X3912500Y-12432214D02*
X3912500Y-12632214D01*
X3841071Y-12317929D02*
X3769643Y-12532214D01*
X3955357Y-12532214D01*
X4069643Y-12603643D02*
X4083928Y-12617929D01*
X4069643Y-12632214D01*
X4055357Y-12617929D01*
X4069643Y-12603643D01*
X4069643Y-12632214D01*
X4355357Y-12332214D02*
X4212500Y-12332214D01*
X4198214Y-12475071D01*
X4212500Y-12460786D01*
X4241071Y-12446500D01*
X4312500Y-12446500D01*
X4341071Y-12460786D01*
X4355357Y-12475071D01*
X4369643Y-12503643D01*
X4369643Y-12575071D01*
X4355357Y-12603643D01*
X4341071Y-12617929D01*
X4312500Y-12632214D01*
X4241071Y-12632214D01*
X4212500Y-12617929D01*
X4198214Y-12603643D01*
X4555357Y-12332214D02*
X4583928Y-12332214D01*
X4612500Y-12346500D01*
X4626786Y-12360786D01*
X4641071Y-12389357D01*
X4655357Y-12446500D01*
X4655357Y-12517929D01*
X4641071Y-12575071D01*
X4626786Y-12603643D01*
X4612500Y-12617929D01*
X4583928Y-12632214D01*
X4555357Y-12632214D01*
X4526786Y-12617929D01*
X4512500Y-12603643D01*
X4498214Y-12575071D01*
X4483928Y-12517929D01*
X4483928Y-12446500D01*
X4498214Y-12389357D01*
X4512500Y-12360786D01*
X4526786Y-12346500D01*
X4555357Y-12332214D01*
X4841071Y-12332214D02*
X4869643Y-12332214D01*
X4898214Y-12346500D01*
X4912500Y-12360786D01*
X4926786Y-12389357D01*
X4941071Y-12446500D01*
X4941071Y-12517929D01*
X4926786Y-12575071D01*
X4912500Y-12603643D01*
X4898214Y-12617929D01*
X4869643Y-12632214D01*
X4841071Y-12632214D01*
X4812500Y-12617929D01*
X4798214Y-12603643D01*
X4783928Y-12575071D01*
X4769643Y-12517929D01*
X4769643Y-12446500D01*
X4783928Y-12389357D01*
X4798214Y-12360786D01*
X4812500Y-12346500D01*
X4841071Y-12332214D01*
X5069643Y-12632214D02*
X5069643Y-12432214D01*
X5069643Y-12460786D02*
X5083928Y-12446500D01*
X5112500Y-12432214D01*
X5155357Y-12432214D01*
X5183928Y-12446500D01*
X5198214Y-12475071D01*
X5198214Y-12632214D01*
X5198214Y-12475071D02*
X5212500Y-12446500D01*
X5241071Y-12432214D01*
X5283928Y-12432214D01*
X5312500Y-12446500D01*
X5326786Y-12475071D01*
X5326786Y-12632214D01*
X5469643Y-12632214D02*
X5469643Y-12432214D01*
X5469643Y-12460786D02*
X5483928Y-12446500D01*
X5512500Y-12432214D01*
X5555357Y-12432214D01*
X5583928Y-12446500D01*
X5598214Y-12475071D01*
X5598214Y-12632214D01*
X5598214Y-12475071D02*
X5612500Y-12446500D01*
X5641071Y-12432214D01*
X5683928Y-12432214D01*
X5712500Y-12446500D01*
X5726786Y-12475071D01*
X5726786Y-12632214D01*
X6312500Y-12317929D02*
X6055357Y-12703643D01*
X6698214Y-12332214D02*
X6726786Y-12332214D01*
X6755357Y-12346500D01*
X6769643Y-12360786D01*
X6783928Y-12389357D01*
X6798214Y-12446500D01*
X6798214Y-12517929D01*
X6783928Y-12575071D01*
X6769643Y-12603643D01*
X6755357Y-12617929D01*
X6726786Y-12632214D01*
X6698214Y-12632214D01*
X6669643Y-12617929D01*
X6655357Y-12603643D01*
X6641071Y-12575071D01*
X6626786Y-12517929D01*
X6626786Y-12446500D01*
X6641071Y-12389357D01*
X6655357Y-12360786D01*
X6669643Y-12346500D01*
X6698214Y-12332214D01*
X6926786Y-12603643D02*
X6941071Y-12617929D01*
X6926786Y-12632214D01*
X6912500Y-12617929D01*
X6926786Y-12603643D01*
X6926786Y-12632214D01*
X7226786Y-12632214D02*
X7055357Y-12632214D01*
X7141071Y-12632214D02*
X7141071Y-12332214D01*
X7112500Y-12375071D01*
X7083928Y-12403643D01*
X7055357Y-12417929D01*
X7326786Y-12332214D02*
X7526786Y-12332214D01*
X7398214Y-12632214D01*
X7612500Y-12332214D02*
X7812500Y-12332214D01*
X7683928Y-12632214D01*
X7912500Y-12360786D02*
X7926786Y-12346500D01*
X7955357Y-12332214D01*
X8026786Y-12332214D01*
X8055357Y-12346500D01*
X8069643Y-12360786D01*
X8083928Y-12389357D01*
X8083928Y-12417929D01*
X8069643Y-12460786D01*
X7898214Y-12632214D01*
X8083928Y-12632214D01*
X8198214Y-12332214D02*
X8198214Y-12389357D01*
X8312500Y-12332214D02*
X8312500Y-12389357D01*
X8755357Y-12746500D02*
X8741071Y-12732214D01*
X8712500Y-12689357D01*
X8698214Y-12660786D01*
X8683928Y-12617929D01*
X8669643Y-12546500D01*
X8669643Y-12489357D01*
X8683928Y-12417929D01*
X8698214Y-12375071D01*
X8712500Y-12346500D01*
X8741071Y-12303643D01*
X8755357Y-12289357D01*
X8855357Y-12360786D02*
X8869643Y-12346500D01*
X8898214Y-12332214D01*
X8969643Y-12332214D01*
X8998214Y-12346500D01*
X9012500Y-12360786D01*
X9026786Y-12389357D01*
X9026786Y-12417929D01*
X9012500Y-12460786D01*
X8841071Y-12632214D01*
X9026786Y-12632214D01*
X9383928Y-12632214D02*
X9383928Y-12332214D01*
X9512500Y-12632214D02*
X9512500Y-12475071D01*
X9498214Y-12446500D01*
X9469643Y-12432214D01*
X9426786Y-12432214D01*
X9398214Y-12446500D01*
X9383928Y-12460786D01*
X9698214Y-12632214D02*
X9669643Y-12617929D01*
X9655357Y-12603643D01*
X9641071Y-12575071D01*
X9641071Y-12489357D01*
X9655357Y-12460786D01*
X9669643Y-12446500D01*
X9698214Y-12432214D01*
X9741071Y-12432214D01*
X9769643Y-12446500D01*
X9783928Y-12460786D01*
X9798214Y-12489357D01*
X9798214Y-12575071D01*
X9783928Y-12603643D01*
X9769643Y-12617929D01*
X9741071Y-12632214D01*
X9698214Y-12632214D01*
X9969643Y-12632214D02*
X9941071Y-12617929D01*
X9926786Y-12589357D01*
X9926786Y-12332214D01*
X10198214Y-12617929D02*
X10169643Y-12632214D01*
X10112500Y-12632214D01*
X10083928Y-12617929D01*
X10069643Y-12589357D01*
X10069643Y-12475071D01*
X10083928Y-12446500D01*
X10112500Y-12432214D01*
X10169643Y-12432214D01*
X10198214Y-12446500D01*
X10212500Y-12475071D01*
X10212500Y-12503643D01*
X10069643Y-12532214D01*
X10326786Y-12617929D02*
X10355357Y-12632214D01*
X10412500Y-12632214D01*
X10441071Y-12617929D01*
X10455357Y-12589357D01*
X10455357Y-12575071D01*
X10441071Y-12546500D01*
X10412500Y-12532214D01*
X10369643Y-12532214D01*
X10341071Y-12517929D01*
X10326786Y-12489357D01*
X10326786Y-12475071D01*
X10341071Y-12446500D01*
X10369643Y-12432214D01*
X10412500Y-12432214D01*
X10441071Y-12446500D01*
X10555357Y-12746500D02*
X10569643Y-12732214D01*
X10598214Y-12689357D01*
X10612500Y-12660786D01*
X10626786Y-12617929D01*
X10641071Y-12546500D01*
X10641071Y-12489357D01*
X10626786Y-12417929D01*
X10612500Y-12375071D01*
X10598214Y-12346500D01*
X10569643Y-12303643D01*
X10555357Y-12289357D01*
M02*
