%TF.GenerationSoftware,KiCad,Pcbnew,5.1.10-88a1d61d58~88~ubuntu18.04.1*%
%TF.CreationDate,2021-05-26T16:46:43+10:00*%
%TF.ProjectId,prototype_rocket_fc,70726f74-6f74-4797-9065-5f726f636b65,rev?*%
%TF.SameCoordinates,Original*%
%TF.FileFunction,Legend,Bot*%
%TF.FilePolarity,Positive*%
%FSLAX46Y46*%
G04 Gerber Fmt 4.6, Leading zero omitted, Abs format (unit mm)*
G04 Created by KiCad (PCBNEW 5.1.10-88a1d61d58~88~ubuntu18.04.1) date 2021-05-26 16:46:43*
%MOMM*%
%LPD*%
G01*
G04 APERTURE LIST*
%ADD10C,0.150000*%
%ADD11C,0.120000*%
G04 APERTURE END LIST*
D10*
X112202380Y-54702380D02*
X112535714Y-54226190D01*
X112773809Y-54702380D02*
X112773809Y-53702380D01*
X112392857Y-53702380D01*
X112297619Y-53750000D01*
X112250000Y-53797619D01*
X112202380Y-53892857D01*
X112202380Y-54035714D01*
X112250000Y-54130952D01*
X112297619Y-54178571D01*
X112392857Y-54226190D01*
X112773809Y-54226190D01*
X111440476Y-54178571D02*
X111773809Y-54178571D01*
X111773809Y-54702380D02*
X111773809Y-53702380D01*
X111297619Y-53702380D01*
X110916666Y-54702380D02*
X110916666Y-53702380D01*
X110678571Y-53702380D01*
X110535714Y-53750000D01*
X110440476Y-53845238D01*
X110392857Y-53940476D01*
X110345238Y-54130952D01*
X110345238Y-54273809D01*
X110392857Y-54464285D01*
X110440476Y-54559523D01*
X110535714Y-54654761D01*
X110678571Y-54702380D01*
X110916666Y-54702380D01*
X109869047Y-54702380D02*
X109678571Y-54702380D01*
X109583333Y-54654761D01*
X109535714Y-54607142D01*
X109440476Y-54464285D01*
X109392857Y-54273809D01*
X109392857Y-53892857D01*
X109440476Y-53797619D01*
X109488095Y-53750000D01*
X109583333Y-53702380D01*
X109773809Y-53702380D01*
X109869047Y-53750000D01*
X109916666Y-53797619D01*
X109964285Y-53892857D01*
X109964285Y-54130952D01*
X109916666Y-54226190D01*
X109869047Y-54273809D01*
X109773809Y-54321428D01*
X109583333Y-54321428D01*
X109488095Y-54273809D01*
X109440476Y-54226190D01*
X109392857Y-54130952D01*
X108773809Y-53702380D02*
X108678571Y-53702380D01*
X108583333Y-53750000D01*
X108535714Y-53797619D01*
X108488095Y-53892857D01*
X108440476Y-54083333D01*
X108440476Y-54321428D01*
X108488095Y-54511904D01*
X108535714Y-54607142D01*
X108583333Y-54654761D01*
X108678571Y-54702380D01*
X108773809Y-54702380D01*
X108869047Y-54654761D01*
X108916666Y-54607142D01*
X108964285Y-54511904D01*
X109011904Y-54321428D01*
X109011904Y-54083333D01*
X108964285Y-53892857D01*
X108916666Y-53797619D01*
X108869047Y-53750000D01*
X108773809Y-53702380D01*
X107821428Y-53702380D02*
X107726190Y-53702380D01*
X107630952Y-53750000D01*
X107583333Y-53797619D01*
X107535714Y-53892857D01*
X107488095Y-54083333D01*
X107488095Y-54321428D01*
X107535714Y-54511904D01*
X107583333Y-54607142D01*
X107630952Y-54654761D01*
X107726190Y-54702380D01*
X107821428Y-54702380D01*
X107916666Y-54654761D01*
X107964285Y-54607142D01*
X108011904Y-54511904D01*
X108059523Y-54321428D01*
X108059523Y-54083333D01*
X108011904Y-53892857D01*
X107964285Y-53797619D01*
X107916666Y-53750000D01*
X107821428Y-53702380D01*
X107154761Y-54702380D02*
X106630952Y-54035714D01*
X107154761Y-54035714D02*
X106630952Y-54702380D01*
D11*
%TO.C,U8*%
X130350000Y-69200000D02*
X130350000Y-38300000D01*
X88150000Y-69200000D02*
X88150000Y-38300000D01*
X130350000Y-38300000D02*
X88150000Y-38300000D01*
X130350000Y-69200000D02*
X88150000Y-69200000D01*
%TD*%
M02*
