  0
SECTION
  2
HEADER
  9
$ANGBASE
  50
0.0
  9
$ANGDIR
  70
1
  9
$MEASUREMENT
  70
1
  0
ENDSEC
  0
SECTION
  2
TABLES
  0
TABLE
  2
LTYPE
  70
4
  0
LTYPE
  5
40F
  2
CONTINUOUS
  70
0
  3
Solid line
  72
65
  73
0
  40
0.0
  0
LTYPE
  5
410
  2
DASHDOT
 70
0
  3
Dash Dot ____ _ ____ _
 72
65
 73
4
 40
2.0
 49
1.25
 49
-0.25
 49
0.25
 49
-0.25
  0
LTYPE
  5
411
  2
DASHED
 70
0
  3
Dashed __ __ __ __ __
 72
65
 73
2
 40
0.75
 49
0.5
 49
-0.25
  0
LTYPE
  5
43B
  2
DOTTED
 70
0
  3
Dotted .  .  .  .
 72
65
 73
2
 40
0.2
 49
0.0
 49
-0.2
  0
ENDTAB
  0
TABLE
  2
STYLE
  70
4
  0
STYLE
  2
KICAD
  70
0
  40
0
  41
1
  42
1
  50
0
  71
0
  3
isocp.shx
  0
STYLE
  2
KICADB
  70
0
  40
0
  41
1
  42
1
  50
0
  71
0
  3
isocp.shx
  0
STYLE
  2
KICADI
  70
0
  40
0
  41
1
  42
1
  50
15
  71
0
  3
isocp.shx
  0
STYLE
  2
KICADBI
  70
0
  40
0
  41
1
  42
1
  50
15
  71
0
  3
isocp.shx
  0
ENDTAB
  0
TABLE
  2
LAYER
  70
1
  0
LAYER
  2
BLACK
  70
0
  62
7
  6
CONTINUOUS
  0
ENDTAB
  0
ENDSEC
  0
SECTION
  2
ENTITIES
0
LINE
8
BLACK
6
CONTINUOUS
10
39.1123
20
-94.9459
11
39.1095
21
-94.9455
0
LINE
8
BLACK
6
CONTINUOUS
10
39.1095
20
-94.9455
11
39.1088
21
-94.9452
0
LINE
8
BLACK
6
CONTINUOUS
10
39.1088
20
-94.9452
11
39.108
21
-94.9451
0
LINE
8
BLACK
6
CONTINUOUS
10
39.108
20
-94.9451
11
38.2505
21
-94.7105
0
LINE
8
BLACK
6
CONTINUOUS
10
38.2505
20
-94.7105
11
38.2478
21
-94.7096
0
LINE
8
BLACK
6
CONTINUOUS
10
38.2478
20
-94.7096
11
38.2471
21
-94.7093
0
LINE
8
BLACK
6
CONTINUOUS
10
38.2471
20
-94.7093
11
38.2464
21
-94.709
0
LINE
8
BLACK
6
CONTINUOUS
10
38.2464
20
-94.709
11
37.444
21
-94.3263
0
LINE
8
BLACK
6
CONTINUOUS
10
37.444
20
-94.3263
11
37.4415
21
-94.3249
0
LINE
8
BLACK
6
CONTINUOUS
10
37.4415
20
-94.3249
11
37.4409
21
-94.3244
0
LINE
8
BLACK
6
CONTINUOUS
10
37.4409
20
-94.3244
11
37.4402
21
-94.324
0
LINE
8
BLACK
6
CONTINUOUS
10
37.4402
20
-94.324
11
36.7183
21
-93.8053
0
LINE
8
BLACK
6
CONTINUOUS
10
36.7183
20
-93.8053
11
36.7161
21
-93.8035
0
LINE
8
BLACK
6
CONTINUOUS
10
36.7161
20
-93.8035
11
36.7155
21
-93.8029
0
LINE
8
BLACK
6
CONTINUOUS
10
36.7155
20
-93.8029
11
36.7149
21
-93.8024
0
LINE
8
BLACK
6
CONTINUOUS
10
36.7149
20
-93.8024
11
36.0963
21
-93.164
0
LINE
8
BLACK
6
CONTINUOUS
10
36.0963
20
-93.164
11
36.0944
21
-93.1618
0
LINE
8
BLACK
6
CONTINUOUS
10
36.0944
20
-93.1618
11
36.094
21
-93.1612
0
LINE
8
BLACK
6
CONTINUOUS
10
36.094
20
-93.1612
11
36.0935
21
-93.1605
0
LINE
8
BLACK
6
CONTINUOUS
10
36.0935
20
-93.1605
11
35.5977
21
-92.4227
0
LINE
8
BLACK
6
CONTINUOUS
10
35.5977
20
-92.4227
11
35.5963
21
-92.4202
0
LINE
8
BLACK
6
CONTINUOUS
10
35.5963
20
-92.4202
11
35.596
21
-92.4195
0
LINE
8
BLACK
6
CONTINUOUS
10
35.596
20
-92.4195
11
35.5956
21
-92.4188
0
LINE
8
BLACK
6
CONTINUOUS
10
35.5956
20
-92.4188
11
35.2383
21
-91.6048
0
LINE
8
BLACK
6
CONTINUOUS
10
35.2383
20
-91.6048
11
35.2373
21
-91.6021
0
LINE
8
BLACK
6
CONTINUOUS
10
35.2373
20
-91.6021
11
35.2371
21
-91.6014
0
LINE
8
BLACK
6
CONTINUOUS
10
35.2371
20
-91.6014
11
35.2368
21
-91.6006
0
LINE
8
BLACK
6
CONTINUOUS
10
35.2368
20
-91.6006
11
35.0293
21
-90.7363
0
LINE
8
BLACK
6
CONTINUOUS
10
35.0293
20
-90.7363
11
35.0288
21
-90.7334
0
LINE
8
BLACK
6
CONTINUOUS
10
35.0288
20
-90.7334
11
35.0288
21
-90.7328
0
LINE
8
BLACK
6
CONTINUOUS
10
35.0288
20
-90.7328
11
35.0287
21
-90.7322
0
LINE
8
BLACK
6
CONTINUOUS
10
35.0287
20
-90.7322
11
34.9751
21
-90.0021
0
LINE
8
BLACK
6
CONTINUOUS
10
34.9751
20
-90.0021
11
34.975
21
-90.0012
0
LINE
8
BLACK
6
CONTINUOUS
10
34.975
20
-90.0012
11
34.975
21
-39.9988
0
LINE
8
BLACK
6
CONTINUOUS
10
34.975
20
-39.9988
11
34.9751
21
-39.9978
0
LINE
8
BLACK
6
CONTINUOUS
10
34.9751
20
-39.9978
11
34.9751
21
-39.9978
0
LINE
8
BLACK
6
CONTINUOUS
10
34.9751
20
-39.9978
11
35.0541
21
-39.1124
0
LINE
8
BLACK
6
CONTINUOUS
10
35.0541
20
-39.1124
11
35.0545
21
-39.1095
0
LINE
8
BLACK
6
CONTINUOUS
10
35.0545
20
-39.1095
11
35.0548
21
-39.1088
0
LINE
8
BLACK
6
CONTINUOUS
10
35.0548
20
-39.1088
11
35.0549
21
-39.108
0
LINE
8
BLACK
6
CONTINUOUS
10
35.0549
20
-39.108
11
35.2895
21
-38.2505
0
LINE
8
BLACK
6
CONTINUOUS
10
35.2895
20
-38.2505
11
35.2904
21
-38.2478
0
LINE
8
BLACK
6
CONTINUOUS
10
35.2904
20
-38.2478
11
35.2907
21
-38.2471
0
LINE
8
BLACK
6
CONTINUOUS
10
35.2907
20
-38.2471
11
35.291
21
-38.2464
0
LINE
8
BLACK
6
CONTINUOUS
10
35.291
20
-38.2464
11
35.6737
21
-37.444
0
LINE
8
BLACK
6
CONTINUOUS
10
35.6737
20
-37.444
11
35.6751
21
-37.4415
0
LINE
8
BLACK
6
CONTINUOUS
10
35.6751
20
-37.4415
11
35.6756
21
-37.4409
0
LINE
8
BLACK
6
CONTINUOUS
10
35.6756
20
-37.4409
11
35.676
21
-37.4402
0
LINE
8
BLACK
6
CONTINUOUS
10
35.676
20
-37.4402
11
36.1947
21
-36.7183
0
LINE
8
BLACK
6
CONTINUOUS
10
36.1947
20
-36.7183
11
36.1947
21
-36.7183
0
LINE
8
BLACK
6
CONTINUOUS
10
36.1947
20
-36.7183
11
36.1947
21
-36.7183
0
LINE
8
BLACK
6
CONTINUOUS
10
36.1947
20
-36.7183
11
36.1965
21
-36.7161
0
LINE
8
BLACK
6
CONTINUOUS
10
36.1965
20
-36.7161
11
36.1971
21
-36.7155
0
LINE
8
BLACK
6
CONTINUOUS
10
36.1971
20
-36.7155
11
36.1976
21
-36.7149
0
LINE
8
BLACK
6
CONTINUOUS
10
36.1976
20
-36.7149
11
36.836
21
-36.0963
0
LINE
8
BLACK
6
CONTINUOUS
10
36.836
20
-36.0963
11
36.8382
21
-36.0944
0
LINE
8
BLACK
6
CONTINUOUS
10
36.8382
20
-36.0944
11
36.8388
21
-36.094
0
LINE
8
BLACK
6
CONTINUOUS
10
36.8388
20
-36.094
11
36.8395
21
-36.0935
0
LINE
8
BLACK
6
CONTINUOUS
10
36.8395
20
-36.0935
11
37.5773
21
-35.5977
0
LINE
8
BLACK
6
CONTINUOUS
10
37.5773
20
-35.5977
11
37.5798
21
-35.5963
0
LINE
8
BLACK
6
CONTINUOUS
10
37.5798
20
-35.5963
11
37.5805
21
-35.596
0
LINE
8
BLACK
6
CONTINUOUS
10
37.5805
20
-35.596
11
37.5812
21
-35.5956
0
LINE
8
BLACK
6
CONTINUOUS
10
37.5812
20
-35.5956
11
38.3951
21
-35.2383
0
LINE
8
BLACK
6
CONTINUOUS
10
38.3951
20
-35.2383
11
38.3952
21
-35.2383
0
LINE
8
BLACK
6
CONTINUOUS
10
38.3952
20
-35.2383
11
38.3952
21
-35.2383
0
LINE
8
BLACK
6
CONTINUOUS
10
38.3952
20
-35.2383
11
38.3979
21
-35.2373
0
LINE
8
BLACK
6
CONTINUOUS
10
38.3979
20
-35.2373
11
38.3986
21
-35.2371
0
LINE
8
BLACK
6
CONTINUOUS
10
38.3986
20
-35.2371
11
38.3994
21
-35.2368
0
LINE
8
BLACK
6
CONTINUOUS
10
38.3994
20
-35.2368
11
39.2637
21
-35.0293
0
LINE
8
BLACK
6
CONTINUOUS
10
39.2637
20
-35.0293
11
39.2666
21
-35.0288
0
LINE
8
BLACK
6
CONTINUOUS
10
39.2666
20
-35.0288
11
39.2672
21
-35.0288
0
LINE
8
BLACK
6
CONTINUOUS
10
39.2672
20
-35.0288
11
39.2678
21
-35.0287
0
LINE
8
BLACK
6
CONTINUOUS
10
39.2678
20
-35.0287
11
39.9979
21
-34.9751
0
LINE
8
BLACK
6
CONTINUOUS
10
39.9979
20
-34.9751
11
39.9988
21
-34.975
0
LINE
8
BLACK
6
CONTINUOUS
10
39.9988
20
-34.975
11
130.001
21
-34.975
0
LINE
8
BLACK
6
CONTINUOUS
10
130.001
20
-34.975
11
130.002
21
-34.9751
0
LINE
8
BLACK
6
CONTINUOUS
10
130.002
20
-34.9751
11
130.888
21
-35.0541
0
LINE
8
BLACK
6
CONTINUOUS
10
130.888
20
-35.0541
11
130.888
21
-35.0541
0
LINE
8
BLACK
6
CONTINUOUS
10
130.888
20
-35.0541
11
130.888
21
-35.0541
0
LINE
8
BLACK
6
CONTINUOUS
10
130.888
20
-35.0541
11
130.89
21
-35.0545
0
LINE
8
BLACK
6
CONTINUOUS
10
130.89
20
-35.0545
11
130.891
21
-35.0548
0
LINE
8
BLACK
6
CONTINUOUS
10
130.891
20
-35.0548
11
130.892
21
-35.0549
0
LINE
8
BLACK
6
CONTINUOUS
10
130.892
20
-35.0549
11
131.749
21
-35.2895
0
LINE
8
BLACK
6
CONTINUOUS
10
131.749
20
-35.2895
11
131.749
21
-35.2895
0
LINE
8
BLACK
6
CONTINUOUS
10
131.749
20
-35.2895
11
131.749
21
-35.2895
0
LINE
8
BLACK
6
CONTINUOUS
10
131.749
20
-35.2895
11
131.752
21
-35.2904
0
LINE
8
BLACK
6
CONTINUOUS
10
131.752
20
-35.2904
11
131.753
21
-35.2907
0
LINE
8
BLACK
6
CONTINUOUS
10
131.753
20
-35.2907
11
131.754
21
-35.291
0
LINE
8
BLACK
6
CONTINUOUS
10
131.754
20
-35.291
11
132.556
21
-35.6737
0
LINE
8
BLACK
6
CONTINUOUS
10
132.556
20
-35.6737
11
132.558
21
-35.6751
0
LINE
8
BLACK
6
CONTINUOUS
10
132.558
20
-35.6751
11
132.559
21
-35.6756
0
LINE
8
BLACK
6
CONTINUOUS
10
132.559
20
-35.6756
11
132.56
21
-35.676
0
LINE
8
BLACK
6
CONTINUOUS
10
132.56
20
-35.676
11
133.282
21
-36.1947
0
LINE
8
BLACK
6
CONTINUOUS
10
133.282
20
-36.1947
11
133.282
21
-36.1947
0
LINE
8
BLACK
6
CONTINUOUS
10
133.282
20
-36.1947
11
133.282
21
-36.1947
0
LINE
8
BLACK
6
CONTINUOUS
10
133.282
20
-36.1947
11
133.284
21
-36.1965
0
LINE
8
BLACK
6
CONTINUOUS
10
133.284
20
-36.1965
11
133.284
21
-36.1971
0
LINE
8
BLACK
6
CONTINUOUS
10
133.284
20
-36.1971
11
133.285
21
-36.1976
0
LINE
8
BLACK
6
CONTINUOUS
10
133.285
20
-36.1976
11
133.904
21
-36.836
0
LINE
8
BLACK
6
CONTINUOUS
10
133.904
20
-36.836
11
133.906
21
-36.8382
0
LINE
8
BLACK
6
CONTINUOUS
10
133.906
20
-36.8382
11
133.906
21
-36.8388
0
LINE
8
BLACK
6
CONTINUOUS
10
133.906
20
-36.8388
11
133.906
21
-36.8395
0
LINE
8
BLACK
6
CONTINUOUS
10
133.906
20
-36.8395
11
134.402
21
-37.5773
0
LINE
8
BLACK
6
CONTINUOUS
10
134.402
20
-37.5773
11
134.404
21
-37.5798
0
LINE
8
BLACK
6
CONTINUOUS
10
134.404
20
-37.5798
11
134.404
21
-37.5805
0
LINE
8
BLACK
6
CONTINUOUS
10
134.404
20
-37.5805
11
134.404
21
-37.5812
0
LINE
8
BLACK
6
CONTINUOUS
10
134.404
20
-37.5812
11
134.762
21
-38.3951
0
LINE
8
BLACK
6
CONTINUOUS
10
134.762
20
-38.3951
11
134.762
21
-38.3952
0
LINE
8
BLACK
6
CONTINUOUS
10
134.762
20
-38.3952
11
134.762
21
-38.3952
0
LINE
8
BLACK
6
CONTINUOUS
10
134.762
20
-38.3952
11
134.763
21
-38.3979
0
LINE
8
BLACK
6
CONTINUOUS
10
134.763
20
-38.3979
11
134.763
21
-38.3986
0
LINE
8
BLACK
6
CONTINUOUS
10
134.763
20
-38.3986
11
134.763
21
-38.3994
0
LINE
8
BLACK
6
CONTINUOUS
10
134.763
20
-38.3994
11
134.971
21
-39.2637
0
LINE
8
BLACK
6
CONTINUOUS
10
134.971
20
-39.2637
11
134.971
21
-39.2666
0
LINE
8
BLACK
6
CONTINUOUS
10
134.971
20
-39.2666
11
134.971
21
-39.2672
0
LINE
8
BLACK
6
CONTINUOUS
10
134.971
20
-39.2672
11
134.971
21
-39.2678
0
LINE
8
BLACK
6
CONTINUOUS
10
134.971
20
-39.2678
11
135.025
21
-39.9979
0
LINE
8
BLACK
6
CONTINUOUS
10
135.025
20
-39.9979
11
135.025
21
-39.9988
0
LINE
8
BLACK
6
CONTINUOUS
10
135.025
20
-39.9988
11
135.025
21
-90.0012
0
LINE
8
BLACK
6
CONTINUOUS
10
135.025
20
-90.0012
11
135.025
21
-90.0022
0
LINE
8
BLACK
6
CONTINUOUS
10
135.025
20
-90.0022
11
135.025
21
-90.0022
0
LINE
8
BLACK
6
CONTINUOUS
10
135.025
20
-90.0022
11
134.946
21
-90.8876
0
LINE
8
BLACK
6
CONTINUOUS
10
134.946
20
-90.8876
11
134.945
21
-90.8905
0
LINE
8
BLACK
6
CONTINUOUS
10
134.945
20
-90.8905
11
134.945
21
-90.8912
0
LINE
8
BLACK
6
CONTINUOUS
10
134.945
20
-90.8912
11
134.945
21
-90.892
0
LINE
8
BLACK
6
CONTINUOUS
10
134.945
20
-90.892
11
134.711
21
-91.7495
0
LINE
8
BLACK
6
CONTINUOUS
10
134.711
20
-91.7495
11
134.71
21
-91.7522
0
LINE
8
BLACK
6
CONTINUOUS
10
134.71
20
-91.7522
11
134.709
21
-91.7529
0
LINE
8
BLACK
6
CONTINUOUS
10
134.709
20
-91.7529
11
134.709
21
-91.7536
0
LINE
8
BLACK
6
CONTINUOUS
10
134.709
20
-91.7536
11
134.326
21
-92.556
0
LINE
8
BLACK
6
CONTINUOUS
10
134.326
20
-92.556
11
134.325
21
-92.5585
0
LINE
8
BLACK
6
CONTINUOUS
10
134.325
20
-92.5585
11
134.324
21
-92.5591
0
LINE
8
BLACK
6
CONTINUOUS
10
134.324
20
-92.5591
11
134.324
21
-92.5598
0
LINE
8
BLACK
6
CONTINUOUS
10
134.324
20
-92.5598
11
133.805
21
-93.2817
0
LINE
8
BLACK
6
CONTINUOUS
10
133.805
20
-93.2817
11
133.803
21
-93.2839
0
LINE
8
BLACK
6
CONTINUOUS
10
133.803
20
-93.2839
11
133.803
21
-93.2845
0
LINE
8
BLACK
6
CONTINUOUS
10
133.803
20
-93.2845
11
133.802
21
-93.2851
0
LINE
8
BLACK
6
CONTINUOUS
10
133.802
20
-93.2851
11
133.164
21
-93.9037
0
LINE
8
BLACK
6
CONTINUOUS
10
133.164
20
-93.9037
11
133.162
21
-93.9056
0
LINE
8
BLACK
6
CONTINUOUS
10
133.162
20
-93.9056
11
133.161
21
-93.906
0
LINE
8
BLACK
6
CONTINUOUS
10
133.161
20
-93.906
11
133.161
21
-93.9065
0
LINE
8
BLACK
6
CONTINUOUS
10
133.161
20
-93.9065
11
132.423
21
-94.4023
0
LINE
8
BLACK
6
CONTINUOUS
10
132.423
20
-94.4023
11
132.423
21
-94.4023
0
LINE
8
BLACK
6
CONTINUOUS
10
132.423
20
-94.4023
11
132.423
21
-94.4023
0
LINE
8
BLACK
6
CONTINUOUS
10
132.423
20
-94.4023
11
132.42
21
-94.4037
0
LINE
8
BLACK
6
CONTINUOUS
10
132.42
20
-94.4037
11
132.42
21
-94.404
0
LINE
8
BLACK
6
CONTINUOUS
10
132.42
20
-94.404
11
132.419
21
-94.4044
0
LINE
8
BLACK
6
CONTINUOUS
10
132.419
20
-94.4044
11
131.605
21
-94.7617
0
LINE
8
BLACK
6
CONTINUOUS
10
131.605
20
-94.7617
11
131.602
21
-94.7627
0
LINE
8
BLACK
6
CONTINUOUS
10
131.602
20
-94.7627
11
131.601
21
-94.7629
0
LINE
8
BLACK
6
CONTINUOUS
10
131.601
20
-94.7629
11
131.601
21
-94.7632
0
LINE
8
BLACK
6
CONTINUOUS
10
131.601
20
-94.7632
11
130.736
21
-94.9707
0
LINE
8
BLACK
6
CONTINUOUS
10
130.736
20
-94.9707
11
130.733
21
-94.9712
0
LINE
8
BLACK
6
CONTINUOUS
10
130.733
20
-94.9712
11
130.733
21
-94.9712
0
LINE
8
BLACK
6
CONTINUOUS
10
130.733
20
-94.9712
11
130.732
21
-94.9713
0
LINE
8
BLACK
6
CONTINUOUS
10
130.732
20
-94.9713
11
130.002
21
-95.0249
0
LINE
8
BLACK
6
CONTINUOUS
10
130.002
20
-95.0249
11
130.001
21
-95.025
0
LINE
8
BLACK
6
CONTINUOUS
10
130.001
20
-95.025
11
39.9988
21
-95.025
0
LINE
8
BLACK
6
CONTINUOUS
10
39.9988
20
-95.025
11
39.9978
21
-95.0249
0
LINE
8
BLACK
6
CONTINUOUS
10
39.9978
20
-95.0249
11
39.9978
21
-95.0249
0
LINE
8
BLACK
6
CONTINUOUS
10
39.9978
20
-95.0249
11
39.1124
21
-94.9459
0
LINE
8
BLACK
6
CONTINUOUS
10
39.1124
20
-94.9459
11
39.1124
21
-94.9459
0
LINE
8
BLACK
6
CONTINUOUS
10
39.1124
20
-94.9459
11
39.1123
21
-94.9459
0
LINE
8
BLACK
6
CONTINUOUS
10
40.0009
20
-35.025
11
39.2734
21
-35.0784
0
LINE
8
BLACK
6
CONTINUOUS
10
39.2734
20
-35.0784
11
38.4132
21
-35.2849
0
LINE
8
BLACK
6
CONTINUOUS
10
38.4132
20
-35.2849
11
37.6033
21
-35.6405
0
LINE
8
BLACK
6
CONTINUOUS
10
37.6033
20
-35.6405
11
36.8692
21
-36.1338
0
LINE
8
BLACK
6
CONTINUOUS
10
36.8692
20
-36.1338
11
36.234
21
-36.7493
0
LINE
8
BLACK
6
CONTINUOUS
10
36.234
20
-36.7493
11
35.7179
21
-37.4676
0
LINE
8
BLACK
6
CONTINUOUS
10
35.7179
20
-37.4676
11
35.3371
21
-38.2659
0
LINE
8
BLACK
6
CONTINUOUS
10
35.3371
20
-38.2659
11
35.1037
21
-39.119
0
LINE
8
BLACK
6
CONTINUOUS
10
35.1037
20
-39.119
11
35.025
21
-40.0011
0
LINE
8
BLACK
6
CONTINUOUS
10
35.025
20
-40.0011
11
35.025
21
-89.9991
0
LINE
8
BLACK
6
CONTINUOUS
10
35.025
20
-89.9991
11
35.0784
21
-90.7266
0
LINE
8
BLACK
6
CONTINUOUS
10
35.0784
20
-90.7266
11
35.2849
21
-91.5868
0
LINE
8
BLACK
6
CONTINUOUS
10
35.2849
20
-91.5868
11
35.6405
21
-92.3967
0
LINE
8
BLACK
6
CONTINUOUS
10
35.6405
20
-92.3967
11
36.1338
21
-93.1308
0
LINE
8
BLACK
6
CONTINUOUS
10
36.1338
20
-93.1308
11
36.7493
21
-93.766
0
LINE
8
BLACK
6
CONTINUOUS
10
36.7493
20
-93.766
11
37.4676
21
-94.2821
0
LINE
8
BLACK
6
CONTINUOUS
10
37.4676
20
-94.2821
11
38.2659
21
-94.6629
0
LINE
8
BLACK
6
CONTINUOUS
10
38.2659
20
-94.6629
11
39.119
21
-94.8963
0
LINE
8
BLACK
6
CONTINUOUS
10
39.119
20
-94.8963
11
40.0011
21
-94.975
0
LINE
8
BLACK
6
CONTINUOUS
10
40.0011
20
-94.975
11
129.999
21
-94.975
0
LINE
8
BLACK
6
CONTINUOUS
10
129.999
20
-94.975
11
130.727
21
-94.9216
0
LINE
8
BLACK
6
CONTINUOUS
10
130.727
20
-94.9216
11
131.587
21
-94.7151
0
LINE
8
BLACK
6
CONTINUOUS
10
131.587
20
-94.7151
11
132.397
21
-94.3595
0
LINE
8
BLACK
6
CONTINUOUS
10
132.397
20
-94.3595
11
133.131
21
-93.8662
0
LINE
8
BLACK
6
CONTINUOUS
10
133.131
20
-93.8662
11
133.766
21
-93.2507
0
LINE
8
BLACK
6
CONTINUOUS
10
133.766
20
-93.2507
11
134.282
21
-92.5324
0
LINE
8
BLACK
6
CONTINUOUS
10
134.282
20
-92.5324
11
134.663
21
-91.7341
0
LINE
8
BLACK
6
CONTINUOUS
10
134.663
20
-91.7341
11
134.896
21
-90.881
0
LINE
8
BLACK
6
CONTINUOUS
10
134.896
20
-90.881
11
134.975
21
-89.9989
0
LINE
8
BLACK
6
CONTINUOUS
10
134.975
20
-89.9989
11
134.975
21
-40.0009
0
LINE
8
BLACK
6
CONTINUOUS
10
134.975
20
-40.0009
11
134.922
21
-39.2734
0
LINE
8
BLACK
6
CONTINUOUS
10
134.922
20
-39.2734
11
134.715
21
-38.4132
0
LINE
8
BLACK
6
CONTINUOUS
10
134.715
20
-38.4132
11
134.36
21
-37.6033
0
LINE
8
BLACK
6
CONTINUOUS
10
134.36
20
-37.6033
11
133.866
21
-36.8692
0
LINE
8
BLACK
6
CONTINUOUS
10
133.866
20
-36.8692
11
133.251
21
-36.234
0
LINE
8
BLACK
6
CONTINUOUS
10
133.251
20
-36.234
11
132.532
21
-35.7179
0
LINE
8
BLACK
6
CONTINUOUS
10
132.532
20
-35.7179
11
131.734
21
-35.3371
0
LINE
8
BLACK
6
CONTINUOUS
10
131.734
20
-35.3371
11
130.881
21
-35.1037
0
LINE
8
BLACK
6
CONTINUOUS
10
130.881
20
-35.1037
11
129.999
21
-35.025
0
LINE
8
BLACK
6
CONTINUOUS
10
129.999
20
-35.025
11
40.0009
21
-35.025
  0
ENDSEC
  0
EOF
